<svg xmlns="http://www.w3.org/2000/svg" xmlns:xlink="http://www.w3.org/1999/xlink" width="200"
    zoomAndPan="magnify" viewBox="0 0 150 149.999998" height="200"
    preserveAspectRatio="xMidYMid meet" version="1.0">
    <defs>
        <clipPath id="373fd0f0fb">
            <path
                d="M 26.070312 32 L 123.570312 32 L 123.570312 112 L 26.070312 112 Z M 26.070312 32 "
                clip-rule="nonzero" />
        </clipPath>ssssss
        <clipPath id="0c9aae01c3">s
            <path
                d="M 26.070312 28.203125 L 123 28.203125 L 123 115.203125 L 26.070312 115.203125 Z M 26.070312 28.203125 "
                clip-rule="nonzero" />
        </clipPath>
        <clipPath id="67aae9fe96">
            <path
                d="M 26.070312 28.203125 L 123.570312 28.203125 L 123.570312 115.203125 L 26.070312 115.203125 Z M 26.070312 28.203125 "
                clip-rule="nonzero" />
        </clipPath>
    </defs>
    <rect x="-15" width="180" fill="#ffffff" y="-15" height="179.999997" fill-opacity="1" />
    <rect x="-15" width="180" fill="#ffffff" y="-15" height="179.999997" fill-opacity="1" />
    <path fill="#00d8ff"
        d="M 82.125 71.625 C 82.125 72.175781 82.074219 72.71875 81.96875 73.257812 C 81.859375 73.792969 81.703125 74.316406 81.492188 74.824219 C 81.285156 75.328125 81.027344 75.8125 80.722656 76.265625 C 80.421875 76.722656 80.074219 77.144531 79.691406 77.53125 C 79.304688 77.921875 78.882812 78.265625 78.429688 78.570312 C 77.976562 78.875 77.496094 79.132812 76.992188 79.34375 C 76.484375 79.554688 75.964844 79.710938 75.429688 79.820312 C 74.894531 79.925781 74.351562 79.980469 73.808594 79.980469 C 73.261719 79.980469 72.71875 79.925781 72.183594 79.820312 C 71.648438 79.710938 71.128906 79.554688 70.621094 79.34375 C 70.117188 79.132812 69.636719 78.875 69.183594 78.570312 C 68.730469 78.265625 68.308594 77.921875 67.921875 77.53125 C 67.539062 77.144531 67.191406 76.722656 66.890625 76.265625 C 66.585938 75.8125 66.328125 75.328125 66.121094 74.824219 C 65.910156 74.316406 65.753906 73.792969 65.648438 73.257812 C 65.539062 72.71875 65.488281 72.175781 65.488281 71.625 C 65.488281 71.078125 65.539062 70.535156 65.648438 69.996094 C 65.753906 69.460938 65.910156 68.9375 66.121094 68.429688 C 66.328125 67.921875 66.585938 67.441406 66.890625 66.984375 C 67.191406 66.53125 67.539062 66.109375 67.921875 65.71875 C 68.308594 65.332031 68.730469 64.984375 69.183594 64.679688 C 69.636719 64.375 70.117188 64.121094 70.621094 63.910156 C 71.128906 63.699219 71.648438 63.542969 72.183594 63.433594 C 72.71875 63.328125 73.261719 63.273438 73.808594 63.273438 C 74.351562 63.273438 74.894531 63.328125 75.429688 63.433594 C 75.964844 63.542969 76.484375 63.699219 76.992188 63.910156 C 77.496094 64.121094 77.976562 64.375 78.429688 64.679688 C 78.882812 64.984375 79.304688 65.332031 79.691406 65.71875 C 80.074219 66.109375 80.421875 66.53125 80.722656 66.984375 C 81.027344 67.441406 81.285156 67.921875 81.492188 68.429688 C 81.703125 68.9375 81.859375 69.460938 81.96875 69.996094 C 82.074219 70.535156 82.125 71.078125 82.125 71.625 Z M 82.125 71.625 "
        fill-opacity="1" fill-rule="nonzero" />
    <g clip-path="url(#373fd0f0fb)">
        <path stroke-linecap="butt"
            transform="matrix(0.165847, 0, 0, 0.166502, 29.106022, 32.060995)" fill="none"
            stroke-linejoin="miter"
            d="M 269.541669 135.635481 C 336.880813 135.635481 399.462172 145.3013 446.639614 161.53612 C 503.473946 181.102364 538.427178 210.780179 538.427178 237.619247 C 538.427178 265.631351 501.401247 297.139103 440.350858 317.362246 C 394.209766 332.658638 333.465571 340.635284 269.541669 340.635284 C 203.969029 340.635284 141.905844 333.127853 95.223024 317.198021 C 36.174673 296.998338 0.632606 265.091754 0.632606 237.619247 C 0.632606 210.991326 33.984208 181.548117 90.041278 162.005335 C 137.383593 145.512446 201.495923 135.635481 269.518115 135.635481 Z M 269.541669 135.635481 "
            stroke="#00d8ff" stroke-width="24" stroke-opacity="1" stroke-miterlimit="4" />
    </g>
    <g clip-path="url(#0c9aae01c3)">
        <path stroke-linecap="butt"
            transform="matrix(0.165847, 0, 0, 0.166502, 29.106022, 32.060995)" fill="none"
            stroke-linejoin="miter"
            d="M 180.745386 186.920623 C 214.379628 128.573804 254.019984 79.18898 291.658303 46.43781 C 336.99858 6.976873 380.148392 -8.483744 403.419142 4.93579 C 427.679134 18.918382 436.464549 66.754797 423.486631 129.74684 C 413.68842 177.348648 390.252796 233.935913 358.314398 289.326682 C 325.575185 346.125093 288.078187 396.166817 250.93449 428.612997 C 203.969029 469.669264 158.534538 484.543362 134.769167 470.818839 C 111.686844 457.516609 102.854322 413.903124 113.924416 355.579765 C 123.275112 306.312245 146.757843 245.853961 180.721832 186.920623 Z M 180.745386 186.920623 "
            stroke="#00d8ff" stroke-width="24" stroke-opacity="1" stroke-miterlimit="4" />
    </g>
    <g clip-path="url(#67aae9fe96)">
        <path stroke-linecap="butt"
            transform="matrix(0.165847, 0, 0, 0.166502, 29.106022, 32.060995)" fill="none"
            stroke-linejoin="miter"
            d="M 180.816046 289.490907 C 147.08759 231.1s91009 124.099481 172.210749 114.513251 123.224759 C 102.972089 64.221039 111.121562 19.129528 134.368759 5.663073 C 158.605198 -8.36644 204.440097 7.915302 252.512567 50.590358 C 288.879003 82.872314 326.211127 131.436012 358.243738 186.779859 C 391.077165 243.507888 415.690458 300.986661 425.276688 349.339213 C 437.383131 410.571701 427.584921 457.328923 403.819549 471.100368 C 380.76078 484.44952 338.576657 470.302703 293.566127 431.592509 C 255.574508 398.888261 214.897802 348.330401 180.816046 289.467446 Z M 180.816046 289.490907 "
            stroke="#00d8ff" stroke-width="24" stroke-opacity="1" stroke-miterlimit="4" />
    </g>
</svg>