<svg xmlns="http://www.w3.org/2000/svg" xmlns:xlink="http://www.w3.org/1999/xlink" width="200" zoomAndPan="magnify" viewBox="0 0 150 149.999998" height="200" preserveAspectRatio="xMidYMid meet" version="1.0"><defs><clipPath id="d6bf147045"><path d="M 37.367188 42.496094 L 112.367188 42.496094 L 112.367188 107.746094 L 37.367188 107.746094 Z M 37.367188 42.496094 " clip-rule="nonzero"/></clipPath><clipPath id="dc379169d5"><path d="M 52 42.496094 L 98 42.496094 L 98 82 L 52 82 Z M 52 42.496094 " clip-rule="nonzero"/></clipPath></defs><rect x="-15" width="180" fill="#ffffff" y="-15" height="179.999997" fill-opacity="1"/><rect x="-15" width="180" fill="#ffffff" y="-15" height="179.999997" fill-opacity="1"/><g clip-path="url(#d6bf147045)"><path fill="#41b883" d="M 97.367188 42.542969 L 112.367188 42.542969 L 74.867188 107.699219 L 37.367188 42.542969 L 66.054688 42.542969 L 74.867188 57.652344 L 83.492188 42.542969 Z M 97.367188 42.542969 " fill-opacity="1" fill-rule="nonzero"/><path fill="#41b883" d="M 37.367188 42.542969 L 74.867188 107.699219 L 112.367188 42.542969 L 97.367188 42.542969 L 74.867188 81.636719 L 52.179688 42.542969 Z M 37.367188 42.542969 " fill-opacity="1" fill-rule="nonzero"/></g><g clip-path="url(#dc379169d5)"><path fill="#35495e" d="M 52.179688 42.542969 L 74.867188 81.824219 L 97.367188 42.542969 L 83.492188 42.542969 L 74.867188 57.652344 L 66.054688 42.542969 Z M 52.179688 42.542969 " fill-opacity="1" fill-rule="nonzero"/></g></svg>