<svg xmlns="http://www.w3.org/2000/svg" xmlns:xlink="http://www.w3.org/1999/xlink" width="200" zoomAndPan="magnify" viewBox="0 0 150 149.999998" height="200" preserveAspectRatio="xMidYMid meet" version="1.0"><defs><clipPath id="2ce180b767"><path d="M 57 56 L 111.636719 56 L 111.636719 111.636719 L 57 111.636719 Z M 57 56 " clip-rule="nonzero"/></clipPath><clipPath id="7d2dcee951"><path d="M 38.136719 38.136719 L 92 38.136719 L 92 93 L 38.136719 93 Z M 38.136719 38.136719 " clip-rule="nonzero"/></clipPath></defs><rect x="-15" width="180" fill="#ffffff" y="-15" height="179.999997" fill-opacity="1"/><rect x="-15" width="180" fill="#ffffff" y="-15" height="179.999997" fill-opacity="1"/><g clip-path="url(#2ce180b767)"><path fill="#f2bb30" d="M 101.046875 92.121094 C 106.085938 92.121094 107.949219 88.605469 109.699219 83.335938 C 111.515625 77.910156 111.433594 72.6875 109.699219 65.738281 C 108.449219 60.734375 106.085938 56.953125 101.046875 56.953125 L 94.550781 56.953125 L 94.550781 64.640625 C 94.550781 70.601562 89.496094 75.625 83.730469 75.625 L 66.421875 75.625 C 61.6875 75.625 57.769531 79.675781 57.769531 84.425781 L 57.769531 100.921875 C 57.769531 105.617188 61.851562 108.375 66.421875 109.71875 C 71.898438 111.324219 77.164062 111.613281 83.726562 109.71875 C 88.085938 108.457031 92.378906 105.910156 92.378906 100.921875 L 92.378906 94.324219 L 75.085938 94.324219 L 75.085938 92.121094 Z M 84.8125 98.714844 C 86.609375 98.714844 88.070312 100.191406 88.070312 102.007812 C 88.070312 103.839844 86.613281 105.3125 84.8125 105.3125 C 83.027344 105.3125 81.554688 103.820312 81.554688 102.007812 C 81.574219 100.175781 83.035156 98.714844 84.8125 98.714844 Z M 84.8125 98.714844 " fill-opacity="1" fill-rule="nonzero"/></g><g clip-path="url(#7d2dcee951)"><path fill="#35668f" d="M 48.855469 92.121094 L 54.800781 92.121094 L 54.800781 84.214844 C 54.800781 78.492188 59.742188 73.453125 65.625 73.453125 L 82.925781 73.453125 C 87.738281 73.453125 91.582031 69.484375 91.582031 64.652344 L 91.582031 48.144531 C 91.582031 43.445312 87.628906 39.925781 82.925781 39.136719 C 77.125 38.175781 70.824219 38.230469 65.625 39.15625 L 65.625 39.152344 C 58.300781 40.445312 56.976562 43.148438 56.976562 48.15625 L 56.976562 54.753906 L 74.296875 54.753906 L 74.296875 56.957031 L 50.476562 56.957031 C 45.4375 56.957031 41.027344 59.988281 39.652344 65.742188 C 38.066406 72.339844 38 76.453125 39.652344 83.339844 C 40.882812 88.460938 43.820312 92.121094 48.855469 92.121094 Z M 64.539062 50.34375 C 62.742188 50.34375 61.28125 48.871094 61.28125 47.054688 C 61.304688 45.222656 62.742188 43.75 64.539062 43.75 C 66.324219 43.75 67.796875 45.238281 67.796875 47.054688 C 67.796875 48.871094 66.339844 50.34375 64.539062 50.34375 Z M 64.539062 50.34375 " fill-opacity="1" fill-rule="nonzero"/></g></svg>