<svg xmlns="http://www.w3.org/2000/svg" xmlns:xlink="http://www.w3.org/1999/xlink" width="200" zoomAndPan="magnify" viewBox="0 0 150 149.999998" height="200" preserveAspectRatio="xMidYMid meet" version="1.0"><defs><clipPath id="65b36bcf35"><path d="M 63 24.253906 L 87 24.253906 L 87 75 L 63 75 Z M 63 24.253906 " clip-rule="nonzero"/></clipPath></defs><rect x="-15" width="180" fill="#ffffff" y="-15" height="179.999997" fill-opacity="1"/><rect x="-15" width="180" fill="#ffffff" y="-15" height="179.999997" fill-opacity="1"/><path fill="#4e7d9d" d="M 46.417969 109.351562 C 82.574219 115.273438 112.320312 106.683594 102.941406 102.414062 C 102.941406 102.414062 105.503906 104.546875 100.125 106.191406 C 89.890625 109.328125 57.527344 110.269531 48.542969 106.320312 C 45.3125 104.898438 51.375 102.925781 53.273438 102.515625 C 55.261719 102.078125 56.402344 102.160156 56.402344 102.160156 C 52.796875 99.601562 33.160156 107.179688 46.417969 109.351562 Z M 46.417969 109.351562 " fill-opacity="1" fill-rule="nonzero"/><path fill="#4e7d9d" d="M 108.675781 107.074219 C 108.675781 107.074219 107.535156 110.027344 95.191406 112.375 C 81.277344 115.023438 64.101562 114.714844 53.917969 113.015625 C 53.917969 113.011719 56.007812 114.757812 66.726562 115.453125 C 83.035156 116.507812 108.082031 114.871094 108.675781 107.074219 Z M 108.675781 107.074219 " fill-opacity="1" fill-rule="nonzero"/><path fill="#4e7d9d" d="M 87.472656 87.339844 C 76.988281 89.378906 70.9375 89.308594 63.265625 88.511719 C 57.34375 87.890625 61.222656 84.992188 61.222656 84.992188 C 45.882812 90.128906 69.761719 95.964844 91.191406 89.632812 C 88.917969 88.820312 87.472656 87.339844 87.472656 87.339844 Z M 87.472656 87.339844 " fill-opacity="1" fill-rule="nonzero"/><path fill="#4e7d9d" d="M 94.582031 91.285156 C 94.503906 91.496094 94.242188 91.730469 94.242188 91.734375 C 116.9375 85.707031 108.59375 70.488281 97.742188 74.34375 C 96.789062 74.6875 96.289062 75.476562 96.289062 75.476562 C 96.289062 75.476562 96.890625 75.230469 98.230469 74.949219 C 103.71875 73.792969 111.574219 82.363281 94.582031 91.285156 Z M 94.582031 91.285156 " fill-opacity="1" fill-rule="nonzero"/><g clip-path="url(#65b36bcf35)"><path fill="#f2941b" d="M 64.753906 53.328125 C 60.53125 59.738281 66.828125 66.617188 75.410156 74.441406 C 72.0625 66.804688 60.710938 60.113281 75.414062 48.382812 C 93.75 33.761719 84.335938 24.253906 84.335938 24.253906 C 88.140625 39.359375 70.953125 43.917969 64.753906 53.328125 Z M 64.753906 53.328125 " fill-opacity="1" fill-rule="nonzero"/></g><path fill="#f2941b" d="M 95.683594 42.941406 C 95.683594 42.9375 64.679688 50.757812 79.488281 67.996094 C 83.859375 73.078125 78.339844 77.652344 78.339844 77.652344 C 78.339844 77.652344 89.433594 71.867188 84.335938 64.625 C 79.578125 57.867188 75.929688 54.515625 95.683594 42.941406 Z M 95.683594 42.941406 " fill-opacity="1" fill-rule="nonzero"/><path fill="#4e7d9d" d="M 63.394531 95.003906 C 49.46875 98.933594 71.863281 107.058594 89.597656 99.386719 C 86.695312 98.242188 84.613281 96.921875 84.613281 96.921875 C 76.707031 98.441406 73.039062 98.558594 65.859375 97.726562 C 59.929688 97.039062 63.394531 95.003906 63.394531 95.003906 Z M 63.394531 95.003906 " fill-opacity="1" fill-rule="nonzero"/><path fill="#4e7d9d" d="M 90.511719 80.175781 C 92.253906 78.976562 94.660156 77.9375 94.660156 77.9375 C 94.660156 77.9375 87.820312 79.175781 81.003906 79.757812 C 72.667969 80.460938 63.71875 80.597656 59.230469 79.992188 C 48.59375 78.558594 65.058594 74.609375 65.058594 74.609375 C 65.058594 74.609375 58.664062 74.175781 50.808594 78.011719 C 41.507812 82.550781 73.800781 84.617188 90.511719 80.175781 Z M 90.511719 80.175781 " fill-opacity="1" fill-rule="nonzero"/></svg>