<svg xmlns="http://www.w3.org/2000/svg" xmlns:xlink="http://www.w3.org/1999/xlink" width="200" zoomAndPan="magnify" viewBox="0 0 150 149.999998" height="200" preserveAspectRatio="xMidYMid meet" version="1.0"><defs><g/><clipPath id="ad0aadc128"><path d="M 17.085938 17.085938 L 132.585938 17.085938 L 132.585938 132.585938 L 17.085938 132.585938 Z M 17.085938 17.085938 " clip-rule="nonzero"/></clipPath><clipPath id="d87e2d3057"><path d="M 82 45.4375 L 94.21875 45.4375 L 94.21875 57 L 82 57 Z M 82 45.4375 " clip-rule="nonzero"/></clipPath><clipPath id="c819718dfa"><path d="M 72 67 L 78 67 L 78 72.4375 L 72 72.4375 Z M 72 67 " clip-rule="nonzero"/></clipPath><clipPath id="6ca23844d0"><path d="M 62 49 L 89 49 L 89 72.4375 L 62 72.4375 Z M 62 49 " clip-rule="nonzero"/></clipPath><clipPath id="da997a166c"><path d="M 53 45.4375 L 65 45.4375 L 65 56 L 53 56 Z M 53 45.4375 " clip-rule="nonzero"/></clipPath></defs><rect x="-15" width="180" fill="#ffffff" y="-15" height="179.999997" fill-opacity="1"/><rect x="-15" width="180" fill="#ffffff" y="-15" height="179.999997" fill-opacity="1"/><g clip-path="url(#ad0aadc128)"><path fill="#000000" d="M 125.175781 95.996094 L 132.152344 85.535156 C 132.542969 84.945312 132.578125 84.1875 132.246094 83.5625 C 131.910156 82.9375 131.257812 82.546875 130.550781 82.546875 L 119.023438 82.546875 L 119.023438 77.078125 C 122.675781 65.695312 124.789062 56.285156 124.789062 42.203125 C 124.789062 41.460938 124.363281 40.789062 123.695312 40.46875 L 75.664062 17.414062 C 75.140625 17.160156 74.527344 17.160156 74.003906 17.414062 L 25.972656 40.46875 C 25.304688 40.789062 24.882812 41.460938 24.882812 42.203125 C 24.882812 56.285156 26.996094 65.695312 30.648438 77.082031 L 30.648438 82.546875 L 19.121094 82.546875 C 18.410156 82.546875 17.757812 82.9375 17.425781 83.5625 C 17.089844 84.1875 17.128906 84.945312 17.519531 85.535156 L 24.496094 95.996094 L 17.519531 106.457031 C 17.128906 107.046875 17.089844 107.804688 17.425781 108.429688 C 17.757812 109.054688 18.410156 109.445312 19.121094 109.445312 L 45.027344 109.445312 C 52.746094 119.476562 62.453125 127.179688 74.054688 132.335938 C 74.304688 132.445312 74.566406 132.5 74.835938 132.5 C 75.101562 132.5 75.367188 132.445312 75.617188 132.335938 C 87.214844 127.179688 96.921875 119.476562 104.644531 109.445312 L 130.550781 109.445312 C 131.257812 109.445312 131.910156 109.054688 132.246094 108.429688 C 132.578125 107.804688 132.542969 107.046875 132.148438 106.457031 Z M 33.75 45.261719 L 74.003906 25.941406 C 74.527344 25.6875 75.140625 25.6875 75.664062 25.941406 L 115.921875 45.261719 C 116.613281 45.59375 117.039062 46.300781 117.011719 47.066406 C 116.726562 54.542969 114.9375 64.34375 111.960938 74.863281 L 107.980469 74.863281 C 110.839844 64.945312 112.683594 55.371094 113.109375 48.171875 L 74.835938 29.800781 L 36.5625 48.171875 C 36.988281 55.371094 38.828125 64.945312 41.691406 74.863281 L 37.707031 74.863281 C 34.734375 64.34375 32.941406 54.542969 32.660156 47.066406 C 32.632812 46.300781 33.058594 45.59375 33.75 45.261719 Z M 22.707031 105.601562 L 28.402344 97.0625 C 28.832031 96.417969 28.832031 95.574219 28.402344 94.929688 L 22.707031 86.390625 L 30.648438 86.390625 L 30.648438 99.839844 C 30.648438 100.898438 31.503906 101.761719 32.566406 101.761719 L 39.730469 101.761719 C 40.242188 102.601562 40.824219 103.457031 41.390625 104.3125 C 41.667969 104.738281 41.925781 105.183594 42.210938 105.601562 Z M 75.703125 122.6875 C 75.429688 122.824219 75.132812 122.894531 74.835938 122.894531 C 74.539062 122.894531 74.238281 122.824219 73.96875 122.6875 C 62.898438 117.085938 54.925781 110.402344 48.925781 101.761719 L 53.65625 101.761719 C 58.921875 108.609375 65.75 114.09375 74.835938 118.8125 C 83.921875 114.09375 90.746094 108.609375 96.015625 101.761719 L 100.742188 101.761719 C 94.742188 110.402344 86.773438 117.085938 75.703125 122.6875 Z M 99.757812 97.917969 L 34.488281 97.917969 L 34.488281 78.707031 L 115.183594 78.707031 L 115.183594 97.917969 Z M 107.460938 105.601562 C 107.742188 105.183594 108 104.738281 108.277344 104.3125 C 108.847656 103.457031 109.425781 102.601562 109.9375 101.761719 L 117.101562 101.761719 C 118.164062 101.761719 119.023438 100.898438 119.023438 99.839844 L 119.023438 86.390625 L 126.960938 86.390625 L 121.269531 94.929688 C 120.835938 95.574219 120.835938 96.417969 121.269531 97.0625 L 126.960938 105.601562 Z M 107.460938 105.601562 " fill-opacity="1" fill-rule="nonzero"/></g><g clip-path="url(#d87e2d3057)"><path fill="#ffffff" d="M 85.738281 45.722656 L 82.871094 48.589844 L 89.878906 55.597656 C 90.304688 56.019531 90.867188 56.253906 91.460938 56.253906 C 92.058594 56.253906 92.621094 56.019531 93.042969 55.597656 L 94.328125 54.3125 Z M 85.738281 45.722656 " fill-opacity="1" fill-rule="nonzero"/></g><path fill="#ffffff" d="M 84.21875 62.304688 L 83.699219 61.78125 L 83.171875 61.257812 L 81.886719 59.96875 C 81.679688 59.761719 81.402344 59.648438 81.109375 59.648438 C 80.816406 59.648438 80.539062 59.761719 80.332031 59.96875 C 79.902344 60.398438 79.902344 61.09375 80.332031 61.523438 L 81.621094 62.808594 L 82.144531 63.335938 L 82.667969 63.859375 L 83.472656 64.660156 C 83.679688 64.871094 83.957031 64.984375 84.25 64.984375 C 84.542969 64.984375 84.820312 64.871094 85.027344 64.660156 C 85.453125 64.234375 85.453125 63.539062 85.027344 63.109375 Z M 84.21875 62.304688 " fill-opacity="1" fill-rule="nonzero"/><path fill="#ffffff" d="M 81.621094 64.902344 L 79.289062 62.570312 C 79.078125 62.363281 78.804688 62.246094 78.507812 62.246094 C 78.214844 62.246094 77.941406 62.363281 77.734375 62.570312 C 77.304688 62.996094 77.304688 63.695312 77.734375 64.121094 L 79.546875 65.933594 L 80.066406 66.457031 L 80.875 67.261719 C 81.082031 67.46875 81.359375 67.582031 81.648438 67.582031 C 81.945312 67.582031 82.21875 67.46875 82.425781 67.261719 C 82.855469 66.835938 82.855469 66.136719 82.425781 65.707031 Z M 81.621094 64.902344 " fill-opacity="1" fill-rule="nonzero"/><path fill="#ffffff" d="M 79.828125 68.308594 L 79.019531 67.503906 L 78.5 66.980469 L 76.6875 65.167969 C 76.480469 64.960938 76.203125 64.847656 75.910156 64.847656 C 75.617188 64.847656 75.339844 64.960938 75.132812 65.167969 C 74.925781 65.375 74.8125 65.652344 74.8125 65.945312 C 74.8125 66.238281 74.925781 66.511719 75.132812 66.722656 L 76.421875 68.007812 L 77.46875 69.054688 L 78.273438 69.863281 C 78.480469 70.070312 78.757812 70.183594 79.050781 70.183594 C 79.34375 70.183594 79.621094 70.070312 79.828125 69.863281 C 80.035156 69.652344 80.148438 69.378906 80.148438 69.085938 C 80.148438 68.792969 80.035156 68.515625 79.828125 68.308594 Z M 79.828125 68.308594 " fill-opacity="1" fill-rule="nonzero"/><g clip-path="url(#c819718dfa)"><path fill="#ffffff" d="M 76.421875 70.101562 L 75.375 69.054688 L 74.089844 67.765625 C 73.878906 67.5625 73.605469 67.445312 73.3125 67.445312 C 73.019531 67.445312 72.742188 67.558594 72.535156 67.765625 C 72.105469 68.195312 72.105469 68.894531 72.535156 69.320312 L 74.347656 71.132812 L 74.867188 71.65625 L 75.675781 72.460938 C 75.882812 72.667969 76.15625 72.78125 76.453125 72.78125 C 76.746094 72.78125 77.023438 72.667969 77.226562 72.460938 C 77.65625 72.035156 77.65625 71.335938 77.226562 70.90625 Z M 76.421875 70.101562 " fill-opacity="1" fill-rule="nonzero"/></g><g clip-path="url(#6ca23844d0)"><path fill="#ffffff" d="M 80.679688 51.382812 C 79.746094 51.382812 78.871094 51.019531 78.210938 50.359375 C 77.832031 49.980469 77.324219 49.773438 76.789062 49.773438 C 76.25 49.773438 75.746094 49.980469 75.367188 50.363281 L 74.867188 50.859375 L 80.308594 56.300781 C 80.449219 56.441406 80.527344 56.628906 80.527344 56.828125 C 80.527344 57.023438 80.449219 57.210938 80.308594 57.351562 L 78.683594 58.953125 C 78.027344 59.601562 77.152344 59.960938 76.226562 59.960938 C 75.292969 59.960938 74.417969 59.597656 73.753906 58.9375 L 71.464844 56.644531 C 71.140625 56.324219 70.714844 56.144531 70.257812 56.144531 C 69.898438 56.144531 69.550781 56.261719 69.261719 56.46875 L 63.953125 61.777344 L 62.90625 62.828125 C 62.476562 63.253906 62.476562 63.953125 62.90625 64.378906 C 63.113281 64.585938 63.386719 64.703125 63.679688 64.703125 C 63.976562 64.703125 64.25 64.585938 64.457031 64.378906 C 64.746094 64.089844 65.214844 64.089844 65.503906 64.378906 C 65.648438 64.523438 65.722656 64.714844 65.722656 64.902344 C 65.722656 65.09375 65.648438 65.28125 65.503906 65.425781 C 65.074219 65.855469 65.074219 66.550781 65.503906 66.980469 C 65.710938 67.1875 65.988281 67.300781 66.28125 67.300781 C 66.574219 67.300781 66.851562 67.1875 67.058594 66.980469 C 67.347656 66.691406 67.816406 66.691406 68.101562 66.980469 C 68.246094 67.125 68.320312 67.3125 68.320312 67.503906 C 68.320312 67.691406 68.246094 67.882812 68.101562 68.027344 C 67.894531 68.234375 67.78125 68.511719 67.78125 68.804688 C 67.78125 69.097656 67.894531 69.375 68.101562 69.582031 C 68.3125 69.785156 68.585938 69.902344 68.878906 69.902344 C 69.171875 69.902344 69.449219 69.785156 69.65625 69.582031 C 69.945312 69.292969 70.414062 69.292969 70.703125 69.582031 C 70.847656 69.726562 70.921875 69.914062 70.921875 70.101562 C 70.921875 70.292969 70.847656 70.480469 70.703125 70.625 C 70.277344 71.054688 70.277344 71.75 70.703125 72.179688 C 70.910156 72.386719 71.1875 72.503906 71.480469 72.503906 C 71.773438 72.503906 72.046875 72.386719 72.257812 72.179688 L 72.777344 71.660156 L 71.492188 70.371094 C 70.484375 69.363281 70.484375 67.730469 71.492188 66.722656 C 71.976562 66.238281 72.625 65.96875 73.3125 65.96875 C 73.320312 65.96875 73.328125 65.96875 73.335938 65.96875 C 73.335938 65.960938 73.335938 65.957031 73.335938 65.945312 C 73.335938 65.257812 73.601562 64.609375 74.089844 64.125 C 74.574219 63.636719 75.222656 63.371094 75.914062 63.371094 C 75.921875 63.371094 75.925781 63.371094 75.9375 63.371094 C 75.929688 62.703125 76.179688 62.03125 76.6875 61.523438 C 77.175781 61.035156 77.824219 60.769531 78.511719 60.769531 C 78.519531 60.769531 78.527344 60.769531 78.535156 60.769531 C 78.527344 60.101562 78.78125 59.433594 79.289062 58.925781 C 79.777344 58.4375 80.421875 58.171875 81.109375 58.171875 C 81.800781 58.171875 82.445312 58.4375 82.933594 58.925781 L 84.222656 60.210938 L 88.308594 56.125 L 82.832031 50.640625 C 82.21875 51.125 81.46875 51.382812 80.679688 51.382812 Z M 80.679688 51.382812 " fill-opacity="1" fill-rule="nonzero"/></g><path fill="#ffffff" d="M 68 55.605469 C 68.085938 55.515625 68.183594 55.433594 68.28125 55.355469 C 68.773438 54.964844 69.378906 54.726562 70.007812 54.679688 C 70.089844 54.671875 70.167969 54.664062 70.25 54.664062 C 70.5 54.664062 70.742188 54.695312 70.980469 54.75 C 71.554688 54.882812 72.082031 55.171875 72.507812 55.597656 L 74.800781 57.890625 C 75.179688 58.269531 75.6875 58.480469 76.226562 58.480469 C 76.757812 58.480469 77.261719 58.273438 77.644531 57.898438 L 78.734375 56.820312 L 71.992188 50.078125 C 71.613281 49.695312 71.109375 49.488281 70.570312 49.488281 C 70.035156 49.488281 69.527344 49.699219 69.148438 50.078125 C 68.488281 50.738281 67.613281 51.101562 66.679688 51.101562 C 65.890625 51.101562 65.140625 50.839844 64.53125 50.359375 L 59.050781 55.835938 L 63.421875 60.210938 Z M 68 55.605469 " fill-opacity="1" fill-rule="nonzero"/><g clip-path="url(#da997a166c)"><path fill="#ffffff" d="M 63.988281 48.808594 L 64.492188 48.304688 L 61.625 45.4375 L 53.03125 54.027344 L 54.316406 55.316406 C 54.738281 55.738281 55.300781 55.96875 55.898438 55.96875 C 56.496094 55.96875 57.058594 55.738281 57.480469 55.316406 Z M 63.988281 48.808594 " fill-opacity="1" fill-rule="nonzero"/></g><g fill="#000000" fill-opacity="1"><g transform="translate(44.123, 91.719053)"><g><path d="M 4.109375 -6.265625 C 3.515625 -6.265625 3.050781 -6.039062 2.71875 -5.59375 C 2.394531 -5.144531 2.234375 -4.519531 2.234375 -3.71875 C 2.234375 -2.050781 2.859375 -1.21875 4.109375 -1.21875 C 4.640625 -1.21875 5.273438 -1.347656 6.015625 -1.609375 L 6.015625 -0.28125 C 5.398438 -0.0195312 4.71875 0.109375 3.96875 0.109375 C 2.882812 0.109375 2.050781 -0.21875 1.46875 -0.875 C 0.894531 -1.539062 0.609375 -2.488281 0.609375 -3.71875 C 0.609375 -4.5 0.75 -5.179688 1.03125 -5.765625 C 1.3125 -6.347656 1.71875 -6.796875 2.25 -7.109375 C 2.78125 -7.421875 3.398438 -7.578125 4.109375 -7.578125 C 4.835938 -7.578125 5.566406 -7.398438 6.296875 -7.046875 L 5.796875 -5.765625 C 5.515625 -5.898438 5.234375 -6.015625 4.953125 -6.109375 C 4.671875 -6.210938 4.390625 -6.265625 4.109375 -6.265625 Z M 4.109375 -6.265625 "/></g></g></g><g fill="#000000" fill-opacity="1"><g transform="translate(50.794414, 91.719053)"><g><path d="M 7.71875 -3.75 C 7.71875 -2.507812 7.410156 -1.554688 6.796875 -0.890625 C 6.191406 -0.222656 5.316406 0.109375 4.171875 0.109375 C 3.023438 0.109375 2.144531 -0.222656 1.53125 -0.890625 C 0.914062 -1.554688 0.609375 -2.507812 0.609375 -3.75 C 0.609375 -5 0.914062 -5.953125 1.53125 -6.609375 C 2.144531 -7.265625 3.023438 -7.59375 4.171875 -7.59375 C 5.328125 -7.59375 6.207031 -7.257812 6.8125 -6.59375 C 7.414062 -5.9375 7.71875 -4.988281 7.71875 -3.75 Z M 2.265625 -3.75 C 2.265625 -2.914062 2.421875 -2.285156 2.734375 -1.859375 C 3.054688 -1.441406 3.535156 -1.234375 4.171875 -1.234375 C 5.429688 -1.234375 6.0625 -2.070312 6.0625 -3.75 C 6.0625 -5.425781 5.429688 -6.265625 4.171875 -6.265625 C 3.546875 -6.265625 3.070312 -6.050781 2.75 -5.625 C 2.425781 -5.207031 2.265625 -4.582031 2.265625 -3.75 Z M 2.265625 -3.75 "/></g></g></g><g fill="#000000" fill-opacity="1"><g transform="translate(59.127286, 91.719053)"><g><path d="M 7.578125 0 L 5.5625 0 L 2.3125 -5.65625 L 2.265625 -5.65625 C 2.328125 -4.65625 2.359375 -3.941406 2.359375 -3.515625 L 2.359375 0 L 0.9375 0 L 0.9375 -7.46875 L 2.9375 -7.46875 L 6.1875 -1.875 L 6.21875 -1.875 C 6.164062 -2.84375 6.140625 -3.53125 6.140625 -3.9375 L 6.140625 -7.46875 L 7.578125 -7.46875 Z M 7.578125 0 "/></g></g></g><g fill="#000000" fill-opacity="1"><g transform="translate(67.639089, 91.719053)"><g><path d="M 2.5 0 L 0.9375 0 L 0.9375 -7.46875 L 5.21875 -7.46875 L 5.21875 -6.171875 L 2.5 -6.171875 L 2.5 -4.25 L 5.03125 -4.25 L 5.03125 -2.953125 L 2.5 -2.953125 Z M 2.5 0 "/></g></g></g><g fill="#000000" fill-opacity="1"><g transform="translate(73.385192, 91.719053)"><g><path d="M 0.9375 0 L 0.9375 -7.46875 L 2.53125 -7.46875 L 2.53125 0 Z M 0.9375 0 "/></g></g></g><g fill="#000000" fill-opacity="1"><g transform="translate(76.851258, 91.719053)"><g><path d="M 5.515625 0 L 4.96875 -1.78125 L 2.25 -1.78125 L 1.703125 0 L 0 0 L 2.640625 -7.5 L 4.578125 -7.5 L 7.21875 0 Z M 4.59375 -3.109375 C 4.09375 -4.722656 3.8125 -5.632812 3.75 -5.84375 C 3.6875 -6.050781 3.640625 -6.21875 3.609375 -6.34375 C 3.492188 -5.90625 3.171875 -4.828125 2.640625 -3.109375 Z M 4.59375 -3.109375 "/></g></g></g><g fill="#000000" fill-opacity="1"><g transform="translate(84.074788, 91.719053)"><g><path d="M 7.578125 0 L 5.5625 0 L 2.3125 -5.65625 L 2.265625 -5.65625 C 2.328125 -4.65625 2.359375 -3.941406 2.359375 -3.515625 L 2.359375 0 L 0.9375 0 L 0.9375 -7.46875 L 2.9375 -7.46875 L 6.1875 -1.875 L 6.21875 -1.875 C 6.164062 -2.84375 6.140625 -3.53125 6.140625 -3.9375 L 6.140625 -7.46875 L 7.578125 -7.46875 Z M 7.578125 0 "/></g></g></g><g fill="#000000" fill-opacity="1"><g transform="translate(92.586591, 91.719053)"><g><path d="M 5.8125 0 L 0.25 0 L 0.25 -1.03125 L 3.828125 -6.171875 L 0.34375 -6.171875 L 0.34375 -7.46875 L 5.71875 -7.46875 L 5.71875 -6.453125 L 2.140625 -1.3125 L 5.8125 -1.3125 Z M 5.8125 0 "/></g></g></g><g fill="#000000" fill-opacity="1"><g transform="translate(98.64965, 91.719053)"><g><path d="M 5.515625 0 L 4.96875 -1.78125 L 2.25 -1.78125 L 1.703125 0 L 0 0 L 2.640625 -7.5 L 4.578125 -7.5 L 7.21875 0 Z M 4.59375 -3.109375 C 4.09375 -4.722656 3.8125 -5.632812 3.75 -5.84375 C 3.6875 -6.050781 3.640625 -6.21875 3.609375 -6.34375 C 3.492188 -5.90625 3.171875 -4.828125 2.640625 -3.109375 Z M 4.59375 -3.109375 "/></g></g></g></svg>