<svg xmlns="http://www.w3.org/2000/svg" xmlns:xlink="http://www.w3.org/1999/xlink" width="200" zoomAndPan="magnify" viewBox="0 0 150 149.999998" height="200" preserveAspectRatio="xMidYMid meet" version="1.0"><defs><g/><clipPath id="dfe6d1ac27"><path d="M 93 29 L 111.5625 29 L 111.5625 46 L 93 46 Z M 93 29 " clip-rule="nonzero"/></clipPath><clipPath id="a5f655d0a6"><path d="M 46.3125 28.761719 L 65 28.761719 L 65 46 L 46.3125 46 Z M 46.3125 28.761719 " clip-rule="nonzero"/></clipPath><clipPath id="d1eda34474"><path d="M 33.847656 28.164062 L 116.148438 28.164062 L 116.148438 122.855469 L 33.847656 122.855469 Z M 33.847656 28.164062 " clip-rule="nonzero"/></clipPath></defs><rect x="-15" width="180" fill="#ffffff" y="-15" height="179.999997" fill-opacity="1"/><rect x="-15" width="180" fill="#ffffff" y="-15" height="179.999997" fill-opacity="1"/><g clip-path="url(#dfe6d1ac27)"><path fill="#ffffff" d="M 98.132812 29.210938 L 93.597656 33.746094 L 94.390625 34.539062 L 104.683594 44.828125 C 105.351562 45.496094 106.238281 45.867188 107.183594 45.867188 C 108.128906 45.867188 109.015625 45.496094 109.683594 44.828125 L 111.71875 42.796875 Z M 98.132812 29.210938 " fill-opacity="1" fill-rule="nonzero"/></g><path fill="#ffffff" d="M 95.730469 55.433594 L 94.90625 54.605469 L 92.042969 51.742188 C 91.714844 51.410156 91.277344 51.230469 90.8125 51.230469 C 90.347656 51.230469 89.910156 51.410156 89.585938 51.742188 C 88.90625 52.417969 88.90625 53.519531 89.585938 54.195312 L 91.621094 56.234375 L 93.277344 57.890625 L 94.550781 59.160156 C 94.878906 59.492188 95.3125 59.671875 95.777344 59.671875 C 96.242188 59.671875 96.679688 59.488281 97.007812 59.160156 C 97.683594 58.484375 97.683594 57.382812 97.007812 56.707031 Z M 95.730469 55.433594 " fill-opacity="1" fill-rule="nonzero"/><path fill="#ffffff" d="M 91.621094 59.542969 L 90.796875 58.714844 L 87.933594 55.851562 C 87.601562 55.523438 87.167969 55.34375 86.703125 55.34375 C 86.238281 55.34375 85.804688 55.523438 85.476562 55.851562 C 84.796875 56.527344 84.796875 57.628906 85.476562 58.308594 L 90.441406 63.273438 C 90.769531 63.597656 91.207031 63.78125 91.667969 63.78125 C 92.132812 63.78125 92.570312 63.601562 92.898438 63.273438 C 93.574219 62.59375 93.574219 61.492188 92.898438 60.816406 Z M 91.621094 59.542969 " fill-opacity="1" fill-rule="nonzero"/><path fill="#ffffff" d="M 88.785156 64.925781 L 83.820312 59.960938 C 83.492188 59.632812 83.054688 59.453125 82.59375 59.453125 C 82.128906 59.453125 81.691406 59.632812 81.363281 59.960938 C 81.035156 60.289062 80.855469 60.726562 80.855469 61.1875 C 80.855469 61.652344 81.035156 62.085938 81.363281 62.417969 L 86.328125 67.382812 C 86.65625 67.710938 87.09375 67.890625 87.558594 67.890625 C 88.019531 67.890625 88.457031 67.710938 88.785156 67.382812 C 89.113281 67.054688 89.292969 66.617188 89.292969 66.15625 C 89.292969 65.691406 89.113281 65.257812 88.785156 64.929688 C 88.789062 64.929688 88.789062 64.929688 88.785156 64.925781 Z M 88.785156 64.925781 " fill-opacity="1" fill-rule="nonzero"/><path fill="#ffffff" d="M 83.402344 67.761719 L 82.574219 66.9375 L 81.746094 66.109375 L 79.710938 64.070312 C 79.382812 63.746094 78.945312 63.5625 78.480469 63.5625 C 78.019531 63.5625 77.582031 63.742188 77.253906 64.070312 C 76.578125 64.746094 76.578125 65.851562 77.253906 66.527344 L 79.289062 68.5625 L 80.117188 69.394531 L 80.945312 70.21875 L 82.21875 71.492188 C 82.546875 71.820312 82.984375 72 83.449219 72 C 83.914062 72 84.347656 71.824219 84.675781 71.492188 C 85.351562 70.816406 85.351562 69.714844 84.675781 69.035156 Z M 83.402344 67.761719 " fill-opacity="1" fill-rule="nonzero"/><path fill="#ffffff" d="M 90.132812 38.164062 C 88.660156 38.164062 87.273438 37.589844 86.230469 36.546875 C 85.628906 35.949219 84.832031 35.617188 83.980469 35.617188 C 83.132812 35.617188 82.335938 35.949219 81.734375 36.550781 L 80.945312 37.335938 L 89.550781 45.941406 C 89.769531 46.160156 89.894531 46.460938 89.890625 46.773438 C 89.890625 47.082031 89.765625 47.378906 89.546875 47.601562 L 86.980469 50.132812 C 85.9375 51.160156 84.558594 51.726562 83.09375 51.726562 C 81.617188 51.726562 80.230469 51.152344 79.183594 50.105469 L 75.558594 46.484375 C 75.050781 45.972656 74.375 45.695312 73.65625 45.695312 C 73.089844 45.695312 72.535156 45.878906 72.078125 46.207031 L 62.027344 56.257812 C 61.347656 56.933594 61.347656 58.039062 62.027344 58.714844 C 62.355469 59.042969 62.789062 59.222656 63.253906 59.222656 C 63.71875 59.222656 64.15625 59.042969 64.484375 58.714844 C 64.941406 58.257812 65.679688 58.257812 66.136719 58.714844 C 66.367188 58.941406 66.480469 59.242188 66.480469 59.539062 C 66.480469 59.839844 66.367188 60.140625 66.136719 60.367188 C 65.460938 61.046875 65.460938 62.148438 66.136719 62.824219 C 66.464844 63.152344 66.902344 63.335938 67.367188 63.335938 C 67.828125 63.335938 68.265625 63.152344 68.59375 62.824219 C 69.050781 62.367188 69.792969 62.367188 70.246094 62.824219 C 70.476562 63.054688 70.589844 63.351562 70.589844 63.652344 C 70.589844 63.953125 70.476562 64.25 70.246094 64.480469 C 69.917969 64.808594 69.738281 65.246094 69.738281 65.710938 C 69.738281 66.175781 69.917969 66.609375 70.246094 66.9375 C 70.578125 67.265625 71.011719 67.445312 71.476562 67.445312 C 71.941406 67.445312 72.375 67.265625 72.703125 66.9375 C 73.160156 66.480469 73.902344 66.480469 74.359375 66.9375 C 74.585938 67.167969 74.703125 67.464844 74.703125 67.765625 C 74.703125 68.066406 74.585938 68.363281 74.359375 68.589844 C 73.683594 69.269531 73.683594 70.371094 74.359375 71.050781 C 74.6875 71.378906 75.121094 71.558594 75.585938 71.558594 C 76.050781 71.558594 76.484375 71.378906 76.816406 71.050781 L 77.640625 70.222656 L 75.601562 68.1875 C 74.011719 66.597656 74.011719 64.011719 75.601562 62.421875 C 76.371094 61.652344 77.394531 61.226562 78.484375 61.226562 C 78.496094 61.226562 78.507812 61.230469 78.519531 61.230469 C 78.519531 61.214844 78.519531 61.207031 78.519531 61.191406 C 78.519531 60.105469 78.941406 59.078125 79.710938 58.308594 C 80.480469 57.542969 81.507812 57.117188 82.59375 57.117188 C 82.609375 57.117188 82.621094 57.117188 82.632812 57.117188 C 82.625 56.0625 83.019531 55.003906 83.824219 54.199219 C 84.59375 53.429688 85.617188 53.007812 86.707031 53.007812 C 86.71875 53.007812 86.730469 53.007812 86.742188 53.007812 C 86.734375 51.953125 87.128906 50.890625 87.933594 50.089844 C 88.707031 49.320312 89.726562 48.894531 90.816406 48.894531 C 91.90625 48.894531 92.929688 49.316406 93.699219 50.089844 L 95.734375 52.125 L 102.199219 45.660156 L 93.535156 36.992188 C 92.566406 37.753906 91.382812 38.164062 90.132812 38.164062 Z M 90.132812 38.164062 " fill-opacity="1" fill-rule="nonzero"/><path fill="#ffffff" d="M 70.082031 44.839844 C 70.222656 44.699219 70.371094 44.566406 70.53125 44.445312 C 71.308594 43.828125 72.265625 43.453125 73.257812 43.375 C 73.386719 43.363281 73.515625 43.351562 73.644531 43.351562 C 74.039062 43.351562 74.421875 43.402344 74.792969 43.488281 C 75.703125 43.699219 76.535156 44.152344 77.210938 44.828125 L 80.835938 48.453125 C 81.4375 49.054688 82.238281 49.386719 83.089844 49.386719 C 83.933594 49.386719 84.730469 49.0625 85.332031 48.46875 L 87.058594 46.761719 L 78.460938 38.164062 L 77.636719 37.335938 L 76.398438 36.101562 C 75.796875 35.5 74.996094 35.167969 74.148438 35.167969 C 73.300781 35.167969 72.5 35.5 71.902344 36.101562 C 70.859375 37.140625 69.472656 37.714844 68 37.714844 C 66.75 37.714844 65.5625 37.304688 64.597656 36.546875 L 55.933594 45.207031 L 62.847656 52.121094 Z M 70.082031 44.839844 " fill-opacity="1" fill-rule="nonzero"/><g clip-path="url(#a5f655d0a6)"><path fill="#ffffff" d="M 63.742188 34.089844 L 64.535156 33.296875 L 60 28.761719 L 46.414062 42.347656 L 48.449219 44.382812 C 49.117188 45.046875 50.003906 45.417969 50.949219 45.417969 C 51.894531 45.417969 52.785156 45.050781 53.449219 44.382812 L 63.742188 34.09375 C 63.742188 34.089844 63.742188 34.089844 63.742188 34.089844 Z M 63.742188 34.089844 " fill-opacity="1" fill-rule="nonzero"/></g><g clip-path="url(#d1eda34474)"><path fill="#2e90e5" d="M 96.675781 32.875 C 88.660156 32.875 80.992188 31.207031 74.996094 28.167969 C 69.003906 31.207031 61.332031 32.875 53.320312 32.875 C 46.261719 32.875 39.464844 31.578125 33.847656 29.191406 L 33.847656 68.496094 C 33.847656 94.078125 52.273438 118.378906 74.996094 122.855469 C 97.71875 118.378906 116.148438 94.078125 116.148438 68.496094 L 116.148438 29.191406 C 110.53125 31.578125 103.734375 32.875 96.675781 32.875 " fill-opacity="1" fill-rule="nonzero"/></g><path fill="#ffffff" d="M 66.921875 91.253906 L 49.777344 74.109375 L 54.914062 68.972656 L 66.921875 80.980469 L 95.078125 52.820312 L 100.21875 57.957031 L 66.921875 91.253906 " fill-opacity="1" fill-rule="nonzero"/><path fill="#004aad" d="M 91.445312 115.777344 C 104.664062 106.691406 114.265625 90.742188 115.902344 73.640625 L 100.21875 57.957031 L 66.921875 91.253906 L 91.445312 115.777344 " fill-opacity="1" fill-rule="nonzero"/><g fill="#000000" fill-opacity="1"><g transform="translate(24.311611, 119.045451)"><g><path d="M 0 -7.296875 L 0 -4.875 C 0 -3.707031 -0.304688 -2.804688 -0.921875 -2.171875 C -1.546875 -1.535156 -2.441406 -1.21875 -3.609375 -1.21875 L -10.640625 -1.21875 C -11.804688 -1.21875 -12.695312 -1.535156 -13.3125 -2.171875 C -13.9375 -2.804688 -14.25 -3.707031 -14.25 -4.875 L -14.25 -7.296875 C -14.25 -8.441406 -13.929688 -9.332031 -13.296875 -9.96875 C -12.671875 -10.613281 -11.785156 -10.9375 -10.640625 -10.9375 L -9.59375 -10.9375 C -9.269531 -10.9375 -9.109375 -10.773438 -9.109375 -10.453125 L -9.109375 -8.59375 C -9.109375 -8.28125 -9.269531 -8.125 -9.59375 -8.125 L -10.5 -8.125 C -10.976562 -8.125 -11.316406 -8.023438 -11.515625 -7.828125 C -11.710938 -7.628906 -11.8125 -7.296875 -11.8125 -6.828125 L -11.8125 -5.3125 C -11.8125 -4.851562 -11.710938 -4.523438 -11.515625 -4.328125 C -11.316406 -4.128906 -10.976562 -4.03125 -10.5 -4.03125 L -3.75 -4.03125 C -3.269531 -4.03125 -2.929688 -4.128906 -2.734375 -4.328125 C -2.535156 -4.523438 -2.4375 -4.851562 -2.4375 -5.3125 L -2.4375 -6.828125 C -2.4375 -7.296875 -2.535156 -7.628906 -2.734375 -7.828125 C -2.929688 -8.023438 -3.269531 -8.125 -3.75 -8.125 L -4.65625 -8.125 C -4.976562 -8.125 -5.140625 -8.28125 -5.140625 -8.59375 L -5.140625 -10.453125 C -5.140625 -10.773438 -4.976562 -10.9375 -4.65625 -10.9375 L -3.609375 -10.9375 C -2.460938 -10.9375 -1.570312 -10.613281 -0.9375 -9.96875 C -0.3125 -9.332031 0 -8.441406 0 -7.296875 Z M 0 -7.296875 "/></g></g></g><g fill="#000000" fill-opacity="1"><g transform="translate(24.311611, 107.125)"><g><path d="M 0 -6.625 L 0 -4.65625 C 0 -3.488281 -0.304688 -2.585938 -0.921875 -1.953125 C -1.546875 -1.316406 -2.441406 -1 -3.609375 -1 L -7.6875 -1 C -8.851562 -1 -9.742188 -1.316406 -10.359375 -1.953125 C -10.984375 -2.585938 -11.296875 -3.488281 -11.296875 -4.65625 L -11.296875 -6.625 C -11.296875 -7.78125 -10.984375 -8.675781 -10.359375 -9.3125 C -9.734375 -9.957031 -8.84375 -10.28125 -7.6875 -10.28125 L -3.609375 -10.28125 C -2.460938 -10.28125 -1.570312 -9.957031 -0.9375 -9.3125 C -0.3125 -8.675781 0 -7.78125 0 -6.625 Z M -2.421875 -5.078125 L -2.421875 -6.203125 C -2.421875 -6.671875 -2.515625 -7.003906 -2.703125 -7.203125 C -2.890625 -7.410156 -3.222656 -7.515625 -3.703125 -7.515625 L -7.59375 -7.515625 C -8.070312 -7.515625 -8.40625 -7.410156 -8.59375 -7.203125 C -8.789062 -7.003906 -8.890625 -6.671875 -8.890625 -6.203125 L -8.890625 -5.078125 C -8.890625 -4.597656 -8.789062 -4.257812 -8.59375 -4.0625 C -8.40625 -3.875 -8.070312 -3.78125 -7.59375 -3.78125 L -3.703125 -3.78125 C -3.222656 -3.78125 -2.890625 -3.875 -2.703125 -4.0625 C -2.515625 -4.257812 -2.421875 -4.597656 -2.421875 -5.078125 Z M -2.421875 -5.078125 "/></g></g></g><g fill="#000000" fill-opacity="1"><g transform="translate(24.311611, 95.847097)"><g><path d="M 0 -3.5625 L 0 -1.6875 C 0 -1.375 -0.15625 -1.21875 -0.46875 -1.21875 L -10.828125 -1.21875 C -11.140625 -1.21875 -11.296875 -1.375 -11.296875 -1.6875 L -11.296875 -3.5625 C -11.296875 -3.875 -11.140625 -4.03125 -10.828125 -4.03125 L -10.109375 -4.03125 L -10.109375 -4.125 C -10.898438 -4.445312 -11.296875 -5.171875 -11.296875 -6.296875 L -11.296875 -7 C -11.296875 -9.320312 -10.09375 -10.484375 -7.6875 -10.484375 L -0.46875 -10.484375 C -0.15625 -10.484375 0 -10.320312 0 -10 L 0 -8.125 C 0 -7.820312 -0.15625 -7.671875 -0.46875 -7.671875 L -7.5625 -7.671875 C -8.03125 -7.671875 -8.363281 -7.566406 -8.5625 -7.359375 C -8.757812 -7.160156 -8.859375 -6.828125 -8.859375 -6.359375 L -8.859375 -5.5625 C -8.859375 -4.539062 -8.296875 -4.03125 -7.171875 -4.03125 L -0.46875 -4.03125 C -0.15625 -4.03125 0 -3.875 0 -3.5625 Z M 0 -3.5625 "/></g></g></g><g fill="#000000" fill-opacity="1"><g transform="translate(24.311611, 84.259009)"><g><path d="M -11.296875 -5.3125 L -11.296875 -7.09375 C -11.296875 -7.269531 -11.257812 -7.390625 -11.1875 -7.453125 C -11.125 -7.523438 -11.015625 -7.5625 -10.859375 -7.5625 L -9.328125 -7.5625 C -9.015625 -7.5625 -8.859375 -7.40625 -8.859375 -7.09375 L -8.859375 -5.3125 C -8.859375 -5.15625 -8.78125 -5.078125 -8.625 -5.078125 L -0.46875 -5.078125 C -0.15625 -5.078125 0 -4.914062 0 -4.59375 L 0 -2.71875 C 0 -2.414062 -0.15625 -2.265625 -0.46875 -2.265625 L -8.625 -2.265625 C -8.78125 -2.265625 -8.859375 -2.175781 -8.859375 -2 L -8.859375 -0.96875 C -8.859375 -0.664062 -9.015625 -0.515625 -9.328125 -0.515625 L -10.859375 -0.515625 C -11.035156 -0.515625 -11.148438 -0.546875 -11.203125 -0.609375 C -11.265625 -0.671875 -11.296875 -0.789062 -11.296875 -0.96875 L -11.296875 -2 C -11.296875 -2.175781 -11.378906 -2.265625 -11.546875 -2.265625 L -11.96875 -2.265625 C -13.132812 -2.265625 -14.023438 -2.566406 -14.640625 -3.171875 C -15.265625 -3.785156 -15.578125 -4.675781 -15.578125 -5.84375 L -15.578125 -7.109375 C -15.578125 -7.285156 -15.539062 -7.40625 -15.46875 -7.46875 C -15.40625 -7.53125 -15.289062 -7.5625 -15.125 -7.5625 L -13.609375 -7.5625 C -13.296875 -7.5625 -13.140625 -7.410156 -13.140625 -7.109375 L -13.140625 -6.296875 C -13.140625 -5.816406 -13.039062 -5.492188 -12.84375 -5.328125 C -12.644531 -5.160156 -12.304688 -5.078125 -11.828125 -5.078125 L -11.546875 -5.078125 C -11.378906 -5.078125 -11.296875 -5.15625 -11.296875 -5.3125 Z M -11.296875 -5.3125 "/></g></g></g><g fill="#000000" fill-opacity="1"><g transform="translate(24.311611, 76.415442)"><g><path d="M -13.203125 -1.328125 L -15.125 -1.328125 C -15.425781 -1.328125 -15.578125 -1.472656 -15.578125 -1.765625 L -15.578125 -3.703125 C -15.578125 -3.992188 -15.4375 -4.140625 -15.15625 -4.140625 L -13.203125 -4.140625 C -12.910156 -4.140625 -12.765625 -3.992188 -12.765625 -3.703125 L -12.765625 -1.765625 C -12.765625 -1.472656 -12.910156 -1.328125 -13.203125 -1.328125 Z M -0.46875 -1.328125 L -10.828125 -1.328125 C -11.140625 -1.328125 -11.296875 -1.472656 -11.296875 -1.765625 L -11.296875 -3.671875 C -11.296875 -3.984375 -11.140625 -4.140625 -10.828125 -4.140625 L -0.46875 -4.140625 C -0.269531 -4.140625 -0.140625 -4.101562 -0.078125 -4.03125 C -0.0234375 -3.96875 0 -3.859375 0 -3.703125 L 0 -1.796875 C 0 -1.484375 -0.15625 -1.328125 -0.46875 -1.328125 Z M -0.46875 -1.328125 "/></g></g></g><g fill="#000000" fill-opacity="1"><g transform="translate(24.311611, 70.942672)"><g><path d="M 0 -5.1875 L 0 -4.65625 C 0 -3.488281 -0.304688 -2.585938 -0.921875 -1.953125 C -1.546875 -1.316406 -2.441406 -1 -3.609375 -1 L -7.6875 -1 C -8.851562 -1 -9.742188 -1.316406 -10.359375 -1.953125 C -10.984375 -2.585938 -11.296875 -3.488281 -11.296875 -4.65625 L -11.296875 -9.765625 C -11.296875 -10.097656 -11.140625 -10.265625 -10.828125 -10.265625 L -0.46875 -10.265625 C -0.15625 -10.265625 0 -10.097656 0 -9.765625 L 0 -7.90625 C 0 -7.59375 -0.15625 -7.4375 -0.46875 -7.4375 L -1.203125 -7.4375 L -1.203125 -7.359375 C -0.796875 -7.191406 -0.492188 -6.898438 -0.296875 -6.484375 C -0.0976562 -6.078125 0 -5.644531 0 -5.1875 Z M -4.125 -7.4375 L -8.625 -7.4375 C -8.78125 -7.4375 -8.859375 -7.347656 -8.859375 -7.171875 L -8.859375 -5.09375 C -8.859375 -4.625 -8.757812 -4.289062 -8.5625 -4.09375 C -8.363281 -3.90625 -8.03125 -3.8125 -7.5625 -3.8125 L -3.75 -3.8125 C -3.269531 -3.8125 -2.929688 -3.90625 -2.734375 -4.09375 C -2.535156 -4.289062 -2.4375 -4.625 -2.4375 -5.09375 L -2.4375 -5.921875 C -2.4375 -6.929688 -3 -7.4375 -4.125 -7.4375 Z M -4.125 -7.4375 "/></g></g></g><g fill="#000000" fill-opacity="1"><g transform="translate(24.311611, 59.465355)"><g><path d="M 0 -3.5625 L 0 -1.6875 C 0 -1.375 -0.15625 -1.21875 -0.46875 -1.21875 L -10.828125 -1.21875 C -11.140625 -1.21875 -11.296875 -1.375 -11.296875 -1.6875 L -11.296875 -3.5625 C -11.296875 -3.875 -11.140625 -4.03125 -10.828125 -4.03125 L -10.109375 -4.03125 L -10.109375 -4.125 C -10.898438 -4.445312 -11.296875 -5.171875 -11.296875 -6.296875 L -11.296875 -7 C -11.296875 -9.320312 -10.09375 -10.484375 -7.6875 -10.484375 L -0.46875 -10.484375 C -0.15625 -10.484375 0 -10.320312 0 -10 L 0 -8.125 C 0 -7.820312 -0.15625 -7.671875 -0.46875 -7.671875 L -7.5625 -7.671875 C -8.03125 -7.671875 -8.363281 -7.566406 -8.5625 -7.359375 C -8.757812 -7.160156 -8.859375 -6.828125 -8.859375 -6.359375 L -8.859375 -5.5625 C -8.859375 -4.539062 -8.296875 -4.03125 -7.171875 -4.03125 L -0.46875 -4.03125 C -0.15625 -4.03125 0 -3.875 0 -3.5625 Z M 0 -3.5625 "/></g></g></g><g fill="#000000" fill-opacity="1"><g transform="translate(24.311611, 47.877267)"><g><path d="M -0.46875 -0.6875 L -1.203125 -0.6875 C -1.703125 -0.6875 -2.128906 -0.828125 -2.484375 -1.109375 L -8.796875 -5.8125 L -8.890625 -5.8125 L -8.890625 -1.34375 C -8.890625 -1.039062 -9.050781 -0.890625 -9.375 -0.890625 L -10.828125 -0.890625 C -11.140625 -0.890625 -11.296875 -1.039062 -11.296875 -1.34375 L -11.296875 -8.578125 C -11.296875 -8.890625 -11.140625 -9.046875 -10.828125 -9.046875 L -9.5 -9.046875 C -9.03125 -9.046875 -8.648438 -8.925781 -8.359375 -8.6875 L -2.5 -4.34375 L -2.421875 -4.34375 L -2.421875 -8.8125 C -2.421875 -9.125 -2.253906 -9.28125 -1.921875 -9.28125 L -0.46875 -9.28125 C -0.15625 -9.28125 0 -9.125 0 -8.8125 L 0 -1.15625 C 0 -0.84375 -0.15625 -0.6875 -0.46875 -0.6875 Z M -0.46875 -0.6875 "/></g></g></g><g fill="#000000" fill-opacity="1"><g transform="translate(24.311611, 37.928784)"><g><path d="M 0 -5.1875 L 0 -4.65625 C 0 -3.488281 -0.304688 -2.585938 -0.921875 -1.953125 C -1.546875 -1.316406 -2.441406 -1 -3.609375 -1 L -7.6875 -1 C -8.851562 -1 -9.742188 -1.316406 -10.359375 -1.953125 C -10.984375 -2.585938 -11.296875 -3.488281 -11.296875 -4.65625 L -11.296875 -9.765625 C -11.296875 -10.097656 -11.140625 -10.265625 -10.828125 -10.265625 L -0.46875 -10.265625 C -0.15625 -10.265625 0 -10.097656 0 -9.765625 L 0 -7.90625 C 0 -7.59375 -0.15625 -7.4375 -0.46875 -7.4375 L -1.203125 -7.4375 L -1.203125 -7.359375 C -0.796875 -7.191406 -0.492188 -6.898438 -0.296875 -6.484375 C -0.0976562 -6.078125 0 -5.644531 0 -5.1875 Z M -4.125 -7.4375 L -8.625 -7.4375 C -8.78125 -7.4375 -8.859375 -7.347656 -8.859375 -7.171875 L -8.859375 -5.09375 C -8.859375 -4.625 -8.757812 -4.289062 -8.5625 -4.09375 C -8.363281 -3.90625 -8.03125 -3.8125 -7.5625 -3.8125 L -3.75 -3.8125 C -3.269531 -3.8125 -2.929688 -3.90625 -2.734375 -4.09375 C -2.535156 -4.289062 -2.4375 -4.625 -2.4375 -5.09375 L -2.4375 -5.921875 C -2.4375 -6.929688 -3 -7.4375 -4.125 -7.4375 Z M -4.125 -7.4375 "/></g></g></g></svg>