<svg xmlns="http://www.w3.org/2000/svg" xmlns:xlink="http://www.w3.org/1999/xlink" width="200" zoomAndPan="magnify" viewBox="0 0 150 149.999998" height="200" preserveAspectRatio="xMidYMid meet" version="1.0"><defs><g/><clipPath id="23f948f1b3"><path d="M 17.085938 17.085938 L 132.585938 17.085938 L 132.585938 132.585938 L 17.085938 132.585938 Z M 17.085938 17.085938 " clip-rule="nonzero"/></clipPath><clipPath id="04378f1cdd"><path d="M 59.417969 41.738281 L 90.917969 41.738281 L 90.917969 73 L 59.417969 73 Z M 59.417969 41.738281 " clip-rule="nonzero"/></clipPath></defs><rect x="-15" width="180" fill="#ffffff" y="-15" height="179.999997" fill-opacity="1"/><rect x="-15" width="180" fill="#ffffff" y="-15" height="179.999997" fill-opacity="1"/><g clip-path="url(#23f948f1b3)"><path fill="#000000" d="M 125.175781 95.996094 L 132.152344 85.535156 C 132.542969 84.945312 132.578125 84.1875 132.246094 83.5625 C 131.910156 82.9375 131.257812 82.546875 130.550781 82.546875 L 119.023438 82.546875 L 119.023438 77.078125 C 122.675781 65.695312 124.789062 56.285156 124.789062 42.203125 C 124.789062 41.460938 124.363281 40.789062 123.695312 40.46875 L 75.664062 17.414062 C 75.140625 17.160156 74.527344 17.160156 74.003906 17.414062 L 25.972656 40.46875 C 25.304688 40.789062 24.882812 41.460938 24.882812 42.203125 C 24.882812 56.285156 26.996094 65.695312 30.648438 77.082031 L 30.648438 82.546875 L 19.121094 82.546875 C 18.410156 82.546875 17.757812 82.9375 17.425781 83.5625 C 17.089844 84.1875 17.128906 84.945312 17.519531 85.535156 L 24.496094 95.996094 L 17.519531 106.457031 C 17.128906 107.046875 17.089844 107.804688 17.425781 108.429688 C 17.757812 109.054688 18.410156 109.445312 19.121094 109.445312 L 45.027344 109.445312 C 52.746094 119.476562 62.453125 127.179688 74.054688 132.335938 C 74.304688 132.445312 74.566406 132.5 74.835938 132.5 C 75.101562 132.5 75.367188 132.445312 75.617188 132.335938 C 87.214844 127.179688 96.921875 119.476562 104.644531 109.445312 L 130.550781 109.445312 C 131.257812 109.445312 131.910156 109.054688 132.246094 108.429688 C 132.578125 107.804688 132.542969 107.046875 132.148438 106.457031 Z M 33.75 45.261719 L 74.003906 25.941406 C 74.527344 25.6875 75.140625 25.6875 75.664062 25.941406 L 115.921875 45.261719 C 116.613281 45.59375 117.039062 46.300781 117.011719 47.066406 C 116.726562 54.542969 114.9375 64.34375 111.960938 74.863281 L 107.980469 74.863281 C 110.839844 64.945312 112.683594 55.371094 113.109375 48.171875 L 74.835938 29.800781 L 36.5625 48.171875 C 36.988281 55.371094 38.828125 64.945312 41.691406 74.863281 L 37.707031 74.863281 C 34.734375 64.34375 32.941406 54.542969 32.660156 47.066406 C 32.632812 46.300781 33.058594 45.59375 33.75 45.261719 Z M 22.707031 105.601562 L 28.402344 97.0625 C 28.832031 96.417969 28.832031 95.574219 28.402344 94.929688 L 22.707031 86.390625 L 30.648438 86.390625 L 30.648438 99.839844 C 30.648438 100.898438 31.503906 101.761719 32.566406 101.761719 L 39.730469 101.761719 C 40.242188 102.601562 40.824219 103.457031 41.390625 104.3125 C 41.667969 104.738281 41.925781 105.183594 42.210938 105.601562 Z M 75.703125 122.6875 C 75.429688 122.824219 75.132812 122.894531 74.835938 122.894531 C 74.539062 122.894531 74.238281 122.824219 73.96875 122.6875 C 62.898438 117.085938 54.925781 110.402344 48.925781 101.761719 L 53.65625 101.761719 C 58.921875 108.609375 65.75 114.09375 74.835938 118.8125 C 83.921875 114.09375 90.746094 108.609375 96.015625 101.761719 L 100.742188 101.761719 C 94.742188 110.402344 86.773438 117.085938 75.703125 122.6875 Z M 99.757812 97.917969 L 34.488281 97.917969 L 34.488281 78.707031 L 115.183594 78.707031 L 115.183594 97.917969 Z M 107.460938 105.601562 C 107.742188 105.183594 108 104.738281 108.277344 104.3125 C 108.847656 103.457031 109.425781 102.601562 109.9375 101.761719 L 117.101562 101.761719 C 118.164062 101.761719 119.023438 100.898438 119.023438 99.839844 L 119.023438 86.390625 L 126.960938 86.390625 L 121.269531 94.929688 C 120.835938 95.574219 120.835938 96.417969 121.269531 97.0625 L 126.960938 105.601562 Z M 107.460938 105.601562 " fill-opacity="1" fill-rule="nonzero"/></g><g clip-path="url(#04378f1cdd)"><path fill="#ffffff" d="M 74.996094 41.738281 L 72.273438 43.609375 L 69.03125 42.925781 L 67.222656 45.695312 L 63.980469 46.304688 L 63.371094 49.542969 L 60.601562 51.355469 L 61.273438 54.597656 L 59.417969 57.320312 L 61.273438 60.058594 L 60.601562 63.285156 L 63.371094 65.09375 L 63.980469 68.335938 L 67.222656 68.957031 L 69.03125 71.710938 L 72.273438 71.042969 L 74.996094 72.898438 L 77.71875 71.042969 L 80.960938 71.710938 L 82.769531 68.957031 L 86.011719 68.335938 L 86.621094 65.09375 L 89.390625 63.285156 L 88.71875 60.058594 L 90.578125 57.320312 L 88.71875 54.597656 L 89.390625 51.355469 L 86.621094 49.542969 L 86.011719 46.304688 L 82.769531 45.695312 L 80.960938 42.925781 L 77.71875 43.609375 Z M 74.996094 46.609375 C 80.914062 46.609375 85.707031 51.402344 85.707031 57.320312 C 85.707031 63.234375 80.914062 68.03125 74.996094 68.03125 C 69.082031 68.03125 64.285156 63.234375 64.285156 57.320312 C 64.285156 51.402344 69.082031 46.609375 74.996094 46.609375 Z M 79.726562 52.421875 L 73.398438 59.175781 L 70.082031 56.222656 L 68.132812 58.398438 L 72.515625 62.292969 L 73.582031 63.238281 L 74.554688 62.203125 L 81.859375 54.414062 Z M 79.726562 52.421875 " fill-opacity="1" fill-rule="nonzero"/></g><g fill="#000000" fill-opacity="1"><g transform="translate(51.998717, 91.71906)"><g><path d="M 4.109375 -6.265625 C 3.515625 -6.265625 3.050781 -6.039062 2.71875 -5.59375 C 2.394531 -5.144531 2.234375 -4.519531 2.234375 -3.71875 C 2.234375 -2.050781 2.859375 -1.21875 4.109375 -1.21875 C 4.640625 -1.21875 5.273438 -1.347656 6.015625 -1.609375 L 6.015625 -0.28125 C 5.398438 -0.0195312 4.71875 0.109375 3.96875 0.109375 C 2.882812 0.109375 2.050781 -0.21875 1.46875 -0.875 C 0.894531 -1.539062 0.609375 -2.488281 0.609375 -3.71875 C 0.609375 -4.5 0.75 -5.179688 1.03125 -5.765625 C 1.3125 -6.347656 1.71875 -6.796875 2.25 -7.109375 C 2.78125 -7.421875 3.398438 -7.578125 4.109375 -7.578125 C 4.835938 -7.578125 5.566406 -7.398438 6.296875 -7.046875 L 5.796875 -5.765625 C 5.515625 -5.898438 5.234375 -6.015625 4.953125 -6.109375 C 4.671875 -6.210938 4.390625 -6.265625 4.109375 -6.265625 Z M 4.109375 -6.265625 "/></g></g></g><g fill="#000000" fill-opacity="1"><g transform="translate(58.670131, 91.71906)"><g><path d="M 5.515625 0 L 4.96875 -1.78125 L 2.25 -1.78125 L 1.703125 0 L 0 0 L 2.640625 -7.5 L 4.578125 -7.5 L 7.21875 0 Z M 4.59375 -3.109375 C 4.09375 -4.722656 3.8125 -5.632812 3.75 -5.84375 C 3.6875 -6.050781 3.640625 -6.21875 3.609375 -6.34375 C 3.492188 -5.90625 3.171875 -4.828125 2.640625 -3.109375 Z M 4.59375 -3.109375 "/></g></g></g><g fill="#000000" fill-opacity="1"><g transform="translate(65.893662, 91.71906)"><g><path d="M 0.9375 0 L 0.9375 -7.46875 L 2.53125 -7.46875 L 2.53125 -1.3125 L 5.5625 -1.3125 L 5.5625 0 Z M 0.9375 0 "/></g></g></g><g fill="#000000" fill-opacity="1"><g transform="translate(71.808471, 91.71906)"><g><path d="M 0.9375 0 L 0.9375 -7.46875 L 2.53125 -7.46875 L 2.53125 0 Z M 0.9375 0 "/></g></g></g><g fill="#000000" fill-opacity="1"><g transform="translate(75.274537, 91.71906)"><g><path d="M 7.140625 -3.8125 C 7.140625 -2.582031 6.789062 -1.640625 6.09375 -0.984375 C 5.394531 -0.328125 4.382812 0 3.0625 0 L 0.9375 0 L 0.9375 -7.46875 L 3.28125 -7.46875 C 4.5 -7.46875 5.445312 -7.144531 6.125 -6.5 C 6.800781 -5.863281 7.140625 -4.96875 7.140625 -3.8125 Z M 5.5 -3.765625 C 5.5 -5.367188 4.789062 -6.171875 3.375 -6.171875 L 2.53125 -6.171875 L 2.53125 -1.3125 L 3.203125 -1.3125 C 4.734375 -1.3125 5.5 -2.128906 5.5 -3.765625 Z M 5.5 -3.765625 "/></g></g></g><g fill="#000000" fill-opacity="1"><g transform="translate(83.024619, 91.71906)"><g><path d="M 5.515625 0 L 4.96875 -1.78125 L 2.25 -1.78125 L 1.703125 0 L 0 0 L 2.640625 -7.5 L 4.578125 -7.5 L 7.21875 0 Z M 4.59375 -3.109375 C 4.09375 -4.722656 3.8125 -5.632812 3.75 -5.84375 C 3.6875 -6.050781 3.640625 -6.21875 3.609375 -6.34375 C 3.492188 -5.90625 3.171875 -4.828125 2.640625 -3.109375 Z M 4.59375 -3.109375 "/></g></g></g><g fill="#000000" fill-opacity="1"><g transform="translate(90.24815, 91.71906)"><g><path d="M 7.140625 -3.8125 C 7.140625 -2.582031 6.789062 -1.640625 6.09375 -0.984375 C 5.394531 -0.328125 4.382812 0 3.0625 0 L 0.9375 0 L 0.9375 -7.46875 L 3.28125 -7.46875 C 4.5 -7.46875 5.445312 -7.144531 6.125 -6.5 C 6.800781 -5.863281 7.140625 -4.96875 7.140625 -3.8125 Z M 5.5 -3.765625 C 5.5 -5.367188 4.789062 -6.171875 3.375 -6.171875 L 2.53125 -6.171875 L 2.53125 -1.3125 L 3.203125 -1.3125 C 4.734375 -1.3125 5.5 -2.128906 5.5 -3.765625 Z M 5.5 -3.765625 "/></g></g></g></svg>