<svg xmlns="http://www.w3.org/2000/svg" xmlns:xlink="http://www.w3.org/1999/xlink" width="200" zoomAndPan="magnify" viewBox="0 0 150 149.999998" height="200" preserveAspectRatio="xMidYMid meet" version="1.0"><defs><g/><clipPath id="c5b8a8028e"><path d="M 31.1875 28.746094 L 60 28.746094 L 60 51 L 31.1875 51 Z M 31.1875 28.746094 " clip-rule="nonzero"/></clipPath><clipPath id="9a1348c271"><path d="M 90 28.746094 L 118.9375 28.746094 L 118.9375 51 L 90 51 Z M 90 28.746094 " clip-rule="nonzero"/></clipPath><clipPath id="f5174c1469"><path d="M 57 28.746094 L 93 28.746094 L 93 51 L 57 51 Z M 57 28.746094 " clip-rule="nonzero"/></clipPath><clipPath id="b754c63efc"><path d="M 85 57 L 118.9375 57 L 118.9375 111 L 85 111 Z M 85 57 " clip-rule="nonzero"/></clipPath><clipPath id="5d64c8e1a5"><path d="M 56 57 L 94 57 L 94 120.996094 L 56 120.996094 Z M 56 57 " clip-rule="nonzero"/></clipPath><clipPath id="7f93f4fcad"><path d="M 31.1875 57 L 65 57 L 65 111 L 31.1875 111 Z M 31.1875 57 " clip-rule="nonzero"/></clipPath><clipPath id="0b61313146"><path d="M 27.699219 24.40625 L 57.699219 24.40625 L 57.699219 54.40625 L 27.699219 54.40625 Z M 27.699219 24.40625 " clip-rule="nonzero"/></clipPath></defs><rect x="-15" width="180" fill="#ffffff" y="-15" height="179.999997" fill-opacity="1"/><rect x="-15" width="180" fill="#ffffff" y="-15" height="179.999997" fill-opacity="1"/><g clip-path="url(#c5b8a8028e)"><path fill="#2e90e5" d="M 59.207031 28.910156 L 43.933594 28.910156 L 31.226562 50.859375 L 49.648438 50.859375 Z M 59.207031 28.910156 " fill-opacity="1" fill-rule="nonzero"/></g><g clip-path="url(#9a1348c271)"><path fill="#2e90e5" d="M 118.863281 50.859375 L 106.15625 28.910156 L 90.882812 28.910156 L 100.441406 50.859375 Z M 118.863281 50.859375 " fill-opacity="1" fill-rule="nonzero"/></g><g clip-path="url(#f5174c1469)"><path fill="#2e90e5" d="M 92.789062 50.859375 L 83.226562 28.910156 L 66.863281 28.910156 L 57.300781 50.859375 Z M 92.789062 50.859375 " fill-opacity="1" fill-rule="nonzero"/></g><g clip-path="url(#b754c63efc)"><path fill="#2e90e5" d="M 85.421875 110.554688 L 118.59375 57.875 L 100.773438 57.875 Z M 85.421875 110.554688 " fill-opacity="1" fill-rule="nonzero"/></g><g clip-path="url(#5d64c8e1a5)"><path fill="#2e90e5" d="M 56.625 57.875 L 75.046875 121.078125 L 93.464844 57.875 Z M 56.625 57.875 " fill-opacity="1" fill-rule="nonzero"/></g><g clip-path="url(#7f93f4fcad)"><path fill="#2e90e5" d="M 31.496094 57.875 L 64.667969 110.554688 L 49.316406 57.875 Z M 31.496094 57.875 " fill-opacity="1" fill-rule="nonzero"/></g><g clip-path="url(#0b61313146)"><path fill="#004aad" d="M 27.699219 39.386719 L 32.980469 37.804688 C 33.941406 37.515625 34.851562 37.113281 35.710938 36.601562 C 36.570312 36.085938 37.355469 35.476562 38.0625 34.769531 C 38.773438 34.058594 39.382812 33.273438 39.898438 32.414062 C 40.410156 31.554688 40.8125 30.644531 41.097656 29.6875 L 42.683594 24.40625 L 44.265625 29.6875 C 44.554688 30.648438 44.957031 31.558594 45.46875 32.417969 C 45.984375 33.277344 46.59375 34.0625 47.300781 34.769531 C 48.011719 35.476562 48.792969 36.089844 49.652344 36.601562 C 50.515625 37.117188 51.421875 37.515625 52.382812 37.804688 L 57.664062 39.386719 L 52.382812 40.972656 C 51.425781 41.261719 50.515625 41.660156 49.65625 42.175781 C 48.796875 42.6875 48.011719 43.296875 47.304688 44.007812 C 46.59375 44.714844 45.984375 45.5 45.46875 46.359375 C 44.957031 47.21875 44.554688 48.128906 44.269531 49.089844 L 42.683594 54.371094 L 41.097656 49.089844 C 40.808594 48.128906 40.410156 47.21875 39.894531 46.359375 C 39.382812 45.5 38.773438 44.714844 38.0625 44.007812 C 37.355469 43.300781 36.570312 42.6875 35.710938 42.175781 C 34.851562 41.660156 33.941406 41.261719 32.980469 40.972656 Z M 27.699219 39.386719 " fill-opacity="1" fill-rule="nonzero"/></g><g fill="#000000" fill-opacity="1"><g transform="translate(141.288874, 117.121871)"><g><path d="M 0 -8.890625 L 0 -5.9375 C 0 -4.519531 -0.375 -3.421875 -1.125 -2.640625 C -1.882812 -1.867188 -2.976562 -1.484375 -4.40625 -1.484375 L -12.953125 -1.484375 C -14.378906 -1.484375 -15.46875 -1.867188 -16.21875 -2.640625 C -16.976562 -3.421875 -17.359375 -4.519531 -17.359375 -5.9375 L -17.359375 -8.890625 C -17.359375 -10.285156 -16.972656 -11.375 -16.203125 -12.15625 C -15.441406 -12.945312 -14.359375 -13.34375 -12.953125 -13.34375 L -11.6875 -13.34375 C -11.289062 -13.34375 -11.09375 -13.144531 -11.09375 -12.75 L -11.09375 -10.46875 C -11.09375 -10.09375 -11.289062 -9.90625 -11.6875 -9.90625 L -12.796875 -9.90625 C -13.367188 -9.90625 -13.773438 -9.785156 -14.015625 -9.546875 C -14.265625 -9.304688 -14.390625 -8.894531 -14.390625 -8.3125 L -14.390625 -6.484375 C -14.390625 -5.921875 -14.265625 -5.515625 -14.015625 -5.265625 C -13.773438 -5.023438 -13.367188 -4.90625 -12.796875 -4.90625 L -4.5625 -4.90625 C -3.988281 -4.90625 -3.578125 -5.023438 -3.328125 -5.265625 C -3.085938 -5.515625 -2.96875 -5.921875 -2.96875 -6.484375 L -2.96875 -8.3125 C -2.96875 -8.894531 -3.085938 -9.304688 -3.328125 -9.546875 C -3.578125 -9.785156 -3.988281 -9.90625 -4.5625 -9.90625 L -5.671875 -9.90625 C -6.066406 -9.90625 -6.265625 -10.09375 -6.265625 -10.46875 L -6.265625 -12.75 C -6.265625 -13.144531 -6.066406 -13.34375 -5.671875 -13.34375 L -4.40625 -13.34375 C -3 -13.34375 -1.910156 -12.945312 -1.140625 -12.15625 C -0.378906 -11.375 0 -10.285156 0 -8.890625 Z M 0 -8.890625 "/></g></g></g><g fill="#000000" fill-opacity="1"><g transform="translate(141.288874, 102.595864)"><g><path d="M 0 -6.3125 L 0 -5.671875 C 0 -4.242188 -0.375 -3.144531 -1.125 -2.375 C -1.882812 -1.601562 -2.976562 -1.21875 -4.40625 -1.21875 L -9.375 -1.21875 C -10.789062 -1.21875 -11.875 -1.601562 -12.625 -2.375 C -13.382812 -3.144531 -13.765625 -4.242188 -13.765625 -5.671875 L -13.765625 -11.90625 C -13.765625 -12.300781 -13.578125 -12.5 -13.203125 -12.5 L -0.5625 -12.5 C -0.1875 -12.5 0 -12.300781 0 -11.90625 L 0 -9.640625 C 0 -9.265625 -0.1875 -9.078125 -0.5625 -9.078125 L -1.453125 -9.078125 L -1.453125 -8.96875 C -0.972656 -8.769531 -0.609375 -8.414062 -0.359375 -7.90625 C -0.117188 -7.40625 0 -6.875 0 -6.3125 Z M -5.015625 -9.078125 L -10.5 -9.078125 C -10.695312 -9.078125 -10.796875 -8.96875 -10.796875 -8.75 L -10.796875 -6.203125 C -10.796875 -5.628906 -10.675781 -5.222656 -10.4375 -4.984375 C -10.195312 -4.753906 -9.785156 -4.640625 -9.203125 -4.640625 L -4.5625 -4.640625 C -3.988281 -4.640625 -3.578125 -4.753906 -3.328125 -4.984375 C -3.085938 -5.222656 -2.96875 -5.628906 -2.96875 -6.203125 L -2.96875 -7.203125 C -2.96875 -8.453125 -3.648438 -9.078125 -5.015625 -9.078125 Z M -5.015625 -9.078125 "/></g></g></g><g fill="#000000" fill-opacity="1"><g transform="translate(141.288874, 88.609857)"><g><path d="M 0 -4.484375 L 0 -2.1875 C 0 -1.8125 -0.1875 -1.625 -0.5625 -1.625 L -18.40625 -1.625 C -18.789062 -1.625 -18.984375 -1.8125 -18.984375 -2.1875 L -18.984375 -4.484375 C -18.984375 -4.859375 -18.789062 -5.046875 -18.40625 -5.046875 L -0.5625 -5.046875 C -0.1875 -5.046875 0 -4.859375 0 -4.484375 Z M 0 -4.484375 "/></g></g></g><g fill="#000000" fill-opacity="1"><g transform="translate(141.288874, 81.940859)"><g><path d="M -16.09375 -1.625 L -18.4375 -1.625 C -18.800781 -1.625 -18.984375 -1.800781 -18.984375 -2.15625 L -18.984375 -4.515625 C -18.984375 -4.867188 -18.8125 -5.046875 -18.46875 -5.046875 L -16.09375 -5.046875 C -15.726562 -5.046875 -15.546875 -4.867188 -15.546875 -4.515625 L -15.546875 -2.15625 C -15.546875 -1.800781 -15.726562 -1.625 -16.09375 -1.625 Z M -0.5625 -1.625 L -13.203125 -1.625 C -13.578125 -1.625 -13.765625 -1.800781 -13.765625 -2.15625 L -13.765625 -4.484375 C -13.765625 -4.859375 -13.578125 -5.046875 -13.203125 -5.046875 L -0.5625 -5.046875 C -0.332031 -5.046875 -0.179688 -5.003906 -0.109375 -4.921875 C -0.0351562 -4.847656 0 -4.710938 0 -4.515625 L 0 -2.1875 C 0 -1.8125 -0.1875 -1.625 -0.5625 -1.625 Z M -0.5625 -1.625 "/></g></g></g><g fill="#000000" fill-opacity="1"><g transform="translate(141.288874, 75.271861)"><g><path d="M 0 -6.53125 L 0 -5.421875 C 0 -4.035156 -0.375 -2.988281 -1.125 -2.28125 C -1.882812 -1.570312 -2.976562 -1.21875 -4.40625 -1.21875 L -9.375 -1.21875 C -10.789062 -1.21875 -11.875 -1.570312 -12.625 -2.28125 C -13.382812 -2.988281 -13.765625 -4.035156 -13.765625 -5.421875 L -13.765625 -6.53125 C -13.765625 -7.09375 -13.644531 -7.625 -13.40625 -8.125 C -13.164062 -8.632812 -12.800781 -8.988281 -12.3125 -9.1875 L -12.3125 -9.28125 L -18.40625 -9.28125 C -18.789062 -9.28125 -18.984375 -9.472656 -18.984375 -9.859375 L -18.984375 -12.15625 C -18.984375 -12.53125 -18.789062 -12.71875 -18.40625 -12.71875 L -0.5625 -12.71875 C -0.1875 -12.71875 0 -12.53125 0 -12.15625 L 0 -9.859375 C 0 -9.472656 -0.1875 -9.28125 -0.5625 -9.28125 L -1.453125 -9.28125 L -1.453125 -9.1875 C -0.972656 -8.988281 -0.609375 -8.632812 -0.359375 -8.125 C -0.117188 -7.625 0 -7.09375 0 -6.53125 Z M -5.015625 -9.28125 L -8.75 -9.28125 C -10.113281 -9.28125 -10.796875 -8.660156 -10.796875 -7.421875 L -10.796875 -6.203125 C -10.796875 -5.628906 -10.675781 -5.222656 -10.4375 -4.984375 C -10.195312 -4.753906 -9.785156 -4.640625 -9.203125 -4.640625 L -4.5625 -4.640625 C -3.988281 -4.640625 -3.578125 -4.753906 -3.328125 -4.984375 C -3.085938 -5.222656 -2.96875 -5.628906 -2.96875 -6.203125 L -2.96875 -7.421875 C -2.96875 -8.660156 -3.648438 -9.28125 -5.015625 -9.28125 Z M -5.015625 -9.28125 "/></g></g></g><g fill="#000000" fill-opacity="1"><g transform="translate(141.288874, 61.069858)"><g><path d="M 0 -6.3125 L 0 -5.671875 C 0 -4.242188 -0.375 -3.144531 -1.125 -2.375 C -1.882812 -1.601562 -2.976562 -1.21875 -4.40625 -1.21875 L -9.375 -1.21875 C -10.789062 -1.21875 -11.875 -1.601562 -12.625 -2.375 C -13.382812 -3.144531 -13.765625 -4.242188 -13.765625 -5.671875 L -13.765625 -11.90625 C -13.765625 -12.300781 -13.578125 -12.5 -13.203125 -12.5 L -0.5625 -12.5 C -0.1875 -12.5 0 -12.300781 0 -11.90625 L 0 -9.640625 C 0 -9.265625 -0.1875 -9.078125 -0.5625 -9.078125 L -1.453125 -9.078125 L -1.453125 -8.96875 C -0.972656 -8.769531 -0.609375 -8.414062 -0.359375 -7.90625 C -0.117188 -7.40625 0 -6.875 0 -6.3125 Z M -5.015625 -9.078125 L -10.5 -9.078125 C -10.695312 -9.078125 -10.796875 -8.96875 -10.796875 -8.75 L -10.796875 -6.203125 C -10.796875 -5.628906 -10.675781 -5.222656 -10.4375 -4.984375 C -10.195312 -4.753906 -9.785156 -4.640625 -9.203125 -4.640625 L -4.5625 -4.640625 C -3.988281 -4.640625 -3.578125 -4.753906 -3.328125 -4.984375 C -3.085938 -5.222656 -2.96875 -5.628906 -2.96875 -6.203125 L -2.96875 -7.203125 C -2.96875 -8.453125 -3.648438 -9.078125 -5.015625 -9.078125 Z M -5.015625 -9.078125 "/></g></g></g><g fill="#000000" fill-opacity="1"><g transform="translate(141.288874, 47.083851)"><g><path d="M 0 -6.53125 L 0 -5.421875 C 0 -4.035156 -0.375 -2.988281 -1.125 -2.28125 C -1.882812 -1.570312 -2.976562 -1.21875 -4.40625 -1.21875 L -9.375 -1.21875 C -10.789062 -1.21875 -11.875 -1.570312 -12.625 -2.28125 C -13.382812 -2.988281 -13.765625 -4.035156 -13.765625 -5.421875 L -13.765625 -6.53125 C -13.765625 -7.09375 -13.644531 -7.625 -13.40625 -8.125 C -13.164062 -8.632812 -12.800781 -8.988281 -12.3125 -9.1875 L -12.3125 -9.28125 L -18.40625 -9.28125 C -18.789062 -9.28125 -18.984375 -9.472656 -18.984375 -9.859375 L -18.984375 -12.15625 C -18.984375 -12.53125 -18.789062 -12.71875 -18.40625 -12.71875 L -0.5625 -12.71875 C -0.1875 -12.71875 0 -12.53125 0 -12.15625 L 0 -9.859375 C 0 -9.472656 -0.1875 -9.28125 -0.5625 -9.28125 L -1.453125 -9.28125 L -1.453125 -9.1875 C -0.972656 -8.988281 -0.609375 -8.632812 -0.359375 -8.125 C -0.117188 -7.625 0 -7.09375 0 -6.53125 Z M -5.015625 -9.28125 L -8.75 -9.28125 C -10.113281 -9.28125 -10.796875 -8.660156 -10.796875 -7.421875 L -10.796875 -6.203125 C -10.796875 -5.628906 -10.675781 -5.222656 -10.4375 -4.984375 C -10.195312 -4.753906 -9.785156 -4.640625 -9.203125 -4.640625 L -4.5625 -4.640625 C -3.988281 -4.640625 -3.578125 -4.753906 -3.328125 -4.984375 C -3.085938 -5.222656 -2.96875 -5.628906 -2.96875 -6.203125 L -2.96875 -7.421875 C -2.96875 -8.660156 -3.648438 -9.28125 -5.015625 -9.28125 Z M -5.015625 -9.28125 "/></g></g></g></svg>