<svg xmlns="http://www.w3.org/2000/svg" xmlns:xlink="http://www.w3.org/1999/xlink" width="200" zoomAndPan="magnify" viewBox="0 0 150 149.999998" height="200" preserveAspectRatio="xMidYMid meet" version="1.0"><defs><g/><clipPath id="0ac7c911de"><path d="M 32.289062 53.496094 L 111 53.496094 L 111 128.496094 L 32.289062 128.496094 Z M 32.289062 53.496094 " clip-rule="nonzero"/></clipPath><clipPath id="c76fc474c5"><path d="M 90 14.25 L 96 14.25 L 96 25 L 90 25 Z M 90 14.25 " clip-rule="nonzero"/></clipPath></defs><rect x="-15" width="180" fill="#ffffff" y="-15" height="179.999997" fill-opacity="1"/><rect x="-15" width="180" fill="#ffffff" y="-15" height="179.999997" fill-opacity="1"/><g clip-path="url(#0ac7c911de)"><path fill="#2e90e5" d="M 73.582031 53.628906 L 73.582031 61.066406 L 88.460938 77.066406 L 88.460938 90.828125 L 95.792969 90.828125 L 95.792969 77.53125 L 110.78125 61.066406 L 110.78125 53.628906 Z M 66.140625 53.890625 C 52.539062 55.589844 41.792969 66.441406 40.296875 80.101562 L 33.25 91.15625 C 33.117188 91.359375 33.097656 91.589844 33.015625 91.808594 C 32.390625 93.476562 33.082031 95.394531 34.796875 96.117188 L 40.101562 98.347656 L 40.101562 109.425781 C 40.101562 113.539062 43.429688 116.867188 47.539062 116.867188 L 54.980469 116.867188 L 54.980469 128.027344 L 88.460938 128.027344 L 88.460938 117.761719 C 88.460938 107.515625 92.109375 103.828125 95.238281 99.066406 L 95.898438 98.449219 L 94.984375 98.449219 L 94.910156 98.265625 L 81.019531 98.265625 L 81.019531 79.996094 L 66.140625 63.988281 Z M 83.738281 61.066406 L 100.722656 61.066406 L 92.316406 70.292969 Z M 83.738281 61.066406 " fill-opacity="1" fill-rule="nonzero"/></g><path fill="#004aad" d="M 102.871094 68.738281 L 102.871094 73.953125 C 102.871094 75.105469 101.941406 76.035156 100.789062 76.035156 L 85.238281 76.035156 C 84.085938 76.035156 83.15625 75.105469 83.15625 73.953125 L 83.15625 68.738281 C 75.484375 64.726562 70.550781 56.203125 71.921875 46.675781 C 73.28125 37.25 81.113281 29.703125 90.582031 28.65625 C 103.445312 27.230469 114.335938 37.265625 114.335938 49.84375 C 114.335938 58.058594 109.679688 65.179688 102.871094 68.738281 Z M 102.871094 68.738281 " fill-opacity="1" fill-rule="nonzero"/><path fill="#004aad" d="M 100.800781 84.386719 L 85.230469 84.386719 C 82.464844 84.386719 82.464844 80.210938 85.230469 80.210938 L 100.800781 80.210938 C 103.5625 80.210938 103.5625 84.386719 100.800781 84.386719 Z M 100.800781 84.386719 " fill-opacity="1" fill-rule="nonzero"/><path fill="#004aad" d="M 97.398438 92.738281 L 88.628906 92.738281 C 85.867188 92.738281 85.867188 88.5625 88.628906 88.5625 L 97.398438 88.5625 C 100.160156 88.5625 100.160156 92.738281 97.398438 92.738281 Z M 97.398438 92.738281 " fill-opacity="1" fill-rule="nonzero"/><g clip-path="url(#c76fc474c5)"><path fill="#004aad" d="M 90.925781 22.273438 L 90.925781 16.878906 C 90.925781 14.113281 95.101562 14.113281 95.101562 16.878906 L 95.101562 22.273438 C 95.101562 25.035156 90.925781 25.035156 90.925781 22.273438 Z M 90.925781 22.273438 " fill-opacity="1" fill-rule="nonzero"/></g><path fill="#004aad" d="M 72.125 31.753906 L 68.3125 27.941406 C 66.355469 25.988281 69.308594 23.039062 71.261719 24.988281 L 75.074219 28.800781 C 77.027344 30.753906 74.0625 33.691406 72.125 31.753906 Z M 72.125 31.753906 " fill-opacity="1" fill-rule="nonzero"/><path fill="#004aad" d="M 65.453125 51.933594 L 60.0625 51.933594 C 57.296875 51.933594 57.296875 47.757812 60.0625 47.757812 L 65.453125 47.757812 C 68.214844 47.757812 68.214844 51.933594 65.453125 51.933594 Z M 65.453125 51.933594 " fill-opacity="1" fill-rule="nonzero"/><path fill="#004aad" d="M 68.246094 71.65625 L 72.058594 67.84375 C 74.015625 65.890625 76.964844 68.84375 75.015625 70.796875 L 71.199219 74.609375 C 69.261719 76.546875 66.277344 73.632812 68.246094 71.65625 Z M 68.246094 71.65625 " fill-opacity="1" fill-rule="nonzero"/><path fill="#004aad" d="M 111.03125 28.875 L 114.84375 25.0625 C 116.796875 23.105469 119.75 26.058594 117.796875 28.015625 L 113.984375 31.828125 C 112.042969 33.765625 109.058594 30.84375 111.03125 28.875 Z M 111.03125 28.875 " fill-opacity="1" fill-rule="nonzero"/><path fill="#004aad" d="M 125.976562 51.933594 L 120.582031 51.933594 C 117.820312 51.933594 117.820312 47.757812 120.582031 47.757812 L 125.976562 47.757812 C 128.734375 47.757812 128.734375 51.933594 125.976562 51.933594 Z M 125.976562 51.933594 " fill-opacity="1" fill-rule="nonzero"/><path fill="#004aad" d="M 114.875 74.65625 L 111.0625 70.84375 C 109.109375 68.886719 112.0625 65.9375 114.015625 67.890625 L 117.828125 71.703125 C 119.777344 73.660156 116.8125 76.59375 114.875 74.65625 Z M 114.875 74.65625 " fill-opacity="1" fill-rule="nonzero"/><g fill="#000000" fill-opacity="1"><g transform="translate(24.397535, 129.558972)"><g><path d="M 0 -10.125 L 0 -2.109375 C 0 -1.765625 -0.171875 -1.59375 -0.515625 -1.59375 L -15.265625 -1.59375 C -15.609375 -1.59375 -15.78125 -1.765625 -15.78125 -2.109375 L -15.78125 -10.125 C -15.78125 -10.457031 -15.609375 -10.625 -15.265625 -10.625 L -13.59375 -10.625 C -13.25 -10.625 -13.078125 -10.457031 -13.078125 -10.125 L -13.078125 -5 C -13.078125 -4.800781 -12.988281 -4.703125 -12.8125 -4.703125 L -9.609375 -4.703125 C -9.429688 -4.703125 -9.34375 -4.800781 -9.34375 -5 L -9.34375 -9.203125 C -9.34375 -9.546875 -9.171875 -9.71875 -8.828125 -9.71875 L -7.15625 -9.71875 C -6.8125 -9.71875 -6.640625 -9.546875 -6.640625 -9.203125 L -6.640625 -5 C -6.640625 -4.800781 -6.550781 -4.703125 -6.375 -4.703125 L -2.96875 -4.703125 C -2.789062 -4.703125 -2.703125 -4.800781 -2.703125 -5 L -2.703125 -10.125 C -2.703125 -10.457031 -2.53125 -10.625 -2.1875 -10.625 L -0.515625 -10.625 C -0.171875 -10.625 0 -10.457031 0 -10.125 Z M 0 -10.125 "/></g></g></g><g fill="#000000" fill-opacity="1"><g transform="translate(24.397535, 117.811528)"><g><path d="M 0 -3.359375 L 0 -0.890625 C 0 -0.460938 -0.171875 -0.347656 -0.515625 -0.546875 L -6.375 -3.625 L -12 -0.546875 C -12.34375 -0.378906 -12.515625 -0.472656 -12.515625 -0.828125 L -12.515625 -3.34375 C -12.515625 -3.726562 -12.34375 -3.976562 -12 -4.09375 L -8.265625 -5.640625 L -8.265625 -5.734375 L -12 -7.09375 C -12.34375 -7.207031 -12.515625 -7.457031 -12.515625 -7.84375 L -12.515625 -10.296875 C -12.515625 -10.722656 -12.34375 -10.832031 -12 -10.625 L -6.375 -7.671875 L -0.515625 -10.84375 C -0.367188 -10.925781 -0.242188 -10.9375 -0.140625 -10.875 C -0.046875 -10.820312 0 -10.710938 0 -10.546875 L 0 -8.015625 C 0 -7.671875 -0.171875 -7.425781 -0.515625 -7.28125 L -4.265625 -5.734375 L -4.265625 -5.640625 L -0.515625 -4.09375 C -0.171875 -3.976562 0 -3.734375 0 -3.359375 Z M 0 -3.359375 "/></g></g></g><g fill="#000000" fill-opacity="1"><g transform="translate(24.397535, 106.481007)"><g><path d="M 3.34375 -3.953125 L 3.34375 -1.859375 C 3.34375 -1.515625 3.175781 -1.34375 2.84375 -1.34375 L -12 -1.34375 C -12.34375 -1.34375 -12.515625 -1.515625 -12.515625 -1.859375 L -12.515625 -3.953125 C -12.515625 -4.296875 -12.34375 -4.46875 -12 -4.46875 L -11.1875 -4.46875 L -11.1875 -4.5625 C -11.625 -4.738281 -11.953125 -5.054688 -12.171875 -5.515625 C -12.398438 -5.972656 -12.515625 -6.457031 -12.515625 -6.96875 L -12.515625 -7.96875 C -12.515625 -9.226562 -12.171875 -10.179688 -11.484375 -10.828125 C -10.796875 -11.472656 -9.804688 -11.796875 -8.515625 -11.796875 L -4 -11.796875 C -2.707031 -11.796875 -1.71875 -11.472656 -1.03125 -10.828125 C -0.34375 -10.179688 0 -9.226562 0 -7.96875 L 0 -6.96875 C 0 -6.457031 -0.109375 -5.972656 -0.328125 -5.515625 C -0.546875 -5.054688 -0.878906 -4.738281 -1.328125 -4.5625 L -1.328125 -4.46875 L 2.84375 -4.46875 C 3.175781 -4.46875 3.34375 -4.296875 3.34375 -3.953125 Z M -2.703125 -6.15625 L -2.703125 -7.234375 C -2.703125 -7.753906 -2.8125 -8.125 -3.03125 -8.34375 C -3.25 -8.570312 -3.617188 -8.6875 -4.140625 -8.6875 L -8.359375 -8.6875 C -8.890625 -8.6875 -9.265625 -8.570312 -9.484375 -8.34375 C -9.703125 -8.125 -9.8125 -7.753906 -9.8125 -7.234375 L -9.8125 -6.15625 C -9.8125 -5.03125 -9.191406 -4.46875 -7.953125 -4.46875 L -4.5625 -4.46875 C -3.320312 -4.46875 -2.703125 -5.03125 -2.703125 -6.15625 Z M -2.703125 -6.15625 "/></g></g></g><g fill="#000000" fill-opacity="1"><g transform="translate(24.397535, 93.580891)"><g><path d="M 0 -10.578125 L 0 -5.15625 C 0 -3.863281 -0.34375 -2.863281 -1.03125 -2.15625 C -1.71875 -1.457031 -2.707031 -1.109375 -4 -1.109375 L -8.515625 -1.109375 C -9.804688 -1.109375 -10.796875 -1.457031 -11.484375 -2.15625 C -12.171875 -2.863281 -12.515625 -3.863281 -12.515625 -5.15625 L -12.515625 -7.09375 C -12.515625 -8.382812 -12.171875 -9.378906 -11.484375 -10.078125 C -10.796875 -10.785156 -9.804688 -11.140625 -8.515625 -11.140625 L -5.390625 -11.140625 C -5.046875 -11.140625 -4.875 -10.96875 -4.875 -10.625 L -4.875 -4.46875 C -4.875 -4.269531 -4.785156 -4.171875 -4.609375 -4.171875 L -4.078125 -4.171875 C -3.566406 -4.171875 -3.203125 -4.28125 -2.984375 -4.5 C -2.765625 -4.71875 -2.65625 -5.09375 -2.65625 -5.625 L -2.65625 -10.578125 C -2.65625 -10.921875 -2.472656 -11.09375 -2.109375 -11.09375 L -0.484375 -11.09375 C -0.304688 -11.09375 -0.179688 -11.054688 -0.109375 -10.984375 C -0.0351562 -10.910156 0 -10.773438 0 -10.578125 Z M -6.96875 -4.46875 L -6.96875 -7.796875 C -6.96875 -7.984375 -7.054688 -8.078125 -7.234375 -8.078125 L -8.421875 -8.078125 C -8.941406 -8.078125 -9.304688 -7.96875 -9.515625 -7.75 C -9.734375 -7.539062 -9.84375 -7.171875 -9.84375 -6.640625 L -9.84375 -5.625 C -9.84375 -5.09375 -9.734375 -4.71875 -9.515625 -4.5 C -9.304688 -4.289062 -8.941406 -4.1875 -8.421875 -4.1875 L -7.234375 -4.1875 C -7.054688 -4.1875 -6.96875 -4.28125 -6.96875 -4.46875 Z M -6.96875 -4.46875 "/></g></g></g><g fill="#000000" fill-opacity="1"><g transform="translate(24.397535, 81.465581)"><g><path d="M 0 -3.953125 L 0 -1.859375 C 0 -1.515625 -0.171875 -1.34375 -0.515625 -1.34375 L -12 -1.34375 C -12.34375 -1.34375 -12.515625 -1.515625 -12.515625 -1.859375 L -12.515625 -3.953125 C -12.515625 -4.296875 -12.34375 -4.46875 -12 -4.46875 L -11.15625 -4.46875 L -11.15625 -4.5625 C -11.601562 -4.738281 -11.941406 -5.054688 -12.171875 -5.515625 C -12.398438 -5.972656 -12.515625 -6.457031 -12.515625 -6.96875 L -12.515625 -7.84375 C -12.515625 -8.175781 -12.34375 -8.34375 -12 -8.34375 L -10.296875 -8.34375 C -10.109375 -8.34375 -9.972656 -8.304688 -9.890625 -8.234375 C -9.816406 -8.160156 -9.789062 -8.03125 -9.8125 -7.84375 L -9.8125 -6.15625 C -9.8125 -5.03125 -9.175781 -4.46875 -7.90625 -4.46875 L -0.515625 -4.46875 C -0.171875 -4.46875 0 -4.296875 0 -3.953125 Z M 0 -3.953125 "/></g></g></g><g fill="#000000" fill-opacity="1"><g transform="translate(24.397535, 72.906385)"><g><path d="M -14.625 -1.46875 L -16.75 -1.46875 C -17.082031 -1.46875 -17.25 -1.632812 -17.25 -1.96875 L -17.25 -4.09375 C -17.25 -4.425781 -17.09375 -4.59375 -16.78125 -4.59375 L -14.625 -4.59375 C -14.289062 -4.59375 -14.125 -4.425781 -14.125 -4.09375 L -14.125 -1.96875 C -14.125 -1.632812 -14.289062 -1.46875 -14.625 -1.46875 Z M -0.515625 -1.46875 L -12 -1.46875 C -12.34375 -1.46875 -12.515625 -1.632812 -12.515625 -1.96875 L -12.515625 -4.078125 C -12.515625 -4.421875 -12.34375 -4.59375 -12 -4.59375 L -0.515625 -4.59375 C -0.304688 -4.59375 -0.164062 -4.550781 -0.09375 -4.46875 C -0.03125 -4.394531 0 -4.269531 0 -4.09375 L 0 -1.984375 C 0 -1.640625 -0.171875 -1.46875 -0.515625 -1.46875 Z M -0.515625 -1.46875 "/></g></g></g><g fill="#000000" fill-opacity="1"><g transform="translate(24.397535, 66.848731)"><g><path d="M 0 -10.578125 L 0 -5.15625 C 0 -3.863281 -0.34375 -2.863281 -1.03125 -2.15625 C -1.71875 -1.457031 -2.707031 -1.109375 -4 -1.109375 L -8.515625 -1.109375 C -9.804688 -1.109375 -10.796875 -1.457031 -11.484375 -2.15625 C -12.171875 -2.863281 -12.515625 -3.863281 -12.515625 -5.15625 L -12.515625 -7.09375 C -12.515625 -8.382812 -12.171875 -9.378906 -11.484375 -10.078125 C -10.796875 -10.785156 -9.804688 -11.140625 -8.515625 -11.140625 L -5.390625 -11.140625 C -5.046875 -11.140625 -4.875 -10.96875 -4.875 -10.625 L -4.875 -4.46875 C -4.875 -4.269531 -4.785156 -4.171875 -4.609375 -4.171875 L -4.078125 -4.171875 C -3.566406 -4.171875 -3.203125 -4.28125 -2.984375 -4.5 C -2.765625 -4.71875 -2.65625 -5.09375 -2.65625 -5.625 L -2.65625 -10.578125 C -2.65625 -10.921875 -2.472656 -11.09375 -2.109375 -11.09375 L -0.484375 -11.09375 C -0.304688 -11.09375 -0.179688 -11.054688 -0.109375 -10.984375 C -0.0351562 -10.910156 0 -10.773438 0 -10.578125 Z M -6.96875 -4.46875 L -6.96875 -7.796875 C -6.96875 -7.984375 -7.054688 -8.078125 -7.234375 -8.078125 L -8.421875 -8.078125 C -8.941406 -8.078125 -9.304688 -7.96875 -9.515625 -7.75 C -9.734375 -7.539062 -9.84375 -7.171875 -9.84375 -6.640625 L -9.84375 -5.625 C -9.84375 -5.09375 -9.734375 -4.71875 -9.515625 -4.5 C -9.304688 -4.289062 -8.941406 -4.1875 -8.421875 -4.1875 L -7.234375 -4.1875 C -7.054688 -4.1875 -6.96875 -4.28125 -6.96875 -4.46875 Z M -6.96875 -4.46875 "/></g></g></g><g fill="#000000" fill-opacity="1"><g transform="translate(24.397535, 54.733421)"><g><path d="M 0 -3.953125 L 0 -1.859375 C 0 -1.515625 -0.171875 -1.34375 -0.515625 -1.34375 L -12 -1.34375 C -12.34375 -1.34375 -12.515625 -1.515625 -12.515625 -1.859375 L -12.515625 -3.953125 C -12.515625 -4.296875 -12.34375 -4.46875 -12 -4.46875 L -11.1875 -4.46875 L -11.1875 -4.5625 C -12.070312 -4.925781 -12.515625 -5.726562 -12.515625 -6.96875 L -12.515625 -7.75 C -12.515625 -10.320312 -11.179688 -11.609375 -8.515625 -11.609375 L -0.515625 -11.609375 C -0.171875 -11.609375 0 -11.425781 0 -11.0625 L 0 -9 C 0 -8.65625 -0.171875 -8.484375 -0.515625 -8.484375 L -8.359375 -8.484375 C -8.890625 -8.484375 -9.265625 -8.375 -9.484375 -8.15625 C -9.703125 -7.9375 -9.8125 -7.566406 -9.8125 -7.046875 L -9.8125 -6.15625 C -9.8125 -5.03125 -9.191406 -4.46875 -7.953125 -4.46875 L -0.515625 -4.46875 C -0.171875 -4.46875 0 -4.296875 0 -3.953125 Z M 0 -3.953125 "/></g></g></g><g fill="#000000" fill-opacity="1"><g transform="translate(24.397535, 41.906892)"><g><path d="M -2.1875 -9.328125 L -0.484375 -9.328125 C -0.304688 -9.328125 -0.179688 -9.285156 -0.109375 -9.203125 C -0.0351562 -9.128906 0 -9 0 -8.8125 L 0 -5.15625 C 0 -3.863281 -0.34375 -2.863281 -1.03125 -2.15625 C -1.71875 -1.457031 -2.707031 -1.109375 -4 -1.109375 L -8.515625 -1.109375 C -9.804688 -1.109375 -10.796875 -1.457031 -11.484375 -2.15625 C -12.171875 -2.863281 -12.515625 -3.863281 -12.515625 -5.15625 L -12.515625 -8.8125 C -12.515625 -9.15625 -12.34375 -9.328125 -12 -9.328125 L -10.296875 -9.328125 C -10.117188 -9.328125 -9.992188 -9.285156 -9.921875 -9.203125 C -9.847656 -9.128906 -9.8125 -9 -9.8125 -8.8125 L -9.8125 -5.640625 C -9.8125 -5.128906 -9.703125 -4.765625 -9.484375 -4.546875 C -9.265625 -4.328125 -8.890625 -4.21875 -8.359375 -4.21875 L -4.140625 -4.21875 C -3.617188 -4.21875 -3.25 -4.328125 -3.03125 -4.546875 C -2.8125 -4.765625 -2.703125 -5.128906 -2.703125 -5.640625 L -2.703125 -8.8125 C -2.703125 -9.15625 -2.53125 -9.328125 -2.1875 -9.328125 Z M -2.1875 -9.328125 "/></g></g></g><g fill="#000000" fill-opacity="1"><g transform="translate(24.397535, 31.827141)"><g><path d="M -14.625 -1.46875 L -16.75 -1.46875 C -17.082031 -1.46875 -17.25 -1.632812 -17.25 -1.96875 L -17.25 -4.09375 C -17.25 -4.425781 -17.09375 -4.59375 -16.78125 -4.59375 L -14.625 -4.59375 C -14.289062 -4.59375 -14.125 -4.425781 -14.125 -4.09375 L -14.125 -1.96875 C -14.125 -1.632812 -14.289062 -1.46875 -14.625 -1.46875 Z M -0.515625 -1.46875 L -12 -1.46875 C -12.34375 -1.46875 -12.515625 -1.632812 -12.515625 -1.96875 L -12.515625 -4.078125 C -12.515625 -4.421875 -12.34375 -4.59375 -12 -4.59375 L -0.515625 -4.59375 C -0.304688 -4.59375 -0.164062 -4.550781 -0.09375 -4.46875 C -0.03125 -4.394531 0 -4.269531 0 -4.09375 L 0 -1.984375 C 0 -1.640625 -0.171875 -1.46875 -0.515625 -1.46875 Z M -0.515625 -1.46875 "/></g></g></g><g fill="#000000" fill-opacity="1"><g transform="translate(24.397535, 25.769486)"><g><path d="M 0 -5.734375 L 0 -5.15625 C 0 -3.863281 -0.34375 -2.863281 -1.03125 -2.15625 C -1.71875 -1.457031 -2.707031 -1.109375 -4 -1.109375 L -8.515625 -1.109375 C -9.804688 -1.109375 -10.796875 -1.457031 -11.484375 -2.15625 C -12.171875 -2.863281 -12.515625 -3.863281 -12.515625 -5.15625 L -12.515625 -10.8125 C -12.515625 -11.175781 -12.34375 -11.359375 -12 -11.359375 L -0.515625 -11.359375 C -0.171875 -11.359375 0 -11.175781 0 -10.8125 L 0 -8.75 C 0 -8.414062 -0.171875 -8.25 -0.515625 -8.25 L -1.328125 -8.25 L -1.328125 -8.140625 C -0.878906 -7.960938 -0.546875 -7.644531 -0.328125 -7.1875 C -0.109375 -6.726562 0 -6.242188 0 -5.734375 Z M -4.5625 -8.25 L -9.546875 -8.25 C -9.722656 -8.25 -9.8125 -8.148438 -9.8125 -7.953125 L -9.8125 -5.640625 C -9.8125 -5.117188 -9.703125 -4.75 -9.484375 -4.53125 C -9.265625 -4.320312 -8.890625 -4.21875 -8.359375 -4.21875 L -4.140625 -4.21875 C -3.617188 -4.21875 -3.25 -4.320312 -3.03125 -4.53125 C -2.8125 -4.75 -2.703125 -5.117188 -2.703125 -5.640625 L -2.703125 -6.546875 C -2.703125 -7.679688 -3.320312 -8.25 -4.5625 -8.25 Z M -4.5625 -8.25 "/></g></g></g></svg>