<svg xmlns="http://www.w3.org/2000/svg" xmlns:xlink="http://www.w3.org/1999/xlink" width="200" zoomAndPan="magnify" viewBox="0 0 150 149.999998" height="200" preserveAspectRatio="xMidYMid meet" version="1.0"><defs><g/><clipPath id="f06e6549bd"><path d="M 17.085938 17.085938 L 132.585938 17.085938 L 132.585938 132.585938 L 17.085938 132.585938 Z M 17.085938 17.085938 " clip-rule="nonzero"/></clipPath><clipPath id="dfa56614d9"><path d="M 57.1875 46 L 91 46 L 91 64 L 57.1875 64 Z M 57.1875 46 " clip-rule="nonzero"/></clipPath><clipPath id="b0de140432"><path d="M 68 63 L 80 63 L 80 74.707031 L 68 74.707031 Z M 68 63 " clip-rule="nonzero"/></clipPath></defs><rect x="-15" width="180" fill="#ffffff" y="-15" height="179.999997" fill-opacity="1"/><rect x="-15" width="180" fill="#ffffff" y="-15" height="179.999997" fill-opacity="1"/><g clip-path="url(#f06e6549bd)"><path fill="#000000" d="M 125.175781 95.996094 L 132.152344 85.535156 C 132.542969 84.945312 132.578125 84.1875 132.246094 83.5625 C 131.910156 82.9375 131.257812 82.546875 130.550781 82.546875 L 119.023438 82.546875 L 119.023438 77.078125 C 122.675781 65.695312 124.789062 56.285156 124.789062 42.203125 C 124.789062 41.460938 124.363281 40.789062 123.695312 40.46875 L 75.664062 17.414062 C 75.140625 17.160156 74.527344 17.160156 74.003906 17.414062 L 25.972656 40.46875 C 25.304688 40.789062 24.882812 41.460938 24.882812 42.203125 C 24.882812 56.285156 26.996094 65.695312 30.648438 77.082031 L 30.648438 82.546875 L 19.121094 82.546875 C 18.410156 82.546875 17.757812 82.9375 17.425781 83.5625 C 17.089844 84.1875 17.128906 84.945312 17.519531 85.535156 L 24.496094 95.996094 L 17.519531 106.457031 C 17.128906 107.046875 17.089844 107.804688 17.425781 108.429688 C 17.757812 109.054688 18.410156 109.445312 19.121094 109.445312 L 45.027344 109.445312 C 52.746094 119.476562 62.453125 127.179688 74.054688 132.335938 C 74.304688 132.445312 74.566406 132.5 74.835938 132.5 C 75.101562 132.5 75.367188 132.445312 75.617188 132.335938 C 87.214844 127.179688 96.921875 119.476562 104.644531 109.445312 L 130.550781 109.445312 C 131.257812 109.445312 131.910156 109.054688 132.246094 108.429688 C 132.578125 107.804688 132.542969 107.046875 132.148438 106.457031 Z M 33.75 45.261719 L 74.003906 25.941406 C 74.527344 25.6875 75.140625 25.6875 75.664062 25.941406 L 115.921875 45.261719 C 116.613281 45.59375 117.039062 46.300781 117.011719 47.066406 C 116.726562 54.542969 114.9375 64.34375 111.960938 74.863281 L 107.980469 74.863281 C 110.839844 64.945312 112.683594 55.371094 113.109375 48.171875 L 74.835938 29.800781 L 36.5625 48.171875 C 36.988281 55.371094 38.828125 64.945312 41.691406 74.863281 L 37.707031 74.863281 C 34.734375 64.34375 32.941406 54.542969 32.660156 47.066406 C 32.632812 46.300781 33.058594 45.59375 33.75 45.261719 Z M 22.707031 105.601562 L 28.402344 97.0625 C 28.832031 96.417969 28.832031 95.574219 28.402344 94.929688 L 22.707031 86.390625 L 30.648438 86.390625 L 30.648438 99.839844 C 30.648438 100.898438 31.503906 101.761719 32.566406 101.761719 L 39.730469 101.761719 C 40.242188 102.601562 40.824219 103.457031 41.390625 104.3125 C 41.667969 104.738281 41.925781 105.183594 42.210938 105.601562 Z M 75.703125 122.6875 C 75.429688 122.824219 75.132812 122.894531 74.835938 122.894531 C 74.539062 122.894531 74.238281 122.824219 73.96875 122.6875 C 62.898438 117.085938 54.925781 110.402344 48.925781 101.761719 L 53.65625 101.761719 C 58.921875 108.609375 65.75 114.09375 74.835938 118.8125 C 83.921875 114.09375 90.746094 108.609375 96.015625 101.761719 L 100.742188 101.761719 C 94.742188 110.402344 86.773438 117.085938 75.703125 122.6875 Z M 99.757812 97.917969 L 34.488281 97.917969 L 34.488281 78.707031 L 115.183594 78.707031 L 115.183594 97.917969 Z M 107.460938 105.601562 C 107.742188 105.183594 108 104.738281 108.277344 104.3125 C 108.847656 103.457031 109.425781 102.601562 109.9375 101.761719 L 117.101562 101.761719 C 118.164062 101.761719 119.023438 100.898438 119.023438 99.839844 L 119.023438 86.390625 L 126.960938 86.390625 L 121.269531 94.929688 C 120.835938 95.574219 120.835938 96.417969 121.269531 97.0625 L 126.960938 105.601562 Z M 107.460938 105.601562 " fill-opacity="1" fill-rule="nonzero"/></g><path fill="#ffffff" d="M 80.652344 58.273438 C 84.640625 58.144531 84.640625 52.363281 80.652344 52.234375 C 76.664062 52.363281 76.664062 58.144531 80.652344 58.273438 Z M 80.652344 58.273438 " fill-opacity="1" fill-rule="nonzero"/><path fill="#ffffff" d="M 76.597656 62.625 C 79.136719 63.726562 80.816406 66.386719 80.652344 69.289062 C 80.652344 69.289062 85.496094 65.140625 85.496094 65.140625 L 85.496094 62.953125 C 84.65625 61.019531 82.769531 59.78125 80.652344 59.78125 C 79.78125 59.78125 78.933594 60.003906 78.171875 60.414062 C 77.882812 61.304688 77.328125 62.070312 76.597656 62.625 Z M 76.597656 62.625 " fill-opacity="1" fill-rule="nonzero"/><g clip-path="url(#dfa56614d9)"><path fill="#ffffff" d="M 81.707031 46.199219 C 79.367188 46.199219 77.167969 47.109375 75.511719 48.765625 L 73.863281 50.414062 L 72.210938 48.765625 C 66.804688 43.265625 57.210938 47.238281 57.261719 54.957031 C 57.261719 58.238281 58.511719 61.363281 60.71875 63.738281 C 60.746094 63.492188 60.664062 62.730469 60.773438 62.515625 C 61.457031 60.832031 62.75 59.550781 64.339844 58.855469 C 63.25 58.027344 62.546875 56.722656 62.546875 55.253906 C 62.726562 49.351562 71.242188 49.234375 71.59375 55.117188 C 72.910156 54.304688 74.816406 54.304688 76.132812 55.117188 C 76.484375 49.234375 85.003906 49.355469 85.179688 55.253906 C 85.179688 56.722656 84.472656 58.027344 83.386719 58.855469 C 85.007812 59.585938 86.511719 60.980469 87.003906 62.800781 C 87.003906 62.800781 87.003906 63.738281 87.003906 63.738281 C 92.835938 57.628906 91.316406 46.621094 81.707031 46.199219 Z M 81.707031 46.199219 " fill-opacity="1" fill-rule="nonzero"/></g><path fill="#ffffff" d="M 70.089844 55.253906 C 69.964844 51.265625 64.179688 51.265625 64.054688 55.253906 C 64.179688 59.242188 69.964844 59.242188 70.089844 55.253906 Z M 70.089844 55.253906 " fill-opacity="1" fill-rule="nonzero"/><g clip-path="url(#b0de140432)"><path fill="#ffffff" d="M 73.863281 63.554688 C 70.949219 63.554688 68.582031 65.921875 68.582031 68.835938 L 68.582031 70.582031 L 73.371094 74.691406 C 73.65625 74.933594 74.070312 74.933594 74.355469 74.691406 L 79.144531 70.582031 L 79.144531 68.835938 C 79.144531 65.921875 76.773438 63.554688 73.863281 63.554688 Z M 73.863281 63.554688 " fill-opacity="1" fill-rule="nonzero"/></g><path fill="#ffffff" d="M 62.230469 62.949219 L 62.230469 65.140625 L 67.070312 69.289062 C 66.90625 66.386719 68.589844 63.726562 71.125 62.625 C 70.398438 62.070312 69.84375 61.304688 69.554688 60.414062 C 66.933594 58.933594 63.371094 60.171875 62.230469 62.949219 Z M 62.230469 62.949219 " fill-opacity="1" fill-rule="nonzero"/><path fill="#ffffff" d="M 73.863281 56.007812 C 69.875 56.136719 69.875 61.917969 73.863281 62.042969 C 77.851562 61.917969 77.851562 56.132812 73.863281 56.007812 Z M 73.863281 56.007812 " fill-opacity="1" fill-rule="nonzero"/><g fill="#000000" fill-opacity="1"><g transform="translate(54.756912, 91.719074)"><g><path d="M 5.25 0 L 0.9375 0 L 0.9375 -7.46875 L 5.25 -7.46875 L 5.25 -6.171875 L 2.53125 -6.171875 L 2.53125 -4.53125 L 5.0625 -4.53125 L 5.0625 -3.234375 L 2.53125 -3.234375 L 2.53125 -1.3125 L 5.25 -1.3125 Z M 5.25 0 "/></g></g></g><g fill="#000000" fill-opacity="1"><g transform="translate(60.6206, 91.719074)"><g><path d="M 7.71875 -3.75 C 7.71875 -2.863281 7.5625 -2.125 7.25 -1.53125 C 6.9375 -0.9375 6.484375 -0.503906 5.890625 -0.234375 L 7.6875 1.78125 L 5.65625 1.78125 L 4.28125 0.109375 L 4.171875 0.109375 C 3.023438 0.109375 2.144531 -0.222656 1.53125 -0.890625 C 0.914062 -1.554688 0.609375 -2.507812 0.609375 -3.75 C 0.609375 -5 0.914062 -5.953125 1.53125 -6.609375 C 2.144531 -7.265625 3.023438 -7.59375 4.171875 -7.59375 C 5.328125 -7.59375 6.207031 -7.257812 6.8125 -6.59375 C 7.414062 -5.9375 7.71875 -4.988281 7.71875 -3.75 Z M 2.265625 -3.75 C 2.265625 -2.914062 2.421875 -2.285156 2.734375 -1.859375 C 3.054688 -1.441406 3.535156 -1.234375 4.171875 -1.234375 C 5.429688 -1.234375 6.0625 -2.070312 6.0625 -3.75 C 6.0625 -5.425781 5.429688 -6.265625 4.171875 -6.265625 C 3.546875 -6.265625 3.070312 -6.050781 2.75 -5.625 C 2.425781 -5.207031 2.265625 -4.582031 2.265625 -3.75 Z M 2.265625 -3.75 "/></g></g></g><g fill="#000000" fill-opacity="1"><g transform="translate(68.953472, 91.719074)"><g><path d="M 7.03125 -7.46875 L 7.03125 -2.640625 C 7.03125 -2.085938 6.90625 -1.601562 6.65625 -1.1875 C 6.40625 -0.769531 6.046875 -0.445312 5.578125 -0.21875 C 5.109375 0 4.554688 0.109375 3.921875 0.109375 C 2.960938 0.109375 2.21875 -0.132812 1.6875 -0.625 C 1.15625 -1.125 0.890625 -1.800781 0.890625 -2.65625 L 0.890625 -7.46875 L 2.46875 -7.46875 L 2.46875 -2.890625 C 2.46875 -2.316406 2.582031 -1.894531 2.8125 -1.625 C 3.050781 -1.363281 3.4375 -1.234375 3.96875 -1.234375 C 4.488281 -1.234375 4.863281 -1.367188 5.09375 -1.640625 C 5.320312 -1.910156 5.4375 -2.332031 5.4375 -2.90625 L 5.4375 -7.46875 Z M 7.03125 -7.46875 "/></g></g></g><g fill="#000000" fill-opacity="1"><g transform="translate(76.867144, 91.719074)"><g><path d="M 0.9375 0 L 0.9375 -7.46875 L 2.53125 -7.46875 L 2.53125 0 Z M 0.9375 0 "/></g></g></g><g fill="#000000" fill-opacity="1"><g transform="translate(80.33321, 91.719074)"><g><path d="M 2.53125 -3.953125 L 3.046875 -3.953125 C 3.535156 -3.953125 3.898438 -4.046875 4.140625 -4.234375 C 4.378906 -4.429688 4.5 -4.71875 4.5 -5.09375 C 4.5 -5.457031 4.394531 -5.726562 4.1875 -5.90625 C 3.988281 -6.082031 3.675781 -6.171875 3.25 -6.171875 L 2.53125 -6.171875 Z M 6.109375 -5.140625 C 6.109375 -4.335938 5.851562 -3.722656 5.34375 -3.296875 C 4.84375 -2.867188 4.128906 -2.65625 3.203125 -2.65625 L 2.53125 -2.65625 L 2.53125 0 L 0.9375 0 L 0.9375 -7.46875 L 3.328125 -7.46875 C 4.234375 -7.46875 4.921875 -7.269531 5.390625 -6.875 C 5.867188 -6.488281 6.109375 -5.910156 6.109375 -5.140625 Z M 6.109375 -5.140625 "/></g></g></g><g fill="#000000" fill-opacity="1"><g transform="translate(86.907489, 91.719074)"><g><path d="M 7.71875 -3.75 C 7.71875 -2.507812 7.410156 -1.554688 6.796875 -0.890625 C 6.191406 -0.222656 5.316406 0.109375 4.171875 0.109375 C 3.023438 0.109375 2.144531 -0.222656 1.53125 -0.890625 C 0.914062 -1.554688 0.609375 -2.507812 0.609375 -3.75 C 0.609375 -5 0.914062 -5.953125 1.53125 -6.609375 C 2.144531 -7.265625 3.023438 -7.59375 4.171875 -7.59375 C 5.328125 -7.59375 6.207031 -7.257812 6.8125 -6.59375 C 7.414062 -5.9375 7.71875 -4.988281 7.71875 -3.75 Z M 2.265625 -3.75 C 2.265625 -2.914062 2.421875 -2.285156 2.734375 -1.859375 C 3.054688 -1.441406 3.535156 -1.234375 4.171875 -1.234375 C 5.429688 -1.234375 6.0625 -2.070312 6.0625 -3.75 C 6.0625 -5.425781 5.429688 -6.265625 4.171875 -6.265625 C 3.546875 -6.265625 3.070312 -6.050781 2.75 -5.625 C 2.425781 -5.207031 2.265625 -4.582031 2.265625 -3.75 Z M 2.265625 -3.75 "/></g></g></g></svg>