<svg xmlns="http://www.w3.org/2000/svg" xmlns:xlink="http://www.w3.org/1999/xlink" width="200" zoomAndPan="magnify" viewBox="0 0 150 149.999998" height="200" preserveAspectRatio="xMidYMid meet" version="1.0"><defs><g/><clipPath id="07ba41bd38"><path d="M 39 67 L 55 67 L 55 118.675781 L 39 118.675781 Z M 39 67 " clip-rule="nonzero"/></clipPath><clipPath id="6c99bb162f"><path d="M 53 95 L 57 95 L 57 118.675781 L 53 118.675781 Z M 53 95 " clip-rule="nonzero"/></clipPath><clipPath id="7ca2bd4b77"><path d="M 64 44.425781 L 83 44.425781 L 83 64 L 64 64 Z M 64 44.425781 " clip-rule="nonzero"/></clipPath><clipPath id="d436a5bd8b"><path d="M 56 64 L 91 64 L 91 118.675781 L 56 118.675781 Z M 56 64 " clip-rule="nonzero"/></clipPath><clipPath id="ce71c49d07"><path d="M 71 95 L 76 95 L 76 118.675781 L 71 118.675781 Z M 71 95 " clip-rule="nonzero"/></clipPath><clipPath id="7362f45c24"><path d="M 25.382812 70 L 39 70 L 39 118.675781 L 25.382812 118.675781 Z M 25.382812 70 " clip-rule="nonzero"/></clipPath><clipPath id="1929299e8b"><path d="M 36 95 L 40 95 L 40 118.675781 L 36 118.675781 Z M 36 95 " clip-rule="nonzero"/></clipPath><clipPath id="f8d00aa674"><path d="M 92 67 L 108 67 L 108 118.675781 L 92 118.675781 Z M 92 67 " clip-rule="nonzero"/></clipPath><clipPath id="196c0d36ef"><path d="M 90 95 L 94 95 L 94 118.675781 L 90 118.675781 Z M 90 95 " clip-rule="nonzero"/></clipPath><clipPath id="c40f5b3ec6"><path d="M 107 95 L 111 95 L 111 118.675781 L 107 118.675781 Z M 107 95 " clip-rule="nonzero"/></clipPath><clipPath id="376de0bd2d"><path d="M 108 70 L 121.382812 70 L 121.382812 118.675781 L 108 118.675781 Z M 108 70 " clip-rule="nonzero"/></clipPath><clipPath id="f955f4e3ad"><path d="M 22.78125 19.105469 L 27 19.105469 L 27 63.355469 L 22.78125 63.355469 Z M 22.78125 19.105469 " clip-rule="nonzero"/></clipPath><clipPath id="c4695f73e8"><path d="M 22.78125 19.105469 L 54 19.105469 L 54 42 L 22.78125 42 Z M 22.78125 19.105469 " clip-rule="nonzero"/></clipPath></defs><rect x="-15" width="180" fill="#ffffff" y="-15" height="179.999997" fill-opacity="1"/><rect x="-15" width="180" fill="#ffffff" y="-15" height="179.999997" fill-opacity="1"/><path fill="#2e90e5" d="M 54.988281 66.234375 C 55.496094 66.234375 55.996094 66.183594 56.492188 66.085938 C 56.992188 65.988281 57.472656 65.839844 57.941406 65.648438 C 58.40625 65.453125 58.851562 65.214844 59.273438 64.933594 C 59.695312 64.652344 60.082031 64.335938 60.441406 63.976562 C 60.800781 63.617188 61.121094 63.230469 61.402344 62.808594 C 61.683594 62.386719 61.917969 61.941406 62.113281 61.476562 C 62.308594 61.007812 62.453125 60.523438 62.550781 60.027344 C 62.652344 59.53125 62.699219 59.03125 62.699219 58.523438 C 62.699219 58.019531 62.652344 57.515625 62.550781 57.019531 C 62.453125 56.523438 62.308594 56.042969 62.113281 55.574219 C 61.917969 55.105469 61.683594 54.660156 61.402344 54.242188 C 61.121094 53.820312 60.800781 53.429688 60.441406 53.074219 C 60.082031 52.714844 59.695312 52.394531 59.273438 52.113281 C 58.851562 51.832031 58.40625 51.59375 57.941406 51.402344 C 57.472656 51.207031 56.992188 51.0625 56.492188 50.960938 C 55.996094 50.863281 55.496094 50.8125 54.988281 50.8125 C 54.484375 50.8125 53.980469 50.863281 53.484375 50.960938 C 52.988281 51.0625 52.507812 51.207031 52.039062 51.402344 C 51.570312 51.59375 51.128906 51.832031 50.707031 52.113281 C 50.285156 52.394531 49.894531 52.714844 49.539062 53.074219 C 49.179688 53.429688 48.859375 53.820312 48.578125 54.242188 C 48.296875 54.660156 48.058594 55.105469 47.867188 55.574219 C 47.671875 56.042969 47.527344 56.523438 47.429688 57.019531 C 47.328125 57.515625 47.28125 58.019531 47.28125 58.523438 C 47.28125 59.03125 47.328125 59.53125 47.429688 60.027344 C 47.527344 60.523438 47.671875 61.007812 47.867188 61.476562 C 48.058594 61.941406 48.296875 62.386719 48.578125 62.808594 C 48.859375 63.230469 49.179688 63.617188 49.539062 63.976562 C 49.894531 64.335938 50.285156 64.652344 50.707031 64.933594 C 51.128906 65.214844 51.570312 65.453125 52.039062 65.648438 C 52.507812 65.839844 52.988281 65.988281 53.484375 66.085938 C 53.980469 66.183594 54.484375 66.234375 54.988281 66.234375 Z M 54.988281 53.898438 C 55.292969 53.898438 55.59375 53.929688 55.890625 53.988281 C 56.191406 54.046875 56.480469 54.132812 56.761719 54.25 C 57.039062 54.367188 57.308594 54.507812 57.558594 54.679688 C 57.8125 54.847656 58.046875 55.039062 58.261719 55.253906 C 58.476562 55.46875 58.667969 55.703125 58.835938 55.953125 C 59.003906 56.207031 59.148438 56.472656 59.265625 56.753906 C 59.378906 57.035156 59.46875 57.324219 59.527344 57.621094 C 59.585938 57.917969 59.617188 58.21875 59.617188 58.523438 C 59.617188 58.828125 59.585938 59.128906 59.527344 59.425781 C 59.46875 59.726562 59.378906 60.015625 59.265625 60.292969 C 59.148438 60.574219 59.003906 60.839844 58.835938 61.09375 C 58.667969 61.347656 58.476562 61.582031 58.261719 61.796875 C 58.046875 62.011719 57.8125 62.203125 57.558594 62.371094 C 57.308594 62.539062 57.039062 62.683594 56.761719 62.796875 C 56.480469 62.914062 56.191406 63.003906 55.890625 63.0625 C 55.59375 63.121094 55.292969 63.148438 54.988281 63.148438 C 54.6875 63.148438 54.386719 63.121094 54.085938 63.0625 C 53.789062 63.003906 53.5 62.914062 53.21875 62.796875 C 52.9375 62.683594 52.671875 62.539062 52.417969 62.371094 C 52.167969 62.203125 51.933594 62.011719 51.71875 61.796875 C 51.503906 61.582031 51.3125 61.347656 51.144531 61.09375 C 50.976562 60.839844 50.832031 60.574219 50.714844 60.292969 C 50.601562 60.015625 50.511719 59.726562 50.453125 59.425781 C 50.394531 59.128906 50.363281 58.828125 50.363281 58.523438 C 50.363281 58.21875 50.394531 57.917969 50.453125 57.621094 C 50.511719 57.324219 50.601562 57.035156 50.714844 56.753906 C 50.832031 56.472656 50.976562 56.207031 51.144531 55.953125 C 51.3125 55.703125 51.503906 55.46875 51.71875 55.253906 C 51.933594 55.039062 52.167969 54.847656 52.417969 54.679688 C 52.671875 54.507812 52.9375 54.367188 53.21875 54.25 C 53.5 54.132812 53.789062 54.046875 54.085938 53.988281 C 54.386719 53.929688 54.6875 53.898438 54.988281 53.898438 Z M 54.988281 53.898438 " fill-opacity="1" fill-rule="nonzero"/><g clip-path="url(#07ba41bd38)"><path fill="#2e90e5" d="M 53.449219 67.777344 L 50.363281 67.777344 C 44.410156 67.777344 39.570312 71.925781 39.570312 77.027344 L 39.570312 90.90625 C 39.570312 93.882812 42.222656 96.382812 45.738281 96.953125 L 45.738281 117.121094 C 45.738281 117.324219 45.777344 117.523438 45.855469 117.710938 C 45.933594 117.898438 46.042969 118.066406 46.1875 118.210938 C 46.332031 118.355469 46.5 118.46875 46.691406 118.546875 C 46.878906 118.625 47.074219 118.664062 47.28125 118.664062 C 47.484375 118.664062 47.679688 118.625 47.871094 118.546875 C 48.058594 118.46875 48.226562 118.355469 48.371094 118.210938 C 48.515625 118.066406 48.625 117.898438 48.703125 117.710938 C 48.78125 117.523438 48.820312 117.324219 48.820312 117.121094 L 48.820312 77.027344 C 48.820312 76.824219 48.78125 76.628906 48.703125 76.4375 C 48.625 76.25 48.515625 76.082031 48.371094 75.9375 C 48.226562 75.792969 48.058594 75.683594 47.871094 75.605469 C 47.679688 75.527344 47.484375 75.488281 47.28125 75.488281 C 47.074219 75.488281 46.878906 75.527344 46.691406 75.605469 C 46.5 75.683594 46.332031 75.792969 46.1875 75.9375 C 46.042969 76.082031 45.933594 76.25 45.855469 76.4375 C 45.777344 76.628906 45.738281 76.824219 45.738281 77.027344 L 45.738281 93.789062 C 43.964844 93.359375 42.652344 92.25 42.652344 90.90625 L 42.652344 77.027344 C 42.652344 73.621094 46.109375 70.859375 50.363281 70.859375 L 53.449219 70.859375 C 53.652344 70.859375 53.847656 70.820312 54.039062 70.742188 C 54.226562 70.664062 54.394531 70.554688 54.539062 70.410156 C 54.683594 70.265625 54.792969 70.097656 54.871094 69.910156 C 54.949219 69.71875 54.988281 69.523438 54.988281 69.320312 C 54.988281 69.113281 54.949219 68.917969 54.871094 68.726562 C 54.792969 68.539062 54.683594 68.371094 54.539062 68.226562 C 54.394531 68.082031 54.226562 67.972656 54.039062 67.894531 C 53.847656 67.816406 53.652344 67.777344 53.449219 67.777344 Z M 53.449219 67.777344 " fill-opacity="1" fill-rule="nonzero"/></g><g clip-path="url(#6c99bb162f)"><path fill="#2e90e5" d="M 53.449219 97.074219 L 53.449219 117.121094 C 53.449219 117.324219 53.488281 117.523438 53.566406 117.710938 C 53.644531 117.898438 53.753906 118.066406 53.898438 118.210938 C 54.042969 118.355469 54.210938 118.46875 54.398438 118.546875 C 54.589844 118.625 54.785156 118.664062 54.988281 118.664062 C 55.195312 118.664062 55.390625 118.625 55.578125 118.546875 C 55.769531 118.46875 55.9375 118.355469 56.082031 118.210938 C 56.226562 118.066406 56.335938 117.898438 56.414062 117.710938 C 56.492188 117.523438 56.53125 117.324219 56.53125 117.121094 L 56.53125 97.074219 C 56.53125 96.871094 56.492188 96.671875 56.414062 96.484375 C 56.335938 96.296875 56.226562 96.128906 56.082031 95.984375 C 55.9375 95.839844 55.769531 95.730469 55.578125 95.648438 C 55.390625 95.570312 55.195312 95.53125 54.988281 95.53125 C 54.785156 95.53125 54.589844 95.570312 54.398438 95.648438 C 54.210938 95.730469 54.042969 95.839844 53.898438 95.984375 C 53.753906 96.128906 53.644531 96.296875 53.566406 96.484375 C 53.488281 96.671875 53.449219 96.871094 53.449219 97.074219 Z M 53.449219 97.074219 " fill-opacity="1" fill-rule="nonzero"/></g><g clip-path="url(#7ca2bd4b77)"><path fill="#2e90e5" d="M 73.496094 63.148438 C 74.101562 63.148438 74.703125 63.089844 75.300781 62.972656 C 75.894531 62.855469 76.472656 62.679688 77.035156 62.445312 C 77.597656 62.214844 78.128906 61.929688 78.632812 61.589844 C 79.140625 61.253906 79.605469 60.871094 80.035156 60.441406 C 80.464844 60.011719 80.851562 59.542969 81.1875 59.039062 C 81.523438 58.535156 81.808594 58 82.042969 57.4375 C 82.273438 56.878906 82.449219 56.300781 82.570312 55.703125 C 82.6875 55.105469 82.746094 54.503906 82.746094 53.898438 C 82.746094 53.289062 82.6875 52.6875 82.570312 52.09375 C 82.449219 51.496094 82.273438 50.917969 82.042969 50.359375 C 81.808594 49.796875 81.523438 49.261719 81.1875 48.757812 C 80.851562 48.253906 80.464844 47.785156 80.035156 47.355469 C 79.605469 46.925781 79.140625 46.542969 78.632812 46.207031 C 78.128906 45.867188 77.597656 45.582031 77.035156 45.351562 C 76.472656 45.117188 75.894531 44.941406 75.300781 44.824219 C 74.703125 44.707031 74.101562 44.644531 73.496094 44.644531 C 72.886719 44.644531 72.285156 44.707031 71.6875 44.824219 C 71.09375 44.941406 70.515625 45.117188 69.953125 45.351562 C 69.390625 45.582031 68.859375 45.867188 68.355469 46.207031 C 67.847656 46.542969 67.382812 46.925781 66.953125 47.355469 C 66.523438 47.785156 66.140625 48.253906 65.800781 48.757812 C 65.464844 49.261719 65.179688 49.796875 64.945312 50.359375 C 64.714844 50.917969 64.539062 51.496094 64.417969 52.09375 C 64.300781 52.6875 64.242188 53.289062 64.242188 53.898438 C 64.242188 54.503906 64.300781 55.105469 64.417969 55.703125 C 64.539062 56.300781 64.714844 56.878906 64.945312 57.4375 C 65.179688 58 65.464844 58.535156 65.800781 59.039062 C 66.140625 59.542969 66.523438 60.011719 66.953125 60.441406 C 67.382812 60.871094 67.847656 61.253906 68.355469 61.589844 C 68.859375 61.929688 69.390625 62.214844 69.953125 62.445312 C 70.515625 62.679688 71.09375 62.855469 71.6875 62.972656 C 72.285156 63.089844 72.886719 63.148438 73.496094 63.148438 Z M 73.496094 47.730469 C 73.898438 47.730469 74.300781 47.769531 74.699219 47.847656 C 75.09375 47.925781 75.480469 48.042969 75.855469 48.199219 C 76.230469 48.355469 76.585938 48.542969 76.921875 48.769531 C 77.257812 48.996094 77.570312 49.25 77.855469 49.535156 C 78.140625 49.824219 78.398438 50.132812 78.621094 50.472656 C 78.847656 50.808594 79.039062 51.164062 79.191406 51.539062 C 79.347656 51.910156 79.464844 52.296875 79.542969 52.695312 C 79.621094 53.09375 79.664062 53.492188 79.664062 53.898438 C 79.664062 54.304688 79.621094 54.703125 79.542969 55.101562 C 79.464844 55.5 79.347656 55.882812 79.191406 56.257812 C 79.039062 56.632812 78.847656 56.988281 78.621094 57.324219 C 78.398438 57.660156 78.140625 57.972656 77.855469 58.257812 C 77.570312 58.546875 77.257812 58.800781 76.921875 59.027344 C 76.585938 59.25 76.230469 59.441406 75.855469 59.597656 C 75.480469 59.75 75.09375 59.867188 74.699219 59.949219 C 74.300781 60.027344 73.898438 60.066406 73.496094 60.066406 C 73.089844 60.066406 72.6875 60.027344 72.289062 59.949219 C 71.894531 59.867188 71.507812 59.75 71.132812 59.597656 C 70.757812 59.441406 70.402344 59.25 70.066406 59.027344 C 69.730469 58.800781 69.417969 58.546875 69.132812 58.257812 C 68.847656 57.972656 68.589844 57.660156 68.367188 57.324219 C 68.140625 56.988281 67.949219 56.632812 67.796875 56.257812 C 67.640625 55.882812 67.523438 55.5 67.445312 55.101562 C 67.367188 54.703125 67.324219 54.304688 67.324219 53.898438 C 67.324219 53.492188 67.367188 53.09375 67.445312 52.695312 C 67.523438 52.296875 67.640625 51.910156 67.796875 51.539062 C 67.949219 51.164062 68.140625 50.808594 68.367188 50.472656 C 68.589844 50.132812 68.847656 49.824219 69.132812 49.535156 C 69.417969 49.25 69.730469 48.996094 70.066406 48.769531 C 70.402344 48.542969 70.757812 48.355469 71.132812 48.199219 C 71.507812 48.042969 71.894531 47.925781 72.289062 47.847656 C 72.6875 47.769531 73.089844 47.730469 73.496094 47.730469 Z M 73.496094 47.730469 " fill-opacity="1" fill-rule="nonzero"/></g><g clip-path="url(#d436a5bd8b)"><path fill="#2e90e5" d="M 79.664062 64.691406 L 67.324219 64.691406 C 61.375 64.691406 56.53125 68.839844 56.53125 73.945312 L 56.53125 83.195312 C 56.53125 83.5 56.5625 83.800781 56.621094 84.097656 C 56.679688 84.398438 56.769531 84.6875 56.882812 84.96875 C 57 85.246094 57.144531 85.515625 57.3125 85.765625 C 57.480469 86.019531 57.671875 86.253906 57.886719 86.46875 C 58.101562 86.683594 58.335938 86.875 58.589844 87.042969 C 58.839844 87.210938 59.105469 87.355469 59.386719 87.46875 C 59.667969 87.585938 59.957031 87.675781 60.253906 87.734375 C 60.554688 87.792969 60.855469 87.824219 61.15625 87.824219 L 62.699219 87.824219 L 62.699219 117.121094 C 62.699219 117.324219 62.738281 117.523438 62.816406 117.710938 C 62.894531 117.898438 63.007812 118.066406 63.152344 118.210938 C 63.296875 118.355469 63.464844 118.46875 63.652344 118.546875 C 63.839844 118.625 64.039062 118.664062 64.242188 118.664062 C 64.445312 118.664062 64.644531 118.625 64.832031 118.546875 C 65.019531 118.46875 65.1875 118.355469 65.332031 118.210938 C 65.476562 118.066406 65.589844 117.898438 65.667969 117.710938 C 65.746094 117.523438 65.785156 117.324219 65.785156 117.121094 L 65.785156 87.824219 L 81.203125 87.824219 L 81.203125 117.121094 C 81.203125 117.324219 81.242188 117.523438 81.320312 117.710938 C 81.398438 117.898438 81.511719 118.066406 81.65625 118.210938 C 81.800781 118.355469 81.96875 118.46875 82.15625 118.546875 C 82.34375 118.625 82.542969 118.664062 82.746094 118.664062 C 82.949219 118.664062 83.148438 118.625 83.335938 118.546875 C 83.527344 118.46875 83.691406 118.355469 83.835938 118.210938 C 83.980469 118.066406 84.09375 117.898438 84.171875 117.710938 C 84.25 117.523438 84.289062 117.324219 84.289062 117.121094 L 84.289062 87.824219 L 85.832031 87.824219 C 86.132812 87.824219 86.433594 87.792969 86.734375 87.734375 C 87.03125 87.675781 87.320312 87.585938 87.601562 87.46875 C 87.882812 87.355469 88.148438 87.210938 88.402344 87.042969 C 88.652344 86.875 88.886719 86.683594 89.101562 86.46875 C 89.316406 86.253906 89.507812 86.019531 89.675781 85.765625 C 89.847656 85.515625 89.988281 85.246094 90.105469 84.96875 C 90.21875 84.6875 90.308594 84.398438 90.367188 84.097656 C 90.425781 83.800781 90.457031 83.5 90.457031 83.195312 L 90.457031 73.945312 C 90.457031 68.839844 85.613281 64.691406 79.664062 64.691406 Z M 85.832031 84.738281 L 78.445312 84.738281 L 65.785156 79.109375 L 65.785156 78.753906 L 77.949219 80.097656 L 82.746094 80.097656 C 82.949219 80.097656 83.148438 80.058594 83.335938 79.980469 C 83.527344 79.902344 83.691406 79.789062 83.835938 79.644531 C 83.980469 79.5 84.09375 79.335938 84.171875 79.144531 C 84.25 78.957031 84.289062 78.757812 84.289062 78.554688 L 84.289062 75.488281 C 84.289062 75.28125 84.25 75.085938 84.171875 74.894531 C 84.09375 74.707031 83.980469 74.539062 83.835938 74.394531 C 83.691406 74.25 83.527344 74.140625 83.335938 74.0625 C 83.148438 73.984375 82.949219 73.945312 82.746094 73.945312 C 82.542969 73.945312 82.34375 73.984375 82.15625 74.0625 C 81.96875 74.140625 81.800781 74.25 81.65625 74.394531 C 81.511719 74.539062 81.398438 74.707031 81.320312 74.894531 C 81.242188 75.085938 81.203125 75.28125 81.203125 75.488281 L 81.203125 77.027344 L 78.210938 77.027344 L 65.785156 75.65625 L 65.785156 75.488281 C 65.785156 75.28125 65.746094 75.085938 65.667969 74.894531 C 65.589844 74.707031 65.476562 74.539062 65.332031 74.394531 C 65.1875 74.25 65.019531 74.140625 64.832031 74.0625 C 64.644531 73.984375 64.445312 73.945312 64.242188 73.945312 C 64.039062 73.945312 63.839844 73.984375 63.652344 74.0625 C 63.464844 74.140625 63.296875 74.25 63.152344 74.394531 C 63.007812 74.539062 62.894531 74.707031 62.816406 74.894531 C 62.738281 75.085938 62.699219 75.28125 62.699219 75.488281 L 62.699219 80.113281 C 62.691406 80.179688 62.691406 80.246094 62.699219 80.3125 C 62.675781 80.4375 62.675781 80.558594 62.699219 80.683594 C 62.738281 80.777344 62.792969 80.863281 62.855469 80.945312 C 62.898438 81.027344 62.949219 81.105469 63.007812 81.175781 C 63.101562 81.273438 63.210938 81.351562 63.332031 81.40625 C 63.332031 81.40625 63.425781 81.5 63.488281 81.515625 L 70.855469 84.738281 L 61.15625 84.738281 C 60.953125 84.738281 60.757812 84.699219 60.566406 84.621094 C 60.378906 84.542969 60.210938 84.433594 60.066406 84.285156 C 59.921875 84.140625 59.8125 83.976562 59.734375 83.785156 C 59.65625 83.597656 59.617188 83.402344 59.617188 83.195312 L 59.617188 73.945312 C 59.617188 70.535156 63.070312 67.777344 67.324219 67.777344 L 79.664062 67.777344 C 83.917969 67.777344 87.371094 70.535156 87.371094 73.945312 L 87.371094 83.195312 C 87.371094 83.402344 87.332031 83.597656 87.253906 83.785156 C 87.175781 83.976562 87.066406 84.140625 86.921875 84.285156 C 86.777344 84.433594 86.609375 84.542969 86.421875 84.621094 C 86.230469 84.699219 86.035156 84.738281 85.832031 84.738281 Z M 85.832031 84.738281 " fill-opacity="1" fill-rule="nonzero"/></g><g clip-path="url(#ce71c49d07)"><path fill="#2e90e5" d="M 71.953125 97.074219 L 71.953125 117.121094 C 71.953125 117.324219 71.992188 117.523438 72.070312 117.710938 C 72.148438 117.898438 72.257812 118.066406 72.402344 118.210938 C 72.546875 118.355469 72.714844 118.46875 72.902344 118.546875 C 73.09375 118.625 73.289062 118.664062 73.496094 118.664062 C 73.699219 118.664062 73.894531 118.625 74.085938 118.546875 C 74.273438 118.46875 74.441406 118.355469 74.585938 118.210938 C 74.730469 118.066406 74.839844 117.898438 74.917969 117.710938 C 74.996094 117.523438 75.035156 117.324219 75.035156 117.121094 L 75.035156 97.074219 C 75.035156 96.871094 74.996094 96.671875 74.917969 96.484375 C 74.839844 96.296875 74.730469 96.128906 74.585938 95.984375 C 74.441406 95.839844 74.273438 95.730469 74.085938 95.648438 C 73.894531 95.570312 73.699219 95.53125 73.496094 95.53125 C 73.289062 95.53125 73.09375 95.570312 72.902344 95.648438 C 72.714844 95.730469 72.546875 95.839844 72.402344 95.984375 C 72.257812 96.128906 72.148438 96.296875 72.070312 96.484375 C 71.992188 96.671875 71.953125 96.871094 71.953125 97.074219 Z M 71.953125 97.074219 " fill-opacity="1" fill-rule="nonzero"/></g><path fill="#2e90e5" d="M 38.027344 69.320312 C 38.484375 69.320312 38.933594 69.273438 39.382812 69.183594 C 39.828125 69.097656 40.261719 68.964844 40.683594 68.789062 C 41.105469 68.617188 41.503906 68.402344 41.882812 68.148438 C 42.261719 67.894531 42.613281 67.609375 42.933594 67.285156 C 43.257812 66.964844 43.542969 66.613281 43.796875 66.234375 C 44.050781 65.855469 44.265625 65.457031 44.4375 65.035156 C 44.613281 64.613281 44.746094 64.179688 44.832031 63.734375 C 44.921875 63.285156 44.964844 62.835938 44.964844 62.378906 C 44.964844 61.921875 44.921875 61.472656 44.832031 61.027344 C 44.746094 60.578125 44.613281 60.144531 44.4375 59.722656 C 44.265625 59.304688 44.050781 58.902344 43.796875 58.523438 C 43.542969 58.144531 43.257812 57.792969 42.933594 57.472656 C 42.613281 57.152344 42.261719 56.863281 41.882812 56.609375 C 41.503906 56.355469 41.105469 56.144531 40.683594 55.96875 C 40.261719 55.792969 39.828125 55.664062 39.382812 55.574219 C 38.933594 55.484375 38.484375 55.441406 38.027344 55.441406 C 37.570312 55.441406 37.121094 55.484375 36.671875 55.574219 C 36.226562 55.664062 35.792969 55.792969 35.371094 55.96875 C 34.949219 56.144531 34.550781 56.355469 34.171875 56.609375 C 33.792969 56.863281 33.441406 57.152344 33.121094 57.472656 C 32.796875 57.792969 32.511719 58.144531 32.257812 58.523438 C 32.003906 58.902344 31.792969 59.304688 31.617188 59.722656 C 31.441406 60.144531 31.3125 60.578125 31.222656 61.027344 C 31.132812 61.472656 31.089844 61.921875 31.089844 62.378906 C 31.089844 62.835938 31.132812 63.285156 31.222656 63.730469 C 31.3125 64.179688 31.445312 64.613281 31.621094 65.03125 C 31.796875 65.453125 32.007812 65.851562 32.261719 66.230469 C 32.515625 66.609375 32.804688 66.960938 33.125 67.28125 C 33.449219 67.601562 33.796875 67.890625 34.175781 68.144531 C 34.554688 68.398438 34.953125 68.613281 35.375 68.785156 C 35.796875 68.960938 36.226562 69.09375 36.675781 69.183594 C 37.121094 69.273438 37.570312 69.316406 38.027344 69.320312 Z M 38.027344 58.523438 C 38.539062 58.523438 39.03125 58.621094 39.503906 58.816406 C 39.976562 59.011719 40.390625 59.292969 40.753906 59.652344 C 41.113281 60.015625 41.394531 60.433594 41.589844 60.902344 C 41.785156 61.375 41.882812 61.867188 41.882812 62.378906 C 41.882812 62.890625 41.785156 63.382812 41.589844 63.855469 C 41.394531 64.328125 41.113281 64.742188 40.753906 65.105469 C 40.390625 65.464844 39.976562 65.746094 39.503906 65.941406 C 39.03125 66.136719 38.539062 66.234375 38.027344 66.234375 C 37.515625 66.234375 37.023438 66.136719 36.550781 65.941406 C 36.078125 65.746094 35.664062 65.464844 35.300781 65.105469 C 34.941406 64.742188 34.660156 64.328125 34.464844 63.855469 C 34.269531 63.382812 34.171875 62.890625 34.171875 62.378906 C 34.171875 61.867188 34.269531 61.375 34.464844 60.902344 C 34.660156 60.433594 34.941406 60.015625 35.300781 59.652344 C 35.664062 59.292969 36.078125 59.011719 36.550781 58.816406 C 37.023438 58.621094 37.515625 58.523438 38.027344 58.523438 Z M 38.027344 58.523438 " fill-opacity="1" fill-rule="nonzero"/><g clip-path="url(#7362f45c24)"><path fill="#2e90e5" d="M 30.316406 95.378906 L 30.316406 117.121094 C 30.316406 117.324219 30.355469 117.523438 30.433594 117.710938 C 30.511719 117.898438 30.625 118.066406 30.769531 118.210938 C 30.914062 118.355469 31.082031 118.46875 31.269531 118.546875 C 31.457031 118.625 31.65625 118.664062 31.859375 118.664062 C 32.0625 118.664062 32.261719 118.625 32.449219 118.546875 C 32.636719 118.46875 32.804688 118.355469 32.949219 118.210938 C 33.09375 118.066406 33.207031 117.898438 33.285156 117.710938 C 33.363281 117.523438 33.402344 117.324219 33.402344 117.121094 L 33.402344 80.113281 C 33.402344 79.90625 33.363281 79.710938 33.285156 79.523438 C 33.207031 79.332031 33.09375 79.167969 32.949219 79.023438 C 32.804688 78.878906 32.636719 78.765625 32.449219 78.6875 C 32.261719 78.609375 32.0625 78.570312 31.859375 78.570312 C 31.65625 78.570312 31.457031 78.609375 31.269531 78.6875 C 31.082031 78.765625 30.914062 78.878906 30.769531 79.023438 C 30.625 79.167969 30.511719 79.332031 30.433594 79.523438 C 30.355469 79.710938 30.316406 79.90625 30.316406 80.113281 L 30.316406 92.203125 C 29.269531 91.800781 28.777344 90.90625 28.777344 89.363281 L 28.777344 78.570312 C 28.777344 78.265625 28.804688 77.964844 28.863281 77.667969 C 28.921875 77.371094 29.011719 77.082031 29.128906 76.800781 C 29.242188 76.519531 29.386719 76.253906 29.554688 76 C 29.722656 75.746094 29.914062 75.515625 30.128906 75.300781 C 30.34375 75.085938 30.578125 74.894531 30.832031 74.722656 C 31.082031 74.554688 31.351562 74.414062 31.632812 74.296875 C 31.910156 74.179688 32.199219 74.09375 32.5 74.035156 C 32.796875 73.972656 33.097656 73.945312 33.402344 73.945312 L 36.484375 73.945312 C 36.691406 73.945312 36.886719 73.90625 37.074219 73.828125 C 37.265625 73.75 37.429688 73.636719 37.574219 73.492188 C 37.71875 73.347656 37.832031 73.179688 37.910156 72.992188 C 37.988281 72.804688 38.027344 72.605469 38.027344 72.402344 C 38.027344 72.199219 37.988281 72 37.910156 71.8125 C 37.832031 71.625 37.71875 71.457031 37.574219 71.3125 C 37.429688 71.167969 37.265625 71.054688 37.074219 70.976562 C 36.886719 70.898438 36.691406 70.859375 36.484375 70.859375 L 33.402344 70.859375 C 32.894531 70.859375 32.394531 70.910156 31.898438 71.007812 C 31.402344 71.105469 30.917969 71.253906 30.449219 71.449219 C 29.984375 71.640625 29.539062 71.878906 29.117188 72.160156 C 28.695312 72.441406 28.308594 72.761719 27.949219 73.117188 C 27.589844 73.476562 27.273438 73.867188 26.992188 74.285156 C 26.710938 74.707031 26.472656 75.152344 26.277344 75.621094 C 26.085938 76.085938 25.9375 76.570312 25.839844 77.066406 C 25.742188 77.5625 25.691406 78.0625 25.691406 78.570312 L 25.691406 89.363281 C 25.65625 89.710938 25.65625 90.058594 25.6875 90.40625 C 25.71875 90.757812 25.78125 91.097656 25.875 91.433594 C 25.972656 91.769531 26.097656 92.09375 26.257812 92.40625 C 26.414062 92.71875 26.597656 93.011719 26.8125 93.289062 C 27.023438 93.566406 27.261719 93.820312 27.523438 94.050781 C 27.785156 94.285156 28.066406 94.488281 28.363281 94.667969 C 28.664062 94.847656 28.980469 94.996094 29.308594 95.117188 C 29.636719 95.234375 29.972656 95.324219 30.316406 95.378906 Z M 30.316406 95.378906 " fill-opacity="1" fill-rule="nonzero"/></g><g clip-path="url(#1929299e8b)"><path fill="#2e90e5" d="M 39.570312 117.121094 L 39.570312 97.074219 C 39.570312 96.871094 39.53125 96.671875 39.453125 96.484375 C 39.375 96.296875 39.261719 96.128906 39.117188 95.984375 C 38.972656 95.839844 38.804688 95.730469 38.617188 95.648438 C 38.429688 95.570312 38.230469 95.53125 38.027344 95.53125 C 37.824219 95.53125 37.625 95.570312 37.4375 95.648438 C 37.25 95.730469 37.082031 95.839844 36.9375 95.984375 C 36.792969 96.128906 36.679688 96.296875 36.601562 96.484375 C 36.523438 96.671875 36.484375 96.871094 36.484375 97.074219 L 36.484375 117.121094 C 36.484375 117.324219 36.523438 117.523438 36.601562 117.710938 C 36.679688 117.898438 36.792969 118.066406 36.9375 118.210938 C 37.082031 118.355469 37.25 118.46875 37.4375 118.546875 C 37.625 118.625 37.824219 118.664062 38.027344 118.664062 C 38.230469 118.664062 38.429688 118.625 38.617188 118.546875 C 38.804688 118.46875 38.972656 118.355469 39.117188 118.210938 C 39.261719 118.066406 39.375 117.898438 39.453125 117.710938 C 39.53125 117.523438 39.570312 117.324219 39.570312 117.121094 Z M 39.570312 117.121094 " fill-opacity="1" fill-rule="nonzero"/></g><path fill="#2e90e5" d="M 92 66.234375 C 92.503906 66.234375 93.007812 66.183594 93.503906 66.085938 C 94 65.988281 94.480469 65.839844 94.949219 65.648438 C 95.417969 65.453125 95.859375 65.214844 96.28125 64.933594 C 96.703125 64.652344 97.09375 64.335938 97.449219 63.976562 C 97.808594 63.617188 98.128906 63.230469 98.410156 62.808594 C 98.691406 62.386719 98.929688 61.941406 99.121094 61.476562 C 99.316406 61.007812 99.460938 60.523438 99.5625 60.027344 C 99.660156 59.53125 99.707031 59.03125 99.707031 58.523438 C 99.707031 58.019531 99.660156 57.515625 99.5625 57.019531 C 99.460938 56.523438 99.316406 56.042969 99.121094 55.574219 C 98.929688 55.105469 98.691406 54.660156 98.410156 54.242188 C 98.128906 53.820312 97.808594 53.429688 97.449219 53.074219 C 97.09375 52.714844 96.703125 52.394531 96.28125 52.113281 C 95.859375 51.832031 95.417969 51.59375 94.949219 51.402344 C 94.480469 51.207031 94 51.0625 93.503906 50.960938 C 93.007812 50.863281 92.503906 50.8125 92 50.8125 C 91.492188 50.8125 90.992188 50.863281 90.496094 50.960938 C 89.996094 51.0625 89.515625 51.207031 89.046875 51.402344 C 88.582031 51.59375 88.136719 51.832031 87.714844 52.113281 C 87.292969 52.394531 86.90625 52.714844 86.546875 53.074219 C 86.1875 53.429688 85.867188 53.820312 85.585938 54.242188 C 85.304688 54.660156 85.070312 55.105469 84.875 55.574219 C 84.679688 56.042969 84.535156 56.523438 84.4375 57.019531 C 84.335938 57.515625 84.289062 58.019531 84.289062 58.523438 C 84.289062 59.03125 84.335938 59.53125 84.4375 60.027344 C 84.535156 60.523438 84.679688 61.007812 84.875 61.476562 C 85.070312 61.941406 85.304688 62.386719 85.585938 62.808594 C 85.867188 63.230469 86.1875 63.617188 86.546875 63.976562 C 86.90625 64.335938 87.292969 64.652344 87.714844 64.933594 C 88.136719 65.214844 88.582031 65.453125 89.046875 65.648438 C 89.515625 65.839844 89.996094 65.988281 90.496094 66.085938 C 90.992188 66.183594 91.492188 66.234375 92 66.234375 Z M 92 53.898438 C 92.300781 53.898438 92.601562 53.929688 92.902344 53.988281 C 93.199219 54.046875 93.488281 54.132812 93.769531 54.25 C 94.050781 54.367188 94.316406 54.507812 94.570312 54.679688 C 94.820312 54.847656 95.054688 55.039062 95.269531 55.253906 C 95.484375 55.46875 95.675781 55.703125 95.84375 55.953125 C 96.015625 56.207031 96.15625 56.472656 96.273438 56.753906 C 96.390625 57.035156 96.476562 57.324219 96.535156 57.621094 C 96.59375 57.917969 96.625 58.21875 96.625 58.523438 C 96.625 58.828125 96.59375 59.128906 96.535156 59.425781 C 96.476562 59.726562 96.390625 60.015625 96.273438 60.292969 C 96.15625 60.574219 96.015625 60.839844 95.84375 61.09375 C 95.675781 61.347656 95.484375 61.582031 95.269531 61.796875 C 95.054688 62.011719 94.820312 62.203125 94.570312 62.371094 C 94.316406 62.539062 94.050781 62.683594 93.769531 62.796875 C 93.488281 62.914062 93.199219 63.003906 92.902344 63.0625 C 92.601562 63.121094 92.300781 63.148438 92 63.148438 C 91.695312 63.148438 91.394531 63.121094 91.097656 63.0625 C 90.796875 63.003906 90.507812 62.914062 90.226562 62.796875 C 89.949219 62.683594 89.679688 62.539062 89.429688 62.371094 C 89.175781 62.203125 88.941406 62.011719 88.726562 61.796875 C 88.511719 61.582031 88.320312 61.347656 88.152344 61.09375 C 87.984375 60.839844 87.839844 60.574219 87.726562 60.292969 C 87.609375 60.015625 87.519531 59.726562 87.460938 59.425781 C 87.402344 59.128906 87.371094 58.828125 87.371094 58.523438 C 87.371094 58.21875 87.402344 57.917969 87.460938 57.621094 C 87.519531 57.324219 87.609375 57.035156 87.726562 56.753906 C 87.839844 56.472656 87.984375 56.207031 88.152344 55.953125 C 88.320312 55.703125 88.511719 55.46875 88.726562 55.253906 C 88.941406 55.039062 89.175781 54.847656 89.429688 54.679688 C 89.679688 54.507812 89.949219 54.367188 90.226562 54.25 C 90.507812 54.132812 90.796875 54.046875 91.097656 53.988281 C 91.394531 53.929688 91.695312 53.898438 92 53.898438 Z M 92 53.898438 " fill-opacity="1" fill-rule="nonzero"/><g clip-path="url(#f8d00aa674)"><path fill="#2e90e5" d="M 99.707031 75.488281 C 99.503906 75.488281 99.308594 75.527344 99.117188 75.605469 C 98.929688 75.683594 98.761719 75.792969 98.617188 75.9375 C 98.472656 76.082031 98.363281 76.25 98.285156 76.4375 C 98.207031 76.628906 98.167969 76.824219 98.167969 77.027344 L 98.167969 117.121094 C 98.167969 117.324219 98.207031 117.523438 98.285156 117.710938 C 98.363281 117.898438 98.472656 118.066406 98.617188 118.210938 C 98.761719 118.355469 98.929688 118.46875 99.117188 118.546875 C 99.308594 118.625 99.503906 118.664062 99.707031 118.664062 C 99.914062 118.664062 100.109375 118.625 100.300781 118.546875 C 100.488281 118.46875 100.65625 118.355469 100.800781 118.210938 C 100.945312 118.066406 101.054688 117.898438 101.132812 117.710938 C 101.210938 117.523438 101.25 117.324219 101.25 117.121094 L 101.25 96.953125 C 104.765625 96.382812 107.417969 93.867188 107.417969 90.90625 L 107.417969 77.027344 C 107.417969 71.925781 102.578125 67.777344 96.625 67.777344 L 93.539062 67.777344 C 93.335938 67.777344 93.140625 67.816406 92.949219 67.894531 C 92.761719 67.972656 92.59375 68.082031 92.449219 68.226562 C 92.304688 68.371094 92.195312 68.539062 92.117188 68.726562 C 92.039062 68.917969 92 69.113281 92 69.320312 C 92 69.523438 92.039062 69.71875 92.117188 69.910156 C 92.195312 70.097656 92.304688 70.265625 92.449219 70.410156 C 92.59375 70.554688 92.761719 70.664062 92.949219 70.742188 C 93.140625 70.820312 93.335938 70.859375 93.539062 70.859375 L 96.625 70.859375 C 100.878906 70.859375 104.335938 73.621094 104.335938 77.027344 L 104.335938 90.90625 C 104.335938 92.21875 103.023438 93.359375 101.25 93.789062 L 101.25 77.027344 C 101.25 76.824219 101.210938 76.628906 101.132812 76.4375 C 101.054688 76.25 100.945312 76.082031 100.800781 75.9375 C 100.65625 75.792969 100.488281 75.683594 100.300781 75.605469 C 100.109375 75.527344 99.914062 75.488281 99.707031 75.488281 Z M 99.707031 75.488281 " fill-opacity="1" fill-rule="nonzero"/></g><g clip-path="url(#196c0d36ef)"><path fill="#2e90e5" d="M 90.457031 97.074219 L 90.457031 117.121094 C 90.457031 117.324219 90.496094 117.523438 90.574219 117.710938 C 90.652344 117.898438 90.761719 118.066406 90.910156 118.210938 C 91.054688 118.355469 91.21875 118.46875 91.410156 118.546875 C 91.597656 118.625 91.792969 118.664062 92 118.664062 C 92.203125 118.664062 92.398438 118.625 92.589844 118.546875 C 92.777344 118.46875 92.945312 118.355469 93.089844 118.210938 C 93.234375 118.066406 93.34375 117.898438 93.421875 117.710938 C 93.5 117.523438 93.539062 117.324219 93.539062 117.121094 L 93.539062 97.074219 C 93.539062 96.871094 93.5 96.671875 93.421875 96.484375 C 93.34375 96.296875 93.234375 96.128906 93.089844 95.984375 C 92.945312 95.839844 92.777344 95.730469 92.589844 95.648438 C 92.398438 95.570312 92.203125 95.53125 92 95.53125 C 91.792969 95.53125 91.597656 95.570312 91.410156 95.648438 C 91.21875 95.730469 91.054688 95.839844 90.910156 95.984375 C 90.761719 96.128906 90.652344 96.296875 90.574219 96.484375 C 90.496094 96.671875 90.457031 96.871094 90.457031 97.074219 Z M 90.457031 97.074219 " fill-opacity="1" fill-rule="nonzero"/></g><path fill="#2e90e5" d="M 108.960938 69.320312 C 109.417969 69.320312 109.867188 69.273438 110.316406 69.183594 C 110.761719 69.097656 111.195312 68.964844 111.617188 68.789062 C 112.039062 68.617188 112.4375 68.402344 112.816406 68.148438 C 113.195312 67.894531 113.546875 67.609375 113.867188 67.285156 C 114.191406 66.964844 114.476562 66.613281 114.730469 66.234375 C 114.984375 65.855469 115.199219 65.457031 115.371094 65.035156 C 115.546875 64.613281 115.679688 64.179688 115.765625 63.734375 C 115.855469 63.285156 115.898438 62.835938 115.898438 62.378906 C 115.898438 61.921875 115.855469 61.472656 115.765625 61.027344 C 115.679688 60.578125 115.546875 60.144531 115.371094 59.722656 C 115.199219 59.304688 114.984375 58.902344 114.730469 58.523438 C 114.476562 58.144531 114.191406 57.792969 113.867188 57.472656 C 113.546875 57.152344 113.195312 56.863281 112.816406 56.609375 C 112.4375 56.355469 112.039062 56.144531 111.617188 55.96875 C 111.195312 55.792969 110.761719 55.664062 110.316406 55.574219 C 109.867188 55.484375 109.417969 55.441406 108.960938 55.441406 C 108.503906 55.441406 108.054688 55.484375 107.605469 55.574219 C 107.160156 55.664062 106.726562 55.792969 106.304688 55.96875 C 105.882812 56.144531 105.484375 56.355469 105.105469 56.609375 C 104.726562 56.863281 104.375 57.152344 104.054688 57.472656 C 103.730469 57.792969 103.445312 58.144531 103.191406 58.523438 C 102.9375 58.902344 102.722656 59.304688 102.550781 59.722656 C 102.375 60.144531 102.242188 60.578125 102.15625 61.027344 C 102.066406 61.472656 102.023438 61.921875 102.023438 62.378906 C 102.023438 62.835938 102.066406 63.285156 102.15625 63.730469 C 102.246094 64.179688 102.378906 64.613281 102.554688 65.03125 C 102.730469 65.453125 102.941406 65.851562 103.195312 66.230469 C 103.449219 66.609375 103.738281 66.960938 104.058594 67.28125 C 104.378906 67.601562 104.730469 67.890625 105.109375 68.144531 C 105.488281 68.398438 105.886719 68.613281 106.308594 68.785156 C 106.726562 68.960938 107.160156 69.09375 107.609375 69.183594 C 108.054688 69.273438 108.503906 69.316406 108.960938 69.320312 Z M 108.960938 58.523438 C 109.472656 58.523438 109.964844 58.621094 110.4375 58.816406 C 110.910156 59.011719 111.324219 59.292969 111.6875 59.652344 C 112.046875 60.015625 112.328125 60.433594 112.523438 60.902344 C 112.71875 61.375 112.816406 61.867188 112.816406 62.378906 C 112.816406 62.890625 112.71875 63.382812 112.523438 63.855469 C 112.328125 64.328125 112.046875 64.742188 111.6875 65.105469 C 111.324219 65.464844 110.910156 65.746094 110.4375 65.941406 C 109.964844 66.136719 109.472656 66.234375 108.960938 66.234375 C 108.449219 66.234375 107.957031 66.136719 107.484375 65.941406 C 107.011719 65.746094 106.597656 65.464844 106.234375 65.105469 C 105.875 64.742188 105.59375 64.328125 105.398438 63.855469 C 105.203125 63.382812 105.105469 62.890625 105.105469 62.378906 C 105.105469 61.867188 105.203125 61.375 105.398438 60.902344 C 105.59375 60.433594 105.875 60.015625 106.234375 59.652344 C 106.597656 59.292969 107.011719 59.011719 107.484375 58.816406 C 107.957031 58.621094 108.449219 58.523438 108.960938 58.523438 Z M 108.960938 58.523438 " fill-opacity="1" fill-rule="nonzero"/><g clip-path="url(#c40f5b3ec6)"><path fill="#2e90e5" d="M 108.960938 95.53125 C 108.757812 95.53125 108.558594 95.570312 108.371094 95.648438 C 108.183594 95.730469 108.015625 95.839844 107.871094 95.984375 C 107.726562 96.128906 107.613281 96.296875 107.535156 96.484375 C 107.457031 96.671875 107.417969 96.871094 107.417969 97.074219 L 107.417969 117.121094 C 107.417969 117.324219 107.457031 117.523438 107.535156 117.710938 C 107.613281 117.898438 107.726562 118.066406 107.871094 118.210938 C 108.015625 118.355469 108.183594 118.46875 108.371094 118.546875 C 108.558594 118.625 108.757812 118.664062 108.960938 118.664062 C 109.164062 118.664062 109.363281 118.625 109.550781 118.546875 C 109.738281 118.46875 109.90625 118.355469 110.050781 118.210938 C 110.195312 118.066406 110.308594 117.898438 110.386719 117.710938 C 110.464844 117.523438 110.503906 117.324219 110.503906 117.121094 L 110.503906 97.074219 C 110.503906 96.871094 110.464844 96.671875 110.386719 96.484375 C 110.308594 96.296875 110.195312 96.128906 110.050781 95.984375 C 109.90625 95.839844 109.738281 95.730469 109.550781 95.648438 C 109.363281 95.570312 109.164062 95.53125 108.960938 95.53125 Z M 108.960938 95.53125 " fill-opacity="1" fill-rule="nonzero"/></g><g clip-path="url(#376de0bd2d)"><path fill="#2e90e5" d="M 113.585938 70.859375 L 110.503906 70.859375 C 110.296875 70.859375 110.101562 70.898438 109.914062 70.976562 C 109.722656 71.054688 109.558594 71.167969 109.414062 71.3125 C 109.269531 71.457031 109.15625 71.625 109.078125 71.8125 C 109 72 108.960938 72.199219 108.960938 72.402344 C 108.960938 72.605469 109 72.804688 109.078125 72.992188 C 109.15625 73.179688 109.269531 73.347656 109.414062 73.492188 C 109.558594 73.636719 109.722656 73.75 109.914062 73.828125 C 110.101562 73.90625 110.296875 73.945312 110.503906 73.945312 L 113.585938 73.945312 C 113.890625 73.945312 114.191406 73.972656 114.488281 74.035156 C 114.789062 74.09375 115.078125 74.179688 115.355469 74.296875 C 115.636719 74.414062 115.90625 74.554688 116.15625 74.722656 C 116.410156 74.894531 116.644531 75.085938 116.859375 75.300781 C 117.074219 75.515625 117.265625 75.746094 117.433594 76 C 117.601562 76.253906 117.746094 76.519531 117.859375 76.800781 C 117.976562 77.082031 118.066406 77.371094 118.125 77.667969 C 118.183594 77.964844 118.214844 78.265625 118.214844 78.570312 L 118.214844 89.363281 C 118.214844 90.90625 117.71875 91.800781 116.671875 92.203125 L 116.671875 80.113281 C 116.671875 79.90625 116.632812 79.710938 116.554688 79.523438 C 116.476562 79.332031 116.363281 79.167969 116.21875 79.023438 C 116.074219 78.878906 115.90625 78.765625 115.71875 78.6875 C 115.53125 78.609375 115.332031 78.570312 115.128906 78.570312 C 114.925781 78.570312 114.726562 78.609375 114.539062 78.6875 C 114.351562 78.765625 114.183594 78.878906 114.039062 79.023438 C 113.894531 79.167969 113.78125 79.332031 113.703125 79.523438 C 113.625 79.710938 113.585938 79.90625 113.585938 80.113281 L 113.585938 117.121094 C 113.585938 117.324219 113.625 117.523438 113.703125 117.710938 C 113.78125 117.898438 113.894531 118.066406 114.039062 118.210938 C 114.183594 118.355469 114.351562 118.46875 114.539062 118.546875 C 114.726562 118.625 114.925781 118.664062 115.128906 118.664062 C 115.332031 118.664062 115.53125 118.625 115.71875 118.546875 C 115.90625 118.46875 116.074219 118.355469 116.21875 118.210938 C 116.363281 118.066406 116.476562 117.898438 116.554688 117.710938 C 116.632812 117.523438 116.671875 117.324219 116.671875 117.121094 L 116.671875 95.378906 C 117.015625 95.324219 117.351562 95.234375 117.679688 95.117188 C 118.007812 94.996094 118.324219 94.847656 118.625 94.667969 C 118.921875 94.488281 119.203125 94.285156 119.464844 94.050781 C 119.726562 93.820312 119.964844 93.566406 120.175781 93.289062 C 120.390625 93.011719 120.574219 92.71875 120.730469 92.40625 C 120.890625 92.09375 121.015625 91.769531 121.113281 91.433594 C 121.207031 91.097656 121.269531 90.757812 121.300781 90.40625 C 121.332031 90.058594 121.332031 89.710938 121.296875 89.363281 L 121.296875 78.570312 C 121.296875 78.0625 121.246094 77.5625 121.148438 77.066406 C 121.050781 76.570312 120.902344 76.085938 120.710938 75.621094 C 120.515625 75.152344 120.277344 74.707031 119.996094 74.285156 C 119.714844 73.867188 119.398438 73.476562 119.039062 73.117188 C 118.679688 72.761719 118.292969 72.441406 117.871094 72.160156 C 117.449219 71.878906 117.003906 71.640625 116.539062 71.449219 C 116.070312 71.253906 115.585938 71.105469 115.089844 71.007812 C 114.59375 70.910156 114.09375 70.859375 113.585938 70.859375 Z M 113.585938 70.859375 " fill-opacity="1" fill-rule="nonzero"/></g><g clip-path="url(#f955f4e3ad)"><path fill="#004aad" d="M 24.664062 63.347656 C 23.589844 63.347656 22.785156 62.476562 22.785156 61.402344 L 22.785156 21.402344 C 22.785156 20.328125 23.589844 19.457031 24.664062 19.457031 C 25.738281 19.457031 26.539062 20.328125 26.539062 21.402344 L 26.539062 61.402344 C 26.539062 62.476562 25.738281 63.347656 24.664062 63.347656 " fill-opacity="1" fill-rule="nonzero"/></g><g clip-path="url(#c4695f73e8)"><path fill="#004aad" d="M 26.539062 37.308594 L 49.496094 37.308594 L 49.496094 23.015625 L 26.539062 23.015625 Z M 53.539062 39.261719 C 53.539062 40.335938 52.667969 41.207031 51.597656 41.207031 L 24.730469 41.207031 C 23.65625 41.207031 22.785156 40.335938 22.785156 39.261719 L 22.785156 21.058594 C 22.785156 19.988281 23.65625 19.117188 24.730469 19.117188 L 51.597656 19.117188 C 52.667969 19.117188 53.539062 19.988281 53.539062 21.058594 L 53.539062 39.261719 " fill-opacity="1" fill-rule="nonzero"/></g><path fill="#004aad" d="M 63.960938 47.847656 L 38.058594 47.847656 C 36.988281 47.847656 36.070312 46.851562 36.070312 45.777344 L 36.070312 39.949219 C 36.070312 38.875 36.945312 38.007812 38.019531 38.007812 C 39.089844 38.007812 39.96875 38.875 39.96875 39.949219 L 39.96875 44.09375 L 60.902344 44.09375 L 58.097656 37.992188 C 57.851562 37.46875 57.851562 36.867188 58.097656 36.34375 L 60.902344 30.378906 L 52.046875 30.378906 C 50.972656 30.378906 50.101562 29.503906 50.101562 28.429688 C 50.101562 27.355469 50.972656 26.480469 52.046875 26.480469 L 63.960938 26.480469 C 64.625 26.480469 65.246094 26.757812 65.601562 27.316406 C 65.957031 27.878906 66 28.550781 65.71875 29.152344 L 62 37.050781 L 65.71875 44.957031 C 66 45.5625 65.957031 46.324219 65.601562 46.886719 C 65.246094 47.449219 64.625 47.847656 63.960938 47.847656 " fill-opacity="1" fill-rule="nonzero"/><g fill="#000000" fill-opacity="1"><g transform="translate(142.850967, 119.506323)"><g><path d="M 0 -11.375 L 0 -2.375 C 0 -1.988281 -0.191406 -1.796875 -0.578125 -1.796875 L -17.140625 -1.796875 C -17.523438 -1.796875 -17.71875 -1.988281 -17.71875 -2.375 L -17.71875 -11.375 C -17.71875 -11.738281 -17.523438 -11.921875 -17.140625 -11.921875 L -15.265625 -11.921875 C -14.878906 -11.921875 -14.6875 -11.738281 -14.6875 -11.375 L -14.6875 -5.625 C -14.6875 -5.394531 -14.582031 -5.28125 -14.375 -5.28125 L -10.796875 -5.28125 C -10.597656 -5.28125 -10.5 -5.394531 -10.5 -5.625 L -10.5 -10.328125 C -10.5 -10.710938 -10.304688 -10.90625 -9.921875 -10.90625 L -8.046875 -10.90625 C -7.660156 -10.90625 -7.46875 -10.710938 -7.46875 -10.328125 L -7.46875 -5.625 C -7.46875 -5.394531 -7.363281 -5.28125 -7.15625 -5.28125 L -3.328125 -5.28125 C -3.128906 -5.28125 -3.03125 -5.394531 -3.03125 -5.625 L -3.03125 -11.375 C -3.03125 -11.738281 -2.835938 -11.921875 -2.453125 -11.921875 L -0.578125 -11.921875 C -0.191406 -11.921875 0 -11.738281 0 -11.375 Z M 0 -11.375 "/></g></g></g><g fill="#000000" fill-opacity="1"><g transform="translate(142.850967, 106.315467)"><g><path d="M -5.15625 -9.25 L -10.71875 -9.25 C -10.914062 -9.25 -11.015625 -9.140625 -11.015625 -8.921875 L -11.015625 -6.328125 C -11.015625 -5.742188 -10.890625 -5.332031 -10.640625 -5.09375 C -10.398438 -4.851562 -9.984375 -4.734375 -9.390625 -4.734375 L -4.65625 -4.734375 C -4.070312 -4.734375 -3.65625 -4.851562 -3.40625 -5.09375 C -3.15625 -5.332031 -3.03125 -5.742188 -3.03125 -6.328125 L -3.03125 -7.328125 C -3.03125 -8.609375 -3.738281 -9.25 -5.15625 -9.25 Z M 0 -6.421875 L 0 -5.78125 C 0 -4.332031 -0.382812 -3.210938 -1.15625 -2.421875 C -1.925781 -1.628906 -3.035156 -1.234375 -4.484375 -1.234375 L -9.5625 -1.234375 C -11.007812 -1.234375 -12.117188 -1.628906 -12.890625 -2.421875 C -13.660156 -3.210938 -14.046875 -4.332031 -14.046875 -5.78125 L -14.046875 -12.140625 C -14.046875 -12.546875 -13.851562 -12.75 -13.46875 -12.75 L 3.203125 -12.75 C 3.566406 -12.75 3.75 -12.546875 3.75 -12.140625 L 3.75 -9.828125 C 3.75 -9.441406 3.566406 -9.25 3.203125 -9.25 L -1.515625 -9.25 L -1.515625 -9.140625 C -0.503906 -8.703125 0 -7.796875 0 -6.421875 Z M 0 -6.421875 "/></g></g></g><g fill="#000000" fill-opacity="1"><g transform="translate(142.850967, 92.050614)"><g><path d="M 0 -6.578125 L 0 -5.671875 C 0 -4.253906 -0.382812 -3.179688 -1.15625 -2.453125 C -1.925781 -1.734375 -3.035156 -1.375 -4.484375 -1.375 L -13.46875 -1.375 C -13.851562 -1.375 -14.046875 -1.566406 -14.046875 -1.953125 L -14.046875 -4.296875 C -14.046875 -4.679688 -13.851562 -4.875 -13.46875 -4.875 L -4.65625 -4.875 C -4.070312 -4.875 -3.65625 -5 -3.40625 -5.25 C -3.15625 -5.5 -3.03125 -5.90625 -3.03125 -6.46875 L -3.03125 -7.5 C -3.03125 -8.757812 -3.726562 -9.390625 -5.125 -9.390625 L -13.46875 -9.390625 C -13.851562 -9.390625 -14.046875 -9.582031 -14.046875 -9.96875 L -14.046875 -12.28125 C -14.046875 -12.6875 -13.851562 -12.890625 -13.46875 -12.890625 L -0.578125 -12.890625 C -0.191406 -12.890625 0 -12.6875 0 -12.28125 L 0 -9.96875 C 0 -9.582031 -0.191406 -9.390625 -0.578125 -9.390625 L -1.484375 -9.390625 L -1.484375 -9.28125 C -0.992188 -9.082031 -0.625 -8.722656 -0.375 -8.203125 C -0.125 -7.691406 0 -7.148438 0 -6.578125 Z M 0 -6.578125 "/></g></g></g><g fill="#000000" fill-opacity="1"><g transform="translate(142.850967, 77.648086)"><g><path d="M -16.421875 -1.65625 L -18.8125 -1.65625 C -19.175781 -1.65625 -19.359375 -1.835938 -19.359375 -2.203125 L -19.359375 -4.59375 C -19.359375 -4.96875 -19.1875 -5.15625 -18.84375 -5.15625 L -16.421875 -5.15625 C -16.046875 -5.15625 -15.859375 -4.96875 -15.859375 -4.59375 L -15.859375 -2.203125 C -15.859375 -1.835938 -16.046875 -1.65625 -16.421875 -1.65625 Z M -0.578125 -1.65625 L -13.46875 -1.65625 C -13.851562 -1.65625 -14.046875 -1.835938 -14.046875 -2.203125 L -14.046875 -4.578125 C -14.046875 -4.960938 -13.851562 -5.15625 -13.46875 -5.15625 L -0.578125 -5.15625 C -0.335938 -5.15625 -0.179688 -5.113281 -0.109375 -5.03125 C -0.0351562 -4.945312 0 -4.800781 0 -4.59375 L 0 -2.234375 C 0 -1.847656 -0.191406 -1.65625 -0.578125 -1.65625 Z M -0.578125 -1.65625 "/></g></g></g><g fill="#000000" fill-opacity="1"><g transform="translate(142.850967, 70.846125)"><g><path d="M 3.75 -4.4375 L 3.75 -2.09375 C 3.75 -1.707031 3.566406 -1.515625 3.203125 -1.515625 L -13.46875 -1.515625 C -13.851562 -1.515625 -14.046875 -1.707031 -14.046875 -2.09375 L -14.046875 -4.4375 C -14.046875 -4.820312 -13.851562 -5.015625 -13.46875 -5.015625 L -12.5625 -5.015625 L -12.5625 -5.125 C -13.0625 -5.320312 -13.429688 -5.675781 -13.671875 -6.1875 C -13.921875 -6.707031 -14.046875 -7.253906 -14.046875 -7.828125 L -14.046875 -8.953125 C -14.046875 -10.367188 -13.660156 -11.4375 -12.890625 -12.15625 C -12.117188 -12.882812 -11.007812 -13.25 -9.5625 -13.25 L -4.484375 -13.25 C -3.035156 -13.25 -1.925781 -12.882812 -1.15625 -12.15625 C -0.382812 -11.4375 0 -10.367188 0 -8.953125 L 0 -7.828125 C 0 -7.253906 -0.125 -6.707031 -0.375 -6.1875 C -0.625 -5.675781 -0.992188 -5.320312 -1.484375 -5.125 L -1.484375 -5.015625 L 3.203125 -5.015625 C 3.566406 -5.015625 3.75 -4.820312 3.75 -4.4375 Z M -3.03125 -6.921875 L -3.03125 -8.125 C -3.03125 -8.71875 -3.15625 -9.132812 -3.40625 -9.375 C -3.65625 -9.625 -4.070312 -9.75 -4.65625 -9.75 L -9.390625 -9.75 C -9.984375 -9.75 -10.398438 -9.625 -10.640625 -9.375 C -10.890625 -9.132812 -11.015625 -8.71875 -11.015625 -8.125 L -11.015625 -6.921875 C -11.015625 -5.648438 -10.316406 -5.015625 -8.921875 -5.015625 L -5.125 -5.015625 C -3.726562 -5.015625 -3.03125 -5.648438 -3.03125 -6.921875 Z M -3.03125 -6.921875 "/></g></g></g><g fill="#000000" fill-opacity="1"><g transform="translate(142.850967, 56.360968)"><g><path d="M 0 -8.234375 L 0 -5.78125 C 0 -4.332031 -0.382812 -3.210938 -1.15625 -2.421875 C -1.925781 -1.628906 -3.035156 -1.234375 -4.484375 -1.234375 L -9.5625 -1.234375 C -11.007812 -1.234375 -12.117188 -1.628906 -12.890625 -2.421875 C -13.660156 -3.210938 -14.046875 -4.332031 -14.046875 -5.78125 L -14.046875 -8.234375 C -14.046875 -9.671875 -13.65625 -10.785156 -12.875 -11.578125 C -12.09375 -12.378906 -10.988281 -12.78125 -9.5625 -12.78125 L -4.484375 -12.78125 C -3.054688 -12.78125 -1.953125 -12.378906 -1.171875 -11.578125 C -0.390625 -10.785156 0 -9.671875 0 -8.234375 Z M -3 -6.3125 L -3 -7.71875 C -3 -8.300781 -3.117188 -8.71875 -3.359375 -8.96875 C -3.597656 -9.21875 -4.007812 -9.34375 -4.59375 -9.34375 L -9.453125 -9.34375 C -10.035156 -9.34375 -10.445312 -9.21875 -10.6875 -8.96875 C -10.925781 -8.71875 -11.046875 -8.300781 -11.046875 -7.71875 L -11.046875 -6.3125 C -11.046875 -5.71875 -10.925781 -5.300781 -10.6875 -5.0625 C -10.445312 -4.820312 -10.035156 -4.703125 -9.453125 -4.703125 L -4.59375 -4.703125 C -4.007812 -4.703125 -3.597656 -4.820312 -3.359375 -5.0625 C -3.117188 -5.300781 -3 -5.71875 -3 -6.3125 Z M -3 -6.3125 "/></g></g></g></svg>