<svg xmlns="http://www.w3.org/2000/svg" xmlns:xlink="http://www.w3.org/1999/xlink" width="200" zoomAndPan="magnify" viewBox="0 0 150 149.999998" height="200" preserveAspectRatio="xMidYMid meet" version="1.0"><rect x="-15" width="180" fill="#ffffff" y="-15" height="179.999997" fill-opacity="1"/><rect x="-15" width="180" fill="#ffffff" y="-15" height="179.999997" fill-opacity="1"/><path fill="#000000" d="M 135 75 C 135 76.964844 134.902344 78.925781 134.710938 80.882812 C 134.519531 82.835938 134.230469 84.777344 133.847656 86.707031 C 133.464844 88.632812 132.988281 90.535156 132.417969 92.417969 C 131.847656 94.296875 131.183594 96.144531 130.433594 97.960938 C 129.679688 99.777344 128.839844 101.550781 127.914062 103.285156 C 126.988281 105.015625 125.980469 106.699219 124.886719 108.335938 C 123.796875 109.96875 122.628906 111.542969 121.378906 113.0625 C 120.132812 114.582031 118.816406 116.035156 117.425781 117.425781 C 116.035156 118.816406 114.582031 120.132812 113.0625 121.378906 C 111.542969 122.628906 109.96875 123.796875 108.335938 124.886719 C 106.699219 125.980469 105.015625 126.988281 103.285156 127.914062 C 101.550781 128.839844 99.777344 129.679688 97.960938 130.433594 C 96.144531 131.183594 94.296875 131.847656 92.417969 132.417969 C 90.535156 132.988281 88.632812 133.464844 86.707031 133.847656 C 84.777344 134.230469 82.835938 134.519531 80.882812 134.710938 C 78.925781 134.902344 76.964844 135 75 135 C 73.035156 135 71.074219 134.902344 69.117188 134.710938 C 67.164062 134.519531 65.222656 134.230469 63.292969 133.847656 C 61.367188 133.464844 59.464844 132.988281 57.582031 132.417969 C 55.703125 131.847656 53.855469 131.183594 52.039062 130.433594 C 50.222656 129.679688 48.449219 128.839844 46.714844 127.914062 C 44.984375 126.988281 43.300781 125.980469 41.664062 124.886719 C 40.03125 123.796875 38.457031 122.628906 36.9375 121.378906 C 35.417969 120.132812 33.964844 118.816406 32.574219 117.425781 C 31.183594 116.035156 29.867188 114.582031 28.621094 113.0625 C 27.371094 111.542969 26.203125 109.96875 25.113281 108.335938 C 24.019531 106.699219 23.011719 105.015625 22.085938 103.285156 C 21.160156 101.550781 20.320312 99.777344 19.566406 97.960938 C 18.816406 96.144531 18.152344 94.296875 17.582031 92.417969 C 17.011719 90.535156 16.535156 88.632812 16.152344 86.707031 C 15.769531 84.777344 15.480469 82.835938 15.289062 80.882812 C 15.097656 78.925781 15 76.964844 15 75 C 15 73.035156 15.097656 71.074219 15.289062 69.117188 C 15.480469 67.164062 15.769531 65.222656 16.152344 63.292969 C 16.535156 61.367188 17.011719 59.464844 17.582031 57.582031 C 18.152344 55.703125 18.816406 53.855469 19.566406 52.039062 C 20.320312 50.222656 21.160156 48.449219 22.085938 46.714844 C 23.011719 44.984375 24.019531 43.300781 25.113281 41.664062 C 26.203125 40.03125 27.371094 38.457031 28.621094 36.9375 C 29.867188 35.417969 31.183594 33.964844 32.574219 32.574219 C 33.964844 31.183594 35.417969 29.867188 36.9375 28.621094 C 38.457031 27.371094 40.03125 26.203125 41.664062 25.113281 C 43.300781 24.019531 44.984375 23.011719 46.714844 22.085938 C 48.449219 21.160156 50.222656 20.320312 52.039062 19.566406 C 53.855469 18.816406 55.703125 18.152344 57.582031 17.582031 C 59.464844 17.011719 61.367188 16.535156 63.292969 16.152344 C 65.222656 15.769531 67.164062 15.480469 69.117188 15.289062 C 71.074219 15.097656 73.035156 15 75 15 C 76.964844 15 78.925781 15.097656 80.882812 15.289062 C 82.835938 15.480469 84.777344 15.769531 86.707031 16.152344 C 88.632812 16.535156 90.535156 17.011719 92.417969 17.582031 C 94.296875 18.152344 96.144531 18.816406 97.960938 19.566406 C 99.777344 20.320312 101.550781 21.160156 103.285156 22.085938 C 105.015625 23.011719 106.699219 24.019531 108.335938 25.113281 C 109.96875 26.203125 111.542969 27.371094 113.0625 28.621094 C 114.582031 29.867188 116.035156 31.183594 117.425781 32.574219 C 118.816406 33.964844 120.132812 35.417969 121.378906 36.9375 C 122.628906 38.457031 123.796875 40.03125 124.886719 41.664062 C 125.980469 43.300781 126.988281 44.984375 127.914062 46.714844 C 128.839844 48.449219 129.679688 50.222656 130.433594 52.039062 C 131.183594 53.855469 131.847656 55.703125 132.417969 57.582031 C 132.988281 59.464844 133.464844 61.367188 133.847656 63.292969 C 134.230469 65.222656 134.519531 67.164062 134.710938 69.117188 C 134.902344 71.074219 135 73.035156 135 75 Z M 135 75 " fill-opacity="1" fill-rule="nonzero"/><path fill="#ffffff" d="M 92.039062 62.039062 C 92.039062 62.230469 92.003906 62.414062 91.929688 62.589844 C 91.855469 62.765625 91.753906 62.921875 91.617188 63.058594 C 91.484375 63.191406 91.328125 63.296875 91.152344 63.371094 C 90.976562 63.445312 90.789062 63.480469 90.601562 63.480469 C 90.410156 63.480469 90.226562 63.445312 90.050781 63.371094 C 89.871094 63.296875 89.714844 63.191406 89.582031 63.058594 C 89.445312 62.921875 89.34375 62.765625 89.269531 62.589844 C 89.195312 62.414062 89.160156 62.230469 89.160156 62.039062 C 89.160156 61.847656 89.195312 61.664062 89.269531 61.488281 C 89.34375 61.3125 89.445312 61.15625 89.582031 61.023438 C 89.714844 60.886719 89.871094 60.78125 90.050781 60.710938 C 90.226562 60.636719 90.410156 60.601562 90.601562 60.601562 C 90.789062 60.601562 90.976562 60.636719 91.152344 60.710938 C 91.328125 60.78125 91.484375 60.886719 91.617188 61.023438 C 91.753906 61.15625 91.855469 61.3125 91.929688 61.488281 C 92.003906 61.664062 92.039062 61.847656 92.039062 62.039062 Z M 92.039062 62.039062 " fill-opacity="1" fill-rule="nonzero"/><path fill="#ffffff" d="M 60.601562 88.800781 L 91.800781 88.800781 L 91.800781 64.800781 L 60.601562 64.800781 Z M 79.199219 78.289062 L 84.671875 76.140625 L 79.199219 74.023438 L 79.199219 71.839844 L 87 75.214844 L 87 77.085938 L 79.199219 80.496094 Z M 74.328125 80.398438 L 76.5 71.425781 C 76.613281 70.949219 76.722656 70.621094 76.828125 70.445312 C 76.929688 70.269531 77.132812 70.179688 77.433594 70.179688 C 77.695312 70.179688 77.890625 70.242188 78.03125 70.367188 C 78.167969 70.492188 78.234375 70.664062 78.234375 70.882812 C 78.234375 71.042969 78.179688 71.335938 78.074219 71.761719 L 75.890625 80.734375 C 75.820312 81.03125 75.757812 81.265625 75.703125 81.4375 C 75.648438 81.605469 75.566406 81.742188 75.453125 81.835938 C 75.34375 81.933594 75.179688 81.980469 74.96875 81.980469 C 74.4375 81.980469 74.171875 81.75 74.171875 81.296875 C 74.171875 81.175781 74.226562 80.878906 74.328125 80.398438 Z M 65.398438 75.199219 L 73.199219 71.808594 L 73.199219 74.023438 L 67.742188 76.128906 L 73.199219 78.277344 L 73.199219 80.476562 L 65.398438 77.085938 Z M 65.398438 75.199219 " fill-opacity="1" fill-rule="nonzero"/><path fill="#ffffff" d="M 75 45 C 58.429688 45 45 58.429688 45 75 C 45 91.570312 58.429688 105 75 105 C 91.570312 105 105 91.570312 105 75 C 105 58.429688 91.570312 45 75 45 Z M 94.199219 89.039062 C 94.199219 90.234375 93.234375 91.199219 92.039062 91.199219 L 60.359375 91.199219 C 59.167969 91.199219 58.199219 90.234375 58.199219 89.039062 L 58.199219 61.5625 C 58.199219 60.367188 59.167969 59.398438 60.359375 59.398438 L 92.039062 59.398438 C 93.234375 59.398438 94.199219 60.367188 94.199219 61.5625 Z M 94.199219 89.039062 " fill-opacity="1" fill-rule="nonzero"/><path fill="#ffffff" d="M 84.121094 62.039062 C 84.121094 62.230469 84.082031 62.414062 84.011719 62.589844 C 83.9375 62.765625 83.832031 62.921875 83.699219 63.058594 C 83.5625 63.191406 83.40625 63.296875 83.230469 63.371094 C 83.054688 63.445312 82.871094 63.480469 82.679688 63.480469 C 82.488281 63.480469 82.304688 63.445312 82.128906 63.371094 C 81.953125 63.296875 81.796875 63.191406 81.660156 63.058594 C 81.527344 62.921875 81.421875 62.765625 81.347656 62.589844 C 81.277344 62.414062 81.238281 62.230469 81.238281 62.039062 C 81.238281 61.847656 81.277344 61.664062 81.347656 61.488281 C 81.421875 61.3125 81.527344 61.15625 81.660156 61.023438 C 81.796875 60.886719 81.953125 60.78125 82.128906 60.710938 C 82.304688 60.636719 82.488281 60.601562 82.679688 60.601562 C 82.871094 60.601562 83.054688 60.636719 83.230469 60.710938 C 83.40625 60.78125 83.5625 60.886719 83.699219 61.023438 C 83.832031 61.15625 83.9375 61.3125 84.011719 61.488281 C 84.082031 61.664062 84.121094 61.847656 84.121094 62.039062 Z M 84.121094 62.039062 " fill-opacity="1" fill-rule="nonzero"/><path fill="#ffffff" d="M 86.640625 63.480469 C 87.433594 63.480469 88.078125 62.835938 88.078125 62.039062 C 88.078125 61.246094 87.433594 60.601562 86.640625 60.601562 C 85.847656 60.601562 85.199219 61.246094 85.199219 62.039062 C 85.199219 62.835938 85.847656 63.480469 86.640625 63.480469 Z M 86.640625 63.480469 " fill-opacity="1" fill-rule="nonzero"/></svg>