<svg xmlns="http://www.w3.org/2000/svg" xmlns:xlink="http://www.w3.org/1999/xlink" width="200"
    zoomAndPan="magnify" viewBox="0 0 150 149.999998" height="200"
    preserveAspectRatio="xMidYMid meet" version="1.0">
    <defs>
        <clipPath id="f38e9a23cb">
            <path d="M 63 94 L 87 94 L 87 107.445312 L 63 107.445312 Z M 63 94 " clip-rule="nonzero" />
        </clipPath>
        <clipPath id="8c126912ca">
            <path d="M 89 94 L 112.503906 94 L 112.503906 107.445312 L 89 107.445312 Z M 89 94 "
                clip-rule="nonzero" />
        </clipPath>
        <clipPath id="3f197a14fb">
            <path
                d="M 37.503906 94 L 60 94 L 60 107.445312 L 37.503906 107.445312 Z M 37.503906 94 "
                clip-rule="nonzero" />
        </clipPath>
        <clipPath id="1871079d36">
            <path d="M 69 32.445312 L 81 32.445312 L 81 44 L 69 44 Z M 69 32.445312 "
                clip-rule="nonzero" />
        </clipPath>
    </defs>

    <path fill="#000000"
        d="M 135 75 C 135 76.964844 134.902344 78.925781 134.710938 80.882812 C 134.519531 82.835938 134.230469 84.777344 133.847656 86.707031 C 133.464844 88.632812 132.988281 90.535156 132.417969 92.417969 C 131.847656 94.296875 131.183594 96.144531 130.433594 97.960938 C 129.679688 99.777344 128.839844 101.550781 127.914062 103.285156 C 126.988281 105.015625 125.980469 106.699219 124.886719 108.335938 C 123.796875 109.96875 122.628906 111.542969 121.378906 113.0625 C 120.132812 114.582031 118.816406 116.035156 117.425781 117.425781 C 116.035156 118.816406 114.582031 120.132812 113.0625 121.378906 C 111.542969 122.628906 109.96875 123.796875 108.335938 124.886719 C 106.699219 125.980469 105.015625 126.988281 103.285156 127.914062 C 101.550781 128.839844 99.777344 129.679688 97.960938 130.433594 C 96.144531 131.183594 94.296875 131.847656 92.417969 132.417969 C 90.535156 132.988281 88.632812 133.464844 86.707031 133.847656 C 84.777344 134.230469 82.835938 134.519531 80.882812 134.710938 C 78.925781 134.902344 76.964844 135 75 135 C 73.035156 135 71.074219 134.902344 69.117188 134.710938 C 67.164062 134.519531 65.222656 134.230469 63.292969 133.847656 C 61.367188 133.464844 59.464844 132.988281 57.582031 132.417969 C 55.703125 131.847656 53.855469 131.183594 52.039062 130.433594 C 50.222656 129.679688 48.449219 128.839844 46.714844 127.914062 C 44.984375 126.988281 43.300781 125.980469 41.664062 124.886719 C 40.03125 123.796875 38.457031 122.628906 36.9375 121.378906 C 35.417969 120.132812 33.964844 118.816406 32.574219 117.425781 C 31.183594 116.035156 29.867188 114.582031 28.621094 113.0625 C 27.371094 111.542969 26.203125 109.96875 25.113281 108.335938 C 24.019531 106.699219 23.011719 105.015625 22.085938 103.285156 C 21.160156 101.550781 20.320312 99.777344 19.566406 97.960938 C 18.816406 96.144531 18.152344 94.296875 17.582031 92.417969 C 17.011719 90.535156 16.535156 88.632812 16.152344 86.707031 C 15.769531 84.777344 15.480469 82.835938 15.289062 80.882812 C 15.097656 78.925781 15 76.964844 15 75 C 15 73.035156 15.097656 71.074219 15.289062 69.117188 C 15.480469 67.164062 15.769531 65.222656 16.152344 63.292969 C 16.535156 61.367188 17.011719 59.464844 17.582031 57.582031 C 18.152344 55.703125 18.816406 53.855469 19.566406 52.039062 C 20.320312 50.222656 21.160156 48.449219 22.085938 46.714844 C 23.011719 44.984375 24.019531 43.300781 25.113281 41.664062 C 26.203125 40.03125 27.371094 38.457031 28.621094 36.9375 C 29.867188 35.417969 31.183594 33.964844 32.574219 32.574219 C 33.964844 31.183594 35.417969 29.867188 36.9375 28.621094 C 38.457031 27.371094 40.03125 26.203125 41.664062 25.113281 C 43.300781 24.019531 44.984375 23.011719 46.714844 22.085938 C 48.449219 21.160156 50.222656 20.320312 52.039062 19.566406 C 53.855469 18.816406 55.703125 18.152344 57.582031 17.582031 C 59.464844 17.011719 61.367188 16.535156 63.292969 16.152344 C 65.222656 15.769531 67.164062 15.480469 69.117188 15.289062 C 71.074219 15.097656 73.035156 15 75 15 C 76.964844 15 78.925781 15.097656 80.882812 15.289062 C 82.835938 15.480469 84.777344 15.769531 86.707031 16.152344 C 88.632812 16.535156 90.535156 17.011719 92.417969 17.582031 C 94.296875 18.152344 96.144531 18.816406 97.960938 19.566406 C 99.777344 20.320312 101.550781 21.160156 103.285156 22.085938 C 105.015625 23.011719 106.699219 24.019531 108.335938 25.113281 C 109.96875 26.203125 111.542969 27.371094 113.0625 28.621094 C 114.582031 29.867188 116.035156 31.183594 117.425781 32.574219 C 118.816406 33.964844 120.132812 35.417969 121.378906 36.9375 C 122.628906 38.457031 123.796875 40.03125 124.886719 41.664062 C 125.980469 43.300781 126.988281 44.984375 127.914062 46.714844 C 128.839844 48.449219 129.679688 50.222656 130.433594 52.039062 C 131.183594 53.855469 131.847656 55.703125 132.417969 57.582031 C 132.988281 59.464844 133.464844 61.367188 133.847656 63.292969 C 134.230469 65.222656 134.519531 67.164062 134.710938 69.117188 C 134.902344 71.074219 135 73.035156 135 75 Z M 135 75 "
        fill-opacity="1" fill-rule="nonzero" />
    <path fill="#ffffff"
        d="M 50.625 77.625 L 50.625 73.6875 C 50.625 72.65625 51.460938 71.8125 52.5 71.8125 L 73.121094 71.8125 L 73.121094 77.625 C 73.722656 77.503906 74.351562 77.4375 74.996094 77.4375 C 75.632812 77.4375 76.261719 77.503906 76.871094 77.625 L 76.871094 71.8125 L 98.429688 71.8125 C 99.460938 71.8125 100.304688 72.65625 100.304688 73.6875 L 100.304688 77.625 C 100.90625 77.503906 101.535156 77.4375 102.179688 77.4375 C 102.816406 77.4375 103.445312 77.503906 104.054688 77.625 L 104.054688 73.6875 C 104.054688 70.585938 101.523438 68.0625 98.429688 68.0625 L 76.871094 68.0625 L 76.871094 62.4375 L 73.121094 62.4375 L 73.121094 68.0625 L 52.5 68.0625 C 49.398438 68.0625 46.875 70.585938 46.875 73.6875 L 46.875 77.625 C 47.476562 77.503906 48.105469 77.4375 48.75 77.4375 C 49.390625 77.4375 50.015625 77.503906 50.625 77.625 Z M 50.625 77.625 "
        fill-opacity="1" fill-rule="nonzero" />
    <g clip-path="url(#f38e9a23cb)">
        <path fill="#ffffff"
            d="M 80.347656 94.488281 C 78.832031 95.554688 76.984375 96.183594 74.996094 96.183594 C 73 96.183594 71.152344 95.554688 69.636719 94.488281 C 66.269531 95.226562 63.75 98.226562 63.75 101.808594 L 63.75 105.558594 C 63.75 106.589844 64.582031 107.433594 65.625 107.433594 L 84.371094 107.433594 C 85.402344 107.433594 86.246094 106.589844 86.246094 105.558594 L 86.246094 101.808594 C 86.246094 98.226562 83.714844 95.226562 80.347656 94.488281 Z M 80.347656 94.488281 "
            fill-opacity="1" fill-rule="nonzero" />
    </g>
    <g clip-path="url(#8c126912ca)">
        <path fill="#ffffff"
            d="M 107.269531 94.664062 C 105.796875 95.621094 104.054688 96.183594 102.179688 96.183594 C 100.109375 96.183594 98.195312 95.5 96.640625 94.355469 C 92.910156 94.777344 89.996094 97.957031 89.996094 101.808594 L 89.996094 105.558594 C 89.996094 106.589844 90.828125 107.433594 91.871094 107.433594 L 110.617188 107.433594 C 111.648438 107.433594 112.492188 106.589844 112.492188 105.558594 L 112.492188 101.808594 C 112.492188 98.472656 110.289062 95.628906 107.269531 94.664062 Z M 107.269531 94.664062 "
            fill-opacity="1" fill-rule="nonzero" />
    </g>
    <g clip-path="url(#3f197a14fb)">
        <path fill="#ffffff"
            d="M 54.105469 94.488281 C 52.585938 95.554688 50.738281 96.183594 48.75 96.183594 C 46.753906 96.183594 44.90625 95.554688 43.390625 94.488281 C 40.023438 95.226562 37.503906 98.226562 37.503906 101.808594 L 37.503906 105.558594 C 37.503906 106.589844 38.335938 107.433594 39.378906 107.433594 L 58.125 107.433594 C 59.15625 107.433594 60 106.589844 60 105.558594 L 60 101.808594 C 60 98.226562 57.46875 95.226562 54.105469 94.488281 Z M 54.105469 94.488281 "
            fill-opacity="1" fill-rule="nonzero" />
    </g>
    <path fill="#ffffff"
        d="M 80.621094 86.808594 C 80.621094 87.179688 80.585938 87.546875 80.511719 87.90625 C 80.441406 88.269531 80.335938 88.621094 80.191406 88.960938 C 80.050781 89.304688 79.878906 89.628906 79.671875 89.933594 C 79.46875 90.242188 79.234375 90.527344 78.972656 90.785156 C 78.714844 91.046875 78.429688 91.28125 78.121094 91.488281 C 77.816406 91.691406 77.492188 91.863281 77.148438 92.007812 C 76.808594 92.148438 76.457031 92.253906 76.09375 92.324219 C 75.730469 92.398438 75.367188 92.433594 74.996094 92.433594 C 74.628906 92.433594 74.261719 92.398438 73.898438 92.324219 C 73.539062 92.253906 73.1875 92.148438 72.84375 92.007812 C 72.503906 91.863281 72.179688 91.691406 71.871094 91.488281 C 71.566406 91.28125 71.28125 91.046875 71.019531 90.785156 C 70.757812 90.527344 70.527344 90.242188 70.320312 89.933594 C 70.117188 89.628906 69.941406 89.304688 69.800781 88.960938 C 69.660156 88.621094 69.554688 88.269531 69.480469 87.90625 C 69.410156 87.546875 69.375 87.179688 69.375 86.808594 C 69.375 86.441406 69.410156 86.074219 69.480469 85.710938 C 69.554688 85.351562 69.660156 85 69.800781 84.65625 C 69.941406 84.316406 70.117188 83.992188 70.320312 83.683594 C 70.527344 83.378906 70.757812 83.09375 71.019531 82.832031 C 71.28125 82.570312 71.566406 82.339844 71.871094 82.132812 C 72.179688 81.929688 72.503906 81.753906 72.84375 81.613281 C 73.1875 81.472656 73.539062 81.367188 73.898438 81.292969 C 74.261719 81.222656 74.628906 81.1875 74.996094 81.1875 C 75.367188 81.1875 75.730469 81.222656 76.09375 81.292969 C 76.457031 81.367188 76.808594 81.472656 77.148438 81.613281 C 77.492188 81.753906 77.816406 81.929688 78.121094 82.132812 C 78.429688 82.339844 78.714844 82.570312 78.972656 82.832031 C 79.234375 83.09375 79.46875 83.378906 79.671875 83.683594 C 79.878906 83.992188 80.050781 84.316406 80.191406 84.65625 C 80.335938 85 80.441406 85.351562 80.511719 85.710938 C 80.585938 86.074219 80.621094 86.441406 80.621094 86.808594 Z M 80.621094 86.808594 "
        fill-opacity="1" fill-rule="nonzero" />
    <path fill="#ffffff"
        d="M 65.625 58.691406 L 84.371094 58.691406 C 85.402344 58.691406 86.246094 57.847656 86.246094 56.816406 L 86.246094 53.066406 C 86.246094 49.484375 83.714844 46.484375 80.347656 45.746094 C 78.832031 46.8125 76.984375 47.441406 74.996094 47.441406 C 73 47.441406 71.152344 46.8125 69.636719 45.746094 C 66.269531 46.484375 63.75 49.484375 63.75 53.066406 L 63.75 56.816406 C 63.75 57.847656 64.582031 58.691406 65.625 58.691406 Z M 65.625 58.691406 "
        fill-opacity="1" fill-rule="nonzero" />
    <g clip-path="url(#1871079d36)">
        <path fill="#ffffff"
            d="M 80.621094 38.066406 C 80.621094 38.4375 80.585938 38.804688 80.511719 39.164062 C 80.441406 39.527344 80.335938 39.878906 80.191406 40.21875 C 80.050781 40.5625 79.878906 40.886719 79.671875 41.191406 C 79.46875 41.5 79.234375 41.785156 78.972656 42.042969 C 78.714844 42.304688 78.429688 42.539062 78.121094 42.742188 C 77.816406 42.949219 77.492188 43.121094 77.148438 43.265625 C 76.808594 43.40625 76.457031 43.511719 76.09375 43.582031 C 75.730469 43.65625 75.367188 43.691406 74.996094 43.691406 C 74.628906 43.691406 74.261719 43.65625 73.898438 43.582031 C 73.539062 43.511719 73.1875 43.40625 72.84375 43.265625 C 72.503906 43.121094 72.179688 42.949219 71.871094 42.742188 C 71.566406 42.539062 71.28125 42.304688 71.019531 42.042969 C 70.757812 41.785156 70.527344 41.5 70.320312 41.191406 C 70.117188 40.886719 69.941406 40.5625 69.800781 40.21875 C 69.660156 39.878906 69.554688 39.527344 69.480469 39.164062 C 69.410156 38.804688 69.375 38.4375 69.375 38.066406 C 69.375 37.699219 69.410156 37.332031 69.480469 36.96875 C 69.554688 36.609375 69.660156 36.257812 69.800781 35.914062 C 69.941406 35.574219 70.117188 35.25 70.320312 34.941406 C 70.527344 34.636719 70.757812 34.351562 71.019531 34.089844 C 71.28125 33.828125 71.566406 33.597656 71.871094 33.390625 C 72.179688 33.1875 72.503906 33.011719 72.84375 32.871094 C 73.1875 32.730469 73.539062 32.625 73.898438 32.550781 C 74.261719 32.480469 74.628906 32.445312 74.996094 32.445312 C 75.367188 32.445312 75.730469 32.480469 76.09375 32.550781 C 76.457031 32.625 76.808594 32.730469 77.148438 32.871094 C 77.492188 33.011719 77.816406 33.1875 78.121094 33.390625 C 78.429688 33.597656 78.714844 33.828125 78.972656 34.089844 C 79.234375 34.351562 79.46875 34.636719 79.671875 34.941406 C 79.878906 35.25 80.050781 35.574219 80.191406 35.914062 C 80.335938 36.257812 80.441406 36.609375 80.511719 36.96875 C 80.585938 37.332031 80.621094 37.699219 80.621094 38.066406 Z M 80.621094 38.066406 "
            fill-opacity="1" fill-rule="nonzero" />
    </g>
    <path fill="#ffffff"
        d="M 107.804688 86.808594 C 107.804688 87.179688 107.769531 87.546875 107.695312 87.90625 C 107.625 88.269531 107.519531 88.621094 107.375 88.960938 C 107.234375 89.304688 107.0625 89.628906 106.855469 89.933594 C 106.652344 90.242188 106.417969 90.527344 106.15625 90.785156 C 105.894531 91.046875 105.613281 91.28125 105.304688 91.488281 C 104.996094 91.691406 104.675781 91.863281 104.332031 92.007812 C 103.992188 92.148438 103.640625 92.253906 103.277344 92.324219 C 102.914062 92.398438 102.550781 92.433594 102.179688 92.433594 C 101.8125 92.433594 101.445312 92.398438 101.082031 92.324219 C 100.722656 92.253906 100.371094 92.148438 100.027344 92.007812 C 99.6875 91.863281 99.363281 91.691406 99.054688 91.488281 C 98.75 91.28125 98.464844 91.046875 98.203125 90.785156 C 97.941406 90.527344 97.710938 90.242188 97.503906 89.933594 C 97.300781 89.628906 97.125 89.304688 96.984375 88.960938 C 96.84375 88.621094 96.738281 88.269531 96.664062 87.90625 C 96.59375 87.546875 96.554688 87.179688 96.554688 86.808594 C 96.554688 86.441406 96.59375 86.074219 96.664062 85.710938 C 96.738281 85.351562 96.84375 85 96.984375 84.65625 C 97.125 84.316406 97.300781 83.992188 97.503906 83.683594 C 97.710938 83.378906 97.941406 83.09375 98.203125 82.832031 C 98.464844 82.570312 98.75 82.339844 99.054688 82.132812 C 99.363281 81.929688 99.6875 81.753906 100.027344 81.613281 C 100.371094 81.472656 100.722656 81.367188 101.082031 81.292969 C 101.445312 81.222656 101.8125 81.1875 102.179688 81.1875 C 102.550781 81.1875 102.914062 81.222656 103.277344 81.292969 C 103.640625 81.367188 103.992188 81.472656 104.332031 81.613281 C 104.675781 81.753906 104.996094 81.929688 105.304688 82.132812 C 105.613281 82.339844 105.894531 82.570312 106.15625 82.832031 C 106.417969 83.09375 106.652344 83.378906 106.855469 83.683594 C 107.0625 83.992188 107.234375 84.316406 107.375 84.65625 C 107.519531 85 107.625 85.351562 107.695312 85.710938 C 107.769531 86.074219 107.804688 86.441406 107.804688 86.808594 Z M 107.804688 86.808594 "
        fill-opacity="1" fill-rule="nonzero" />
    <path fill="#ffffff"
        d="M 54.375 86.808594 C 54.375 87.179688 54.339844 87.546875 54.265625 87.90625 C 54.195312 88.269531 54.089844 88.621094 53.949219 88.960938 C 53.804688 89.304688 53.632812 89.628906 53.425781 89.933594 C 53.222656 90.242188 52.988281 90.527344 52.726562 90.785156 C 52.46875 91.046875 52.183594 91.28125 51.875 91.488281 C 51.570312 91.691406 51.246094 91.863281 50.902344 92.007812 C 50.5625 92.148438 50.210938 92.253906 49.847656 92.324219 C 49.488281 92.398438 49.121094 92.433594 48.75 92.433594 C 48.382812 92.433594 48.015625 92.398438 47.652344 92.324219 C 47.292969 92.253906 46.941406 92.148438 46.597656 92.007812 C 46.257812 91.863281 45.933594 91.691406 45.625 91.488281 C 45.320312 91.28125 45.035156 91.046875 44.773438 90.785156 C 44.511719 90.527344 44.28125 90.242188 44.074219 89.933594 C 43.871094 89.628906 43.695312 89.304688 43.554688 88.960938 C 43.414062 88.621094 43.308594 88.269531 43.234375 87.90625 C 43.164062 87.546875 43.128906 87.179688 43.128906 86.808594 C 43.128906 86.441406 43.164062 86.074219 43.234375 85.710938 C 43.308594 85.351562 43.414062 85 43.554688 84.65625 C 43.695312 84.316406 43.871094 83.992188 44.074219 83.683594 C 44.28125 83.378906 44.511719 83.09375 44.773438 82.832031 C 45.035156 82.570312 45.320312 82.339844 45.625 82.132812 C 45.933594 81.929688 46.257812 81.753906 46.597656 81.613281 C 46.941406 81.472656 47.292969 81.367188 47.652344 81.292969 C 48.015625 81.222656 48.382812 81.1875 48.75 81.1875 C 49.121094 81.1875 49.488281 81.222656 49.847656 81.292969 C 50.210938 81.367188 50.5625 81.472656 50.902344 81.613281 C 51.246094 81.753906 51.570312 81.929688 51.875 82.132812 C 52.183594 82.339844 52.46875 82.570312 52.726562 82.832031 C 52.988281 83.09375 53.222656 83.378906 53.425781 83.683594 C 53.632812 83.992188 53.804688 84.316406 53.949219 84.65625 C 54.089844 85 54.195312 85.351562 54.265625 85.710938 C 54.339844 86.074219 54.375 86.441406 54.375 86.808594 Z M 54.375 86.808594 "
        fill-opacity="1" fill-rule="nonzero" />
</svg>