<svg xmlns="http://www.w3.org/2000/svg" xmlns:xlink="http://www.w3.org/1999/xlink" width="200"
    zoomAndPan="magnify" viewBox="0 0 150 149.999998" height="200"
    preserveAspectRatio="xMidYMid meet" version="1.0">
    <defs>
        <clipPath id="7f585c9157">
            <path
                d="M 35.558594 31.78125 L 114.308594 31.78125 L 114.308594 110.53125 L 35.558594 110.53125 Z M 35.558594 31.78125 "
                clip-rule="nonzero" />
        </clipPath>
    </defs>

    <path fill="#000000"
        d="M 135 75 C 135 76.964844 134.902344 78.925781 134.710938 80.882812 C 134.519531 82.835938 134.230469 84.777344 133.847656 86.707031 C 133.464844 88.632812 132.988281 90.535156 132.417969 92.417969 C 131.847656 94.296875 131.183594 96.144531 130.433594 97.960938 C 129.679688 99.777344 128.839844 101.550781 127.914062 103.285156 C 126.988281 105.015625 125.980469 106.699219 124.886719 108.335938 C 123.796875 109.96875 122.628906 111.542969 121.378906 113.0625 C 120.132812 114.582031 118.816406 116.035156 117.425781 117.425781 C 116.035156 118.816406 114.582031 120.132812 113.0625 121.378906 C 111.542969 122.628906 109.96875 123.796875 108.335938 124.886719 C 106.699219 125.980469 105.015625 126.988281 103.285156 127.914062 C 101.550781 128.839844 99.777344 129.679688 97.960938 130.433594 C 96.144531 131.183594 94.296875 131.847656 92.417969 132.417969 C 90.535156 132.988281 88.632812 133.464844 86.707031 133.847656 C 84.777344 134.230469 82.835938 134.519531 80.882812 134.710938 C 78.925781 134.902344 76.964844 135 75 135 C 73.035156 135 71.074219 134.902344 69.117188 134.710938 C 67.164062 134.519531 65.222656 134.230469 63.292969 133.847656 C 61.367188 133.464844 59.464844 132.988281 57.582031 132.417969 C 55.703125 131.847656 53.855469 131.183594 52.039062 130.433594 C 50.222656 129.679688 48.449219 128.839844 46.714844 127.914062 C 44.984375 126.988281 43.300781 125.980469 41.664062 124.886719 C 40.03125 123.796875 38.457031 122.628906 36.9375 121.378906 C 35.417969 120.132812 33.964844 118.816406 32.574219 117.425781 C 31.183594 116.035156 29.867188 114.582031 28.621094 113.0625 C 27.371094 111.542969 26.203125 109.96875 25.113281 108.335938 C 24.019531 106.699219 23.011719 105.015625 22.085938 103.285156 C 21.160156 101.550781 20.320312 99.777344 19.566406 97.960938 C 18.816406 96.144531 18.152344 94.296875 17.582031 92.417969 C 17.011719 90.535156 16.535156 88.632812 16.152344 86.707031 C 15.769531 84.777344 15.480469 82.835938 15.289062 80.882812 C 15.097656 78.925781 15 76.964844 15 75 C 15 73.035156 15.097656 71.074219 15.289062 69.117188 C 15.480469 67.164062 15.769531 65.222656 16.152344 63.292969 C 16.535156 61.367188 17.011719 59.464844 17.582031 57.582031 C 18.152344 55.703125 18.816406 53.855469 19.566406 52.039062 C 20.320312 50.222656 21.160156 48.449219 22.085938 46.714844 C 23.011719 44.984375 24.019531 43.300781 25.113281 41.664062 C 26.203125 40.03125 27.371094 38.457031 28.621094 36.9375 C 29.867188 35.417969 31.183594 33.964844 32.574219 32.574219 C 33.964844 31.183594 35.417969 29.867188 36.9375 28.621094 C 38.457031 27.371094 40.03125 26.203125 41.664062 25.113281 C 43.300781 24.019531 44.984375 23.011719 46.714844 22.085938 C 48.449219 21.160156 50.222656 20.320312 52.039062 19.566406 C 53.855469 18.816406 55.703125 18.152344 57.582031 17.582031 C 59.464844 17.011719 61.367188 16.535156 63.292969 16.152344 C 65.222656 15.769531 67.164062 15.480469 69.117188 15.289062 C 71.074219 15.097656 73.035156 15 75 15 C 76.964844 15 78.925781 15.097656 80.882812 15.289062 C 82.835938 15.480469 84.777344 15.769531 86.707031 16.152344 C 88.632812 16.535156 90.535156 17.011719 92.417969 17.582031 C 94.296875 18.152344 96.144531 18.816406 97.960938 19.566406 C 99.777344 20.320312 101.550781 21.160156 103.285156 22.085938 C 105.015625 23.011719 106.699219 24.019531 108.335938 25.113281 C 109.96875 26.203125 111.542969 27.371094 113.0625 28.621094 C 114.582031 29.867188 116.035156 31.183594 117.425781 32.574219 C 118.816406 33.964844 120.132812 35.417969 121.378906 36.9375 C 122.628906 38.457031 123.796875 40.03125 124.886719 41.664062 C 125.980469 43.300781 126.988281 44.984375 127.914062 46.714844 C 128.839844 48.449219 129.679688 50.222656 130.433594 52.039062 C 131.183594 53.855469 131.847656 55.703125 132.417969 57.582031 C 132.988281 59.464844 133.464844 61.367188 133.847656 63.292969 C 134.230469 65.222656 134.519531 67.164062 134.710938 69.117188 C 134.902344 71.074219 135 73.035156 135 75 Z M 135 75 "
        fill-opacity="1" fill-rule="nonzero" />
    <g clip-path="url(#7f585c9157)">
        <path fill="#ffffff"
            d="M 73.453125 31.78125 L 73.453125 42.070312 L 80.3125 42.070312 L 80.3125 31.78125 Z M 50.210938 41.414062 L 45.363281 46.265625 L 52.636719 53.539062 L 57.484375 48.6875 Z M 94.292969 42.070312 C 93.851562 42.070312 93.480469 42.402344 93.429688 42.839844 L 93.027344 46.3125 C 91.371094 46.886719 89.871094 47.765625 88.574219 48.890625 L 85.355469 47.503906 C 84.953125 47.328125 84.476562 47.480469 84.257812 47.863281 L 81.050781 53.425781 C 80.828125 53.804688 80.929688 54.292969 81.285156 54.554688 L 84.050781 56.613281 C 83.886719 57.457031 83.789062 58.328125 83.789062 59.21875 C 83.789062 60.109375 83.886719 60.980469 84.050781 61.824219 L 81.285156 63.878906 C 80.929688 64.140625 80.832031 64.628906 81.050781 65.011719 L 84.257812 70.570312 C 84.476562 70.957031 84.953125 71.117188 85.355469 70.941406 L 88.574219 69.546875 C 89.871094 70.671875 91.371094 71.550781 93.027344 72.125 L 93.429688 75.597656 C 93.480469 76.035156 93.851562 76.367188 94.292969 76.367188 L 100.714844 76.367188 C 101.160156 76.367188 101.527344 76.035156 101.582031 75.597656 L 101.980469 72.125 C 103.640625 71.550781 105.144531 70.671875 106.445312 69.546875 L 109.652344 70.925781 C 110.054688 71.101562 110.53125 70.949219 110.75 70.566406 L 113.957031 65.007812 C 114.183594 64.625 114.078125 64.136719 113.722656 63.875 L 110.957031 61.824219 C 111.121094 60.980469 111.226562 60.109375 111.226562 59.21875 C 111.226562 58.328125 111.121094 57.457031 110.957031 56.613281 L 113.722656 54.554688 C 114.078125 54.296875 114.179688 53.808594 113.957031 53.425781 L 110.75 47.863281 C 110.53125 47.480469 110.054688 47.320312 109.652344 47.496094 L 106.445312 48.890625 C 105.144531 47.765625 103.640625 46.886719 101.980469 46.3125 L 101.582031 42.839844 C 101.527344 42.402344 101.160156 42.070312 100.714844 42.070312 Z M 75.773438 48.992188 C 63.050781 49.578125 52.878906 60.074219 52.878906 72.9375 C 52.878906 82.246094 58.300781 90.667969 66.59375 94.605469 L 66.59375 103.800781 C 66.59375 107.585938 69.671875 110.660156 73.453125 110.660156 L 80.3125 110.660156 C 84.097656 110.660156 87.171875 107.585938 87.171875 103.800781 L 87.171875 94.605469 C 92.246094 92.199219 96.21875 88.101562 98.558594 83.164062 C 98.191406 83.183594 97.832031 83.226562 97.460938 83.226562 C 84.203125 83.226562 73.453125 72.476562 73.453125 59.21875 C 73.453125 55.550781 74.300781 52.097656 75.773438 48.992188 Z M 97.507812 53.21875 C 100.820312 53.21875 103.507812 55.90625 103.507812 59.21875 C 103.507812 62.535156 100.820312 65.21875 97.507812 65.21875 C 94.195312 65.21875 91.507812 62.535156 91.507812 59.21875 C 91.507812 55.90625 94.195312 53.21875 97.507812 53.21875 Z M 35.730469 69.507812 L 35.730469 76.367188 L 46.019531 76.367188 L 46.019531 69.507812 Z M 52.636719 92.335938 L 45.363281 99.609375 L 50.210938 104.457031 L 57.484375 97.183594 Z M 101.132812 92.335938 L 96.28125 97.183594 L 103.554688 104.457031 L 108.40625 99.609375 Z M 101.132812 92.335938 "
            fill-opacity="1" fill-rule="nonzero" />
    </g>
</svg>