<svg xmlns="http://www.w3.org/2000/svg" xmlns:xlink="http://www.w3.org/1999/xlink" width="200"
    zoomAndPan="magnify" viewBox="0 0 150 149.999998" height="200"
    preserveAspectRatio="xMidYMid meet" version="1.0">
    <defs>
        <clipPath id="7931512501">
            <path
                d="M 46.332031 39.300781 L 100 39.300781 L 100 110.550781 L 46.332031 110.550781 Z M 46.332031 39.300781 "
                clip-rule="nonzero" />
        </clipPath>
        <clipPath id="ad54f30766">
            <path d="M 65 47 L 117.582031 47 L 117.582031 101 L 65 101 Z M 65 47 "
                clip-rule="nonzero" />
        </clipPath>
    </defs>

    <path fill="#000000"
        d="M 135 75 C 135 76.964844 134.902344 78.925781 134.710938 80.882812 C 134.519531 82.835938 134.230469 84.777344 133.847656 86.707031 C 133.464844 88.632812 132.988281 90.535156 132.417969 92.417969 C 131.847656 94.296875 131.183594 96.144531 130.433594 97.960938 C 129.679688 99.777344 128.839844 101.550781 127.914062 103.285156 C 126.988281 105.015625 125.980469 106.699219 124.886719 108.335938 C 123.796875 109.96875 122.628906 111.542969 121.378906 113.0625 C 120.132812 114.582031 118.816406 116.035156 117.425781 117.425781 C 116.035156 118.816406 114.582031 120.132812 113.0625 121.378906 C 111.542969 122.628906 109.96875 123.796875 108.335938 124.886719 C 106.699219 125.980469 105.015625 126.988281 103.285156 127.914062 C 101.550781 128.839844 99.777344 129.679688 97.960938 130.433594 C 96.144531 131.183594 94.296875 131.847656 92.417969 132.417969 C 90.535156 132.988281 88.632812 133.464844 86.707031 133.847656 C 84.777344 134.230469 82.835938 134.519531 80.882812 134.710938 C 78.925781 134.902344 76.964844 135 75 135 C 73.035156 135 71.074219 134.902344 69.117188 134.710938 C 67.164062 134.519531 65.222656 134.230469 63.292969 133.847656 C 61.367188 133.464844 59.464844 132.988281 57.582031 132.417969 C 55.703125 131.847656 53.855469 131.183594 52.039062 130.433594 C 50.222656 129.679688 48.449219 128.839844 46.714844 127.914062 C 44.984375 126.988281 43.300781 125.980469 41.664062 124.886719 C 40.03125 123.796875 38.457031 122.628906 36.9375 121.378906 C 35.417969 120.132812 33.964844 118.816406 32.574219 117.425781 C 31.183594 116.035156 29.867188 114.582031 28.621094 113.0625 C 27.371094 111.542969 26.203125 109.96875 25.113281 108.335938 C 24.019531 106.699219 23.011719 105.015625 22.085938 103.285156 C 21.160156 101.550781 20.320312 99.777344 19.566406 97.960938 C 18.816406 96.144531 18.152344 94.296875 17.582031 92.417969 C 17.011719 90.535156 16.535156 88.632812 16.152344 86.707031 C 15.769531 84.777344 15.480469 82.835938 15.289062 80.882812 C 15.097656 78.925781 15 76.964844 15 75 C 15 73.035156 15.097656 71.074219 15.289062 69.117188 C 15.480469 67.164062 15.769531 65.222656 16.152344 63.292969 C 16.535156 61.367188 17.011719 59.464844 17.582031 57.582031 C 18.152344 55.703125 18.816406 53.855469 19.566406 52.039062 C 20.320312 50.222656 21.160156 48.449219 22.085938 46.714844 C 23.011719 44.984375 24.019531 43.300781 25.113281 41.664062 C 26.203125 40.03125 27.371094 38.457031 28.621094 36.9375 C 29.867188 35.417969 31.183594 33.964844 32.574219 32.574219 C 33.964844 31.183594 35.417969 29.867188 36.9375 28.621094 C 38.457031 27.371094 40.03125 26.203125 41.664062 25.113281 C 43.300781 24.019531 44.984375 23.011719 46.714844 22.085938 C 48.449219 21.160156 50.222656 20.320312 52.039062 19.566406 C 53.855469 18.816406 55.703125 18.152344 57.582031 17.582031 C 59.464844 17.011719 61.367188 16.535156 63.292969 16.152344 C 65.222656 15.769531 67.164062 15.480469 69.117188 15.289062 C 71.074219 15.097656 73.035156 15 75 15 C 76.964844 15 78.925781 15.097656 80.882812 15.289062 C 82.835938 15.480469 84.777344 15.769531 86.707031 16.152344 C 88.632812 16.535156 90.535156 17.011719 92.417969 17.582031 C 94.296875 18.152344 96.144531 18.816406 97.960938 19.566406 C 99.777344 20.320312 101.550781 21.160156 103.285156 22.085938 C 105.015625 23.011719 106.699219 24.019531 108.335938 25.113281 C 109.96875 26.203125 111.542969 27.371094 113.0625 28.621094 C 114.582031 29.867188 116.035156 31.183594 117.425781 32.574219 C 118.816406 33.964844 120.132812 35.417969 121.378906 36.9375 C 122.628906 38.457031 123.796875 40.03125 124.886719 41.664062 C 125.980469 43.300781 126.988281 44.984375 127.914062 46.714844 C 128.839844 48.449219 129.679688 50.222656 130.433594 52.039062 C 131.183594 53.855469 131.847656 55.703125 132.417969 57.582031 C 132.988281 59.464844 133.464844 61.367188 133.847656 63.292969 C 134.230469 65.222656 134.519531 67.164062 134.710938 69.117188 C 134.902344 71.074219 135 73.035156 135 75 Z M 135 75 "
        fill-opacity="1" fill-rule="nonzero" />
    <path fill="#ffffff"
        d="M 61.84375 71.628906 C 61.433594 71.300781 60.773438 71.382812 60.363281 71.792969 L 56.917969 76.0625 L 55.851562 75.078125 C 55.441406 74.667969 54.785156 74.667969 54.375 75.078125 C 53.964844 75.488281 53.964844 76.144531 54.375 76.554688 C 54.375 76.554688 56.34375 78.359375 56.34375 78.359375 C 56.835938 78.769531 57.574219 78.605469 57.820312 78.277344 L 61.925781 73.105469 C 62.335938 72.613281 62.5 72.121094 61.84375 71.628906 Z M 61.84375 71.628906 "
        fill-opacity="1" fill-rule="nonzero" />
    <g clip-path="url(#7931512501)">
        <path fill="#ffffff"
            d="M 98.113281 81.476562 C 97.539062 81.476562 97.128906 81.96875 97.128906 82.460938 L 97.128906 108.636719 L 48.464844 108.636719 L 48.464844 41.351562 L 82.355469 41.351562 L 82.355469 54.972656 C 82.355469 55.546875 82.765625 56.039062 83.339844 56.039062 L 96.964844 56.039062 L 96.964844 57.351562 C 96.964844 57.925781 97.457031 58.335938 97.949219 58.335938 C 98.441406 58.335938 98.933594 57.84375 98.933594 57.351562 L 98.933594 54.972656 C 98.933594 54.726562 98.851562 54.480469 98.605469 54.234375 L 84.160156 39.628906 C 83.996094 39.382812 83.667969 39.300781 83.421875 39.300781 L 47.480469 39.300781 C 46.90625 39.300781 46.496094 39.792969 46.496094 40.285156 L 46.496094 109.707031 C 46.496094 110.28125 46.988281 110.691406 47.480469 110.691406 L 98.113281 110.691406 C 98.6875 110.691406 99.097656 110.199219 99.097656 109.707031 L 99.097656 82.460938 C 99.097656 81.886719 98.6875 81.476562 98.113281 81.476562 Z M 98.113281 81.476562 "
            fill-opacity="1" fill-rule="nonzero" />
    </g>
    <path fill="#ffffff"
        d="M 91.875 60.550781 C 91.875 59.976562 91.382812 59.566406 90.890625 59.566406 L 66.4375 59.566406 C 65.863281 59.566406 65.453125 60.058594 65.453125 60.550781 C 65.453125 61.042969 65.945312 61.535156 66.4375 61.535156 L 90.890625 61.535156 C 91.464844 61.617188 91.875 61.125 91.875 60.550781 Z M 91.875 60.550781 "
        fill-opacity="1" fill-rule="nonzero" />
    <path fill="#ffffff"
        d="M 66.4375 64.820312 C 65.863281 64.820312 65.453125 65.3125 65.453125 65.804688 C 65.453125 66.296875 65.945312 66.789062 66.4375 66.789062 L 83.996094 66.789062 C 84.570312 66.789062 84.984375 66.296875 84.984375 65.804688 C 84.984375 65.3125 84.570312 64.820312 83.996094 64.820312 Z M 66.4375 64.820312 "
        fill-opacity="1" fill-rule="nonzero" />
    <path fill="#ffffff"
        d="M 61.84375 58.089844 C 61.433594 57.761719 60.773438 57.84375 60.363281 58.253906 L 56.917969 62.523438 L 55.851562 61.535156 C 55.441406 61.125 54.785156 61.125 54.375 61.535156 C 53.964844 61.949219 53.964844 62.605469 54.375 63.015625 C 54.375 63.015625 56.34375 64.820312 56.34375 64.820312 C 56.835938 65.230469 57.574219 65.066406 57.820312 64.738281 L 61.925781 59.566406 C 62.335938 59.074219 62.417969 58.582031 61.84375 58.089844 Z M 61.84375 58.089844 "
        fill-opacity="1" fill-rule="nonzero" />
    <path fill="#ffffff"
        d="M 61.84375 84.675781 C 61.433594 84.347656 60.773438 84.429688 60.363281 84.839844 L 56.917969 89.109375 L 55.851562 88.125 C 55.441406 87.714844 54.785156 87.714844 54.375 88.125 C 53.964844 88.535156 53.964844 89.191406 54.375 89.601562 C 54.375 89.601562 56.34375 91.40625 56.34375 91.40625 C 56.835938 91.816406 57.574219 91.652344 57.820312 91.324219 L 61.925781 86.15625 C 62.335938 85.746094 62.417969 85.167969 61.84375 84.675781 Z M 61.84375 84.675781 "
        fill-opacity="1" fill-rule="nonzero" />
    <g clip-path="url(#ad54f30766)">
        <path fill="#ffffff"
            d="M 116.984375 57.925781 L 114.03125 55.628906 L 116 53.085938 C 116.410156 52.59375 116.820312 51.773438 115.917969 51.035156 L 111.652344 47.667969 C 110.996094 47.09375 109.929688 47.09375 109.355469 47.832031 L 107.382812 50.378906 C 107.21875 50.296875 106.972656 50.214844 106.808594 50.296875 C 106.5625 50.296875 106.316406 50.460938 106.152344 50.707031 L 102.707031 55.136719 C 102.460938 55.546875 102.460938 56.039062 102.707031 56.367188 L 89.742188 72.859375 L 66.4375 72.859375 C 65.863281 72.859375 65.453125 73.351562 65.453125 73.847656 C 65.453125 74.339844 65.945312 74.832031 66.4375 74.832031 L 88.101562 74.832031 L 85.640625 78.03125 L 66.4375 78.03125 C 65.863281 78.03125 65.453125 78.523438 65.453125 79.015625 C 65.453125 79.507812 65.945312 80 66.4375 80 L 84.078125 80 L 79.402344 86.15625 L 66.4375 86.15625 C 65.863281 86.15625 65.453125 86.648438 65.453125 87.140625 C 65.453125 87.632812 65.945312 88.125 66.4375 88.125 L 77.761719 88.125 L 75.710938 90.75 C 75.710938 90.75 75.628906 90.996094 75.546875 91.324219 L 66.4375 91.324219 C 65.863281 91.324219 65.453125 91.816406 65.453125 92.308594 C 65.453125 92.800781 65.945312 93.292969 66.4375 93.292969 L 74.890625 93.292969 C 74.070312 95.917969 73.003906 99.613281 73.003906 99.613281 C 72.839844 100.023438 73.003906 100.515625 73.332031 100.761719 C 73.660156 101.007812 74.152344 101.007812 74.480469 100.84375 C 74.480469 100.84375 82.273438 96.164062 82.4375 96 L 109.273438 61.453125 C 109.4375 61.535156 109.601562 61.617188 109.847656 61.617188 C 110.175781 61.617188 110.503906 61.453125 110.667969 61.207031 L 113.457031 57.597656 L 114.933594 58.746094 L 106.5625 69.660156 C 106.234375 70.152344 106.316406 70.726562 106.726562 71.136719 C 107.136719 71.546875 107.792969 71.382812 108.203125 70.972656 L 117.230469 59.402344 C 117.558594 58.910156 117.394531 58.253906 116.984375 57.925781 Z M 75.710938 97.808594 L 77.1875 92.882812 C 77.761719 93.210938 78.253906 93.539062 78.746094 93.867188 C 79.238281 94.277344 79.730469 94.6875 80.140625 95.097656 Z M 109.683594 59.320312 L 104.839844 55.546875 L 106.890625 52.921875 L 111.734375 56.695312 Z M 109.683594 59.320312 "
            fill-opacity="1" fill-rule="nonzero" />
    </g>
</svg>