<svg xmlns="http://www.w3.org/2000/svg" xmlns:xlink="http://www.w3.org/1999/xlink" width="200"
    zoomAndPan="magnify" viewBox="0 0 150 149.999998" height="200"
    preserveAspectRatio="xMidYMid meet" version="1.0">
    <defs>
        <clipPath id="08f9f961bd">
            <path d="M 70 70 L 97.535156 70 L 97.535156 98 L 70 98 Z M 70 70 " clip-rule="nonzero" />
        </clipPath>
        <clipPath id="f84ae5123a">
            <path
                d="M 52.535156 39.058594 L 93 39.058594 L 93 111 L 52.535156 111 Z M 52.535156 39.058594 "
                clip-rule="nonzero" />
        </clipPath>
    </defs>

    <path fill="#000000"
        d="M 135 75 C 135 76.964844 134.902344 78.925781 134.710938 80.882812 C 134.519531 82.835938 134.230469 84.777344 133.847656 86.707031 C 133.464844 88.632812 132.988281 90.535156 132.417969 92.417969 C 131.847656 94.296875 131.183594 96.144531 130.433594 97.960938 C 129.679688 99.777344 128.839844 101.550781 127.914062 103.285156 C 126.988281 105.015625 125.980469 106.699219 124.886719 108.335938 C 123.796875 109.96875 122.628906 111.542969 121.378906 113.0625 C 120.132812 114.582031 118.816406 116.035156 117.425781 117.425781 C 116.035156 118.816406 114.582031 120.132812 113.0625 121.378906 C 111.542969 122.628906 109.96875 123.796875 108.335938 124.886719 C 106.699219 125.980469 105.015625 126.988281 103.285156 127.914062 C 101.550781 128.839844 99.777344 129.679688 97.960938 130.433594 C 96.144531 131.183594 94.296875 131.847656 92.417969 132.417969 C 90.535156 132.988281 88.632812 133.464844 86.707031 133.847656 C 84.777344 134.230469 82.835938 134.519531 80.882812 134.710938 C 78.925781 134.902344 76.964844 135 75 135 C 73.035156 135 71.074219 134.902344 69.117188 134.710938 C 67.164062 134.519531 65.222656 134.230469 63.292969 133.847656 C 61.367188 133.464844 59.464844 132.988281 57.582031 132.417969 C 55.703125 131.847656 53.855469 131.183594 52.039062 130.433594 C 50.222656 129.679688 48.449219 128.839844 46.714844 127.914062 C 44.984375 126.988281 43.300781 125.980469 41.664062 124.886719 C 40.03125 123.796875 38.457031 122.628906 36.9375 121.378906 C 35.417969 120.132812 33.964844 118.816406 32.574219 117.425781 C 31.183594 116.035156 29.867188 114.582031 28.621094 113.0625 C 27.371094 111.542969 26.203125 109.96875 25.113281 108.335938 C 24.019531 106.699219 23.011719 105.015625 22.085938 103.285156 C 21.160156 101.550781 20.320312 99.777344 19.566406 97.960938 C 18.816406 96.144531 18.152344 94.296875 17.582031 92.417969 C 17.011719 90.535156 16.535156 88.632812 16.152344 86.707031 C 15.769531 84.777344 15.480469 82.835938 15.289062 80.882812 C 15.097656 78.925781 15 76.964844 15 75 C 15 73.035156 15.097656 71.074219 15.289062 69.117188 C 15.480469 67.164062 15.769531 65.222656 16.152344 63.292969 C 16.535156 61.367188 17.011719 59.464844 17.582031 57.582031 C 18.152344 55.703125 18.816406 53.855469 19.566406 52.039062 C 20.320312 50.222656 21.160156 48.449219 22.085938 46.714844 C 23.011719 44.984375 24.019531 43.300781 25.113281 41.664062 C 26.203125 40.03125 27.371094 38.457031 28.621094 36.9375 C 29.867188 35.417969 31.183594 33.964844 32.574219 32.574219 C 33.964844 31.183594 35.417969 29.867188 36.9375 28.621094 C 38.457031 27.371094 40.03125 26.203125 41.664062 25.113281 C 43.300781 24.019531 44.984375 23.011719 46.714844 22.085938 C 48.449219 21.160156 50.222656 20.320312 52.039062 19.566406 C 53.855469 18.816406 55.703125 18.152344 57.582031 17.582031 C 59.464844 17.011719 61.367188 16.535156 63.292969 16.152344 C 65.222656 15.769531 67.164062 15.480469 69.117188 15.289062 C 71.074219 15.097656 73.035156 15 75 15 C 76.964844 15 78.925781 15.097656 80.882812 15.289062 C 82.835938 15.480469 84.777344 15.769531 86.707031 16.152344 C 88.632812 16.535156 90.535156 17.011719 92.417969 17.582031 C 94.296875 18.152344 96.144531 18.816406 97.960938 19.566406 C 99.777344 20.320312 101.550781 21.160156 103.285156 22.085938 C 105.015625 23.011719 106.699219 24.019531 108.335938 25.113281 C 109.96875 26.203125 111.542969 27.371094 113.0625 28.621094 C 114.582031 29.867188 116.035156 31.183594 117.425781 32.574219 C 118.816406 33.964844 120.132812 35.417969 121.378906 36.9375 C 122.628906 38.457031 123.796875 40.03125 124.886719 41.664062 C 125.980469 43.300781 126.988281 44.984375 127.914062 46.714844 C 128.839844 48.449219 129.679688 50.222656 130.433594 52.039062 C 131.183594 53.855469 131.847656 55.703125 132.417969 57.582031 C 132.988281 59.464844 133.464844 61.367188 133.847656 63.292969 C 134.230469 65.222656 134.519531 67.164062 134.710938 69.117188 C 134.902344 71.074219 135 73.035156 135 75 Z M 135 75 "
        fill-opacity="1" fill-rule="nonzero" />
    <path fill="#ffffff"
        d="M 81.789062 68.261719 C 84.203125 68.261719 86.222656 66.296875 86.222656 63.824219 L 86.222656 56.976562 C 86.222656 54.5625 84.257812 52.539062 81.789062 52.539062 L 74.9375 52.539062 C 72.523438 52.539062 70.503906 54.503906 70.503906 56.976562 L 70.503906 63.882812 C 70.503906 66.296875 72.46875 68.316406 74.9375 68.316406 L 81.789062 68.316406 Z M 81.789062 68.261719 "
        fill-opacity="1" fill-rule="nonzero" />
    <path fill="#ffffff"
        d="M 60.171875 70.507812 C 58.429688 70.507812 57.027344 71.910156 57.027344 73.652344 L 57.027344 78.59375 C 57.027344 80.332031 58.429688 81.738281 60.171875 81.738281 L 65.113281 81.738281 C 66.851562 81.738281 68.257812 80.332031 68.257812 78.59375 L 68.257812 73.652344 C 68.257812 71.910156 66.851562 70.507812 65.113281 70.507812 Z M 60.171875 70.507812 "
        fill-opacity="1" fill-rule="nonzero" />
    <g clip-path="url(#08f9f961bd)">
        <path fill="#ffffff"
            d="M 97.453125 75 C 97.453125 72.527344 95.433594 70.507812 92.960938 70.507812 L 74.996094 70.507812 C 72.523438 70.507812 70.503906 72.527344 70.503906 75 L 70.503906 92.964844 C 70.503906 95.4375 72.523438 97.457031 74.996094 97.457031 L 92.960938 97.457031 C 95.433594 97.457031 97.453125 95.4375 97.453125 92.964844 Z M 92.289062 80.558594 C 90.378906 81.34375 88.582031 82.691406 87.179688 83.757812 C 84.089844 86.171875 81.5625 89.203125 81.507812 89.261719 C 81.285156 89.542969 81.003906 89.652344 80.664062 89.652344 C 80.609375 89.652344 80.609375 89.652344 80.554688 89.652344 C 80.160156 89.597656 79.878906 89.371094 79.65625 89.035156 C 78.140625 86.117188 77.296875 84.9375 75.386719 83.363281 C 74.9375 82.972656 74.828125 82.242188 75.21875 81.792969 C 75.613281 81.34375 76.34375 81.230469 76.792969 81.625 C 78.644531 83.140625 79.597656 84.375 80.835938 86.566406 C 81.902344 85.386719 83.699219 83.589844 85.71875 81.960938 C 87.179688 80.78125 89.199219 79.320312 91.332031 78.480469 C 91.894531 78.253906 92.570312 78.535156 92.792969 79.097656 C 93.128906 79.660156 92.851562 80.277344 92.289062 80.558594 Z M 92.289062 80.558594 "
            fill-opacity="1" fill-rule="nonzero" />
    </g>
    <g clip-path="url(#f84ae5123a)">
        <path fill="#ffffff"
            d="M 88.527344 39.0625 L 56.972656 39.0625 C 54.5 39.0625 52.535156 41.085938 52.535156 43.554688 L 52.535156 106.441406 C 52.535156 108.910156 54.5 110.933594 56.972656 110.933594 L 88.46875 110.933594 C 90.941406 110.933594 92.90625 108.910156 92.90625 106.441406 L 92.90625 99.703125 L 54.78125 99.703125 L 54.78125 50.292969 L 90.714844 50.292969 L 90.714844 68.261719 L 92.960938 68.261719 L 92.960938 43.554688 C 92.960938 41.085938 90.941406 39.0625 88.527344 39.0625 Z M 68.257812 104.195312 L 77.242188 104.195312 C 77.859375 104.195312 78.363281 104.699219 78.363281 105.320312 C 78.363281 105.9375 77.859375 106.441406 77.242188 106.441406 L 68.257812 106.441406 C 67.640625 106.441406 67.132812 105.9375 67.132812 105.320312 C 67.132812 104.699219 67.640625 104.195312 68.257812 104.195312 Z M 68.257812 45.800781 C 67.640625 45.800781 67.132812 45.296875 67.132812 44.679688 C 67.132812 44.0625 67.640625 43.554688 68.257812 43.554688 C 68.875 43.554688 69.378906 44.0625 69.378906 44.679688 C 69.378906 45.296875 68.875 45.800781 68.257812 45.800781 Z M 72.75 45.800781 C 72.132812 45.800781 71.625 45.296875 71.625 44.679688 C 71.625 44.0625 72.132812 43.554688 72.75 43.554688 C 73.367188 43.554688 73.871094 44.0625 73.871094 44.679688 C 73.871094 45.296875 73.367188 45.800781 72.75 45.800781 Z M 77.242188 45.800781 C 76.625 45.800781 76.117188 45.296875 76.117188 44.679688 C 76.117188 44.0625 76.625 43.554688 77.242188 43.554688 C 77.859375 43.554688 78.363281 44.0625 78.363281 44.679688 C 78.363281 45.296875 77.859375 45.800781 77.242188 45.800781 Z M 77.242188 45.800781 "
            fill-opacity="1" fill-rule="nonzero" />
    </g>
</svg>