<svg xmlns="http://www.w3.org/2000/svg" xmlns:xlink="http://www.w3.org/1999/xlink" width="200" zoomAndPan="magnify" viewBox="0 0 150 149.999998" height="200" preserveAspectRatio="xMidYMid meet" version="1.0"><defs><clipPath id="7b9f26d496"><path d="M 43 39.300781 L 96 39.300781 L 96 110.550781 L 43 110.550781 Z M 43 39.300781 " clip-rule="nonzero"/></clipPath><clipPath id="9fac43d46f"><path d="M 45.355469 37.800781 L 99 37.800781 L 99 109.050781 L 45.355469 109.050781 Z M 45.355469 37.800781 " clip-rule="nonzero"/></clipPath><clipPath id="050a47add3"><path d="M 64 45 L 116.605469 45 L 116.605469 100 L 64 100 Z M 64 45 " clip-rule="nonzero"/></clipPath></defs><path fill="#000000" d="M 135 75 C 135 76.964844 134.902344 78.925781 134.710938 80.882812 C 134.519531 82.835938 134.230469 84.777344 133.847656 86.707031 C 133.464844 88.632812 132.988281 90.535156 132.417969 92.417969 C 131.847656 94.296875 131.183594 96.144531 130.433594 97.960938 C 129.679688 99.777344 128.839844 101.550781 127.914062 103.285156 C 126.988281 105.015625 125.980469 106.699219 124.886719 108.335938 C 123.796875 109.96875 122.628906 111.542969 121.378906 113.0625 C 120.132812 114.582031 118.816406 116.035156 117.425781 117.425781 C 116.035156 118.816406 114.582031 120.132812 113.0625 121.378906 C 111.542969 122.628906 109.96875 123.796875 108.335938 124.886719 C 106.699219 125.980469 105.015625 126.988281 103.285156 127.914062 C 101.550781 128.839844 99.777344 129.679688 97.960938 130.433594 C 96.144531 131.183594 94.296875 131.847656 92.417969 132.417969 C 90.535156 132.988281 88.632812 133.464844 86.707031 133.847656 C 84.777344 134.230469 82.835938 134.519531 80.882812 134.710938 C 78.925781 134.902344 76.964844 135 75 135 C 73.035156 135 71.074219 134.902344 69.117188 134.710938 C 67.164062 134.519531 65.222656 134.230469 63.292969 133.847656 C 61.367188 133.464844 59.464844 132.988281 57.582031 132.417969 C 55.703125 131.847656 53.855469 131.183594 52.039062 130.433594 C 50.222656 129.679688 48.449219 128.839844 46.714844 127.914062 C 44.984375 126.988281 43.300781 125.980469 41.664062 124.886719 C 40.03125 123.796875 38.457031 122.628906 36.9375 121.378906 C 35.417969 120.132812 33.964844 118.816406 32.574219 117.425781 C 31.183594 116.035156 29.867188 114.582031 28.621094 113.0625 C 27.371094 111.542969 26.203125 109.96875 25.113281 108.335938 C 24.019531 106.699219 23.011719 105.015625 22.085938 103.285156 C 21.160156 101.550781 20.320312 99.777344 19.566406 97.960938 C 18.816406 96.144531 18.152344 94.296875 17.582031 92.417969 C 17.011719 90.535156 16.535156 88.632812 16.152344 86.707031 C 15.769531 84.777344 15.480469 82.835938 15.289062 80.882812 C 15.097656 78.925781 15 76.964844 15 75 C 15 73.035156 15.097656 71.074219 15.289062 69.117188 C 15.480469 67.164062 15.769531 65.222656 16.152344 63.292969 C 16.535156 61.367188 17.011719 59.464844 17.582031 57.582031 C 18.152344 55.703125 18.816406 53.855469 19.566406 52.039062 C 20.320312 50.222656 21.160156 48.449219 22.085938 46.714844 C 23.011719 44.984375 24.019531 43.300781 25.113281 41.664062 C 26.203125 40.03125 27.371094 38.457031 28.621094 36.9375 C 29.867188 35.417969 31.183594 33.964844 32.574219 32.574219 C 33.964844 31.183594 35.417969 29.867188 36.9375 28.621094 C 38.457031 27.371094 40.03125 26.203125 41.664062 25.113281 C 43.300781 24.019531 44.984375 23.011719 46.714844 22.085938 C 48.449219 21.160156 50.222656 20.320312 52.039062 19.566406 C 53.855469 18.816406 55.703125 18.152344 57.582031 17.582031 C 59.464844 17.011719 61.367188 16.535156 63.292969 16.152344 C 65.222656 15.769531 67.164062 15.480469 69.117188 15.289062 C 71.074219 15.097656 73.035156 15 75 15 C 76.964844 15 78.925781 15.097656 80.882812 15.289062 C 82.835938 15.480469 84.777344 15.769531 86.707031 16.152344 C 88.632812 16.535156 90.535156 17.011719 92.417969 17.582031 C 94.296875 18.152344 96.144531 18.816406 97.960938 19.566406 C 99.777344 20.320312 101.550781 21.160156 103.285156 22.085938 C 105.015625 23.011719 106.699219 24.019531 108.335938 25.113281 C 109.96875 26.203125 111.542969 27.371094 113.0625 28.621094 C 114.582031 29.867188 116.035156 31.183594 117.425781 32.574219 C 118.816406 33.964844 120.132812 35.417969 121.378906 36.9375 C 122.628906 38.457031 123.796875 40.03125 124.886719 41.664062 C 125.980469 43.300781 126.988281 44.984375 127.914062 46.714844 C 128.839844 48.449219 129.679688 50.222656 130.433594 52.039062 C 131.183594 53.855469 131.847656 55.703125 132.417969 57.582031 C 132.988281 59.464844 133.464844 61.367188 133.847656 63.292969 C 134.230469 65.222656 134.519531 67.164062 134.710938 69.117188 C 134.902344 71.074219 135 73.035156 135 75 Z M 135 75 " fill-opacity="1" fill-rule="nonzero"/><path fill="#38b6ff" d="M 58.371094 71.628906 C 57.960938 71.300781 57.304688 71.382812 56.894531 71.792969 L 53.449219 76.0625 L 52.382812 75.078125 C 51.96875 74.667969 51.3125 74.667969 50.902344 75.078125 C 50.492188 75.488281 50.492188 76.144531 50.902344 76.554688 C 50.902344 76.554688 52.875 78.359375 52.875 78.359375 C 53.367188 78.769531 54.105469 78.605469 54.351562 78.277344 L 58.453125 73.105469 C 58.863281 72.613281 59.027344 72.121094 58.371094 71.628906 Z M 58.371094 71.628906 " fill-opacity="1" fill-rule="nonzero"/><g clip-path="url(#7b9f26d496)"><path fill="#38b6ff" d="M 94.640625 81.476562 C 94.066406 81.476562 93.65625 81.96875 93.65625 82.460938 L 93.65625 108.636719 L 44.996094 108.636719 L 44.996094 41.351562 L 78.886719 41.351562 L 78.886719 54.972656 C 78.886719 55.546875 79.296875 56.039062 79.871094 56.039062 L 93.492188 56.039062 L 93.492188 57.351562 C 93.492188 57.925781 93.984375 58.335938 94.476562 58.335938 C 94.96875 58.335938 95.460938 57.84375 95.460938 57.351562 L 95.460938 54.972656 C 95.460938 54.726562 95.378906 54.480469 95.132812 54.234375 L 80.691406 39.628906 C 80.527344 39.382812 80.199219 39.300781 79.953125 39.300781 L 44.011719 39.300781 C 43.4375 39.300781 43.027344 39.792969 43.027344 40.285156 L 43.027344 109.707031 C 43.027344 110.28125 43.519531 110.691406 44.011719 110.691406 L 94.640625 110.691406 C 95.214844 110.691406 95.625 110.199219 95.625 109.707031 L 95.625 82.460938 C 95.625 81.886719 95.214844 81.476562 94.640625 81.476562 Z M 94.640625 81.476562 " fill-opacity="1" fill-rule="nonzero"/></g><path fill="#38b6ff" d="M 88.40625 60.550781 C 88.40625 59.976562 87.914062 59.566406 87.417969 59.566406 L 62.964844 59.566406 C 62.390625 59.566406 61.980469 60.058594 61.980469 60.550781 C 61.980469 61.042969 62.472656 61.535156 62.964844 61.535156 L 87.417969 61.535156 C 87.996094 61.617188 88.40625 61.125 88.40625 60.550781 Z M 88.40625 60.550781 " fill-opacity="1" fill-rule="nonzero"/><path fill="#38b6ff" d="M 62.964844 64.820312 C 62.390625 64.820312 61.980469 65.3125 61.980469 65.804688 C 61.980469 66.296875 62.472656 66.789062 62.964844 66.789062 L 80.527344 66.789062 C 81.101562 66.789062 81.511719 66.296875 81.511719 65.804688 C 81.511719 65.3125 81.101562 64.820312 80.527344 64.820312 Z M 62.964844 64.820312 " fill-opacity="1" fill-rule="nonzero"/><path fill="#38b6ff" d="M 58.371094 58.089844 C 57.960938 57.761719 57.304688 57.84375 56.894531 58.253906 L 53.449219 62.523438 L 52.382812 61.535156 C 51.96875 61.125 51.3125 61.125 50.902344 61.535156 C 50.492188 61.949219 50.492188 62.605469 50.902344 63.015625 C 50.902344 63.015625 52.875 64.820312 52.875 64.820312 C 53.367188 65.230469 54.105469 65.066406 54.351562 64.738281 L 58.453125 59.566406 C 58.863281 59.074219 58.945312 58.582031 58.371094 58.089844 Z M 58.371094 58.089844 " fill-opacity="1" fill-rule="nonzero"/><path fill="#38b6ff" d="M 58.371094 84.675781 C 57.960938 84.347656 57.304688 84.429688 56.894531 84.839844 L 53.449219 89.109375 L 52.382812 88.125 C 51.96875 87.714844 51.3125 87.714844 50.902344 88.125 C 50.492188 88.535156 50.492188 89.191406 50.902344 89.601562 C 50.902344 89.601562 52.875 91.40625 52.875 91.40625 C 53.367188 91.816406 54.105469 91.652344 54.351562 91.324219 L 58.453125 86.15625 C 58.863281 85.746094 58.945312 85.167969 58.371094 84.675781 Z M 58.371094 84.675781 " fill-opacity="1" fill-rule="nonzero"/><path fill="#38b6ff" d="M 113.515625 57.925781 L 110.558594 55.628906 L 112.53125 53.085938 C 112.941406 52.59375 113.351562 51.773438 112.449219 51.035156 L 108.179688 47.667969 C 107.523438 47.09375 106.457031 47.09375 105.882812 47.832031 L 103.914062 50.378906 C 103.75 50.296875 103.503906 50.214844 103.339844 50.296875 C 103.09375 50.296875 102.847656 50.460938 102.683594 50.707031 L 99.234375 55.136719 C 98.988281 55.546875 98.988281 56.039062 99.234375 56.367188 L 86.269531 72.859375 L 62.964844 72.859375 C 62.390625 72.859375 61.980469 73.351562 61.980469 73.847656 C 61.980469 74.339844 62.472656 74.832031 62.964844 74.832031 L 84.628906 74.832031 L 82.167969 78.03125 L 62.964844 78.03125 C 62.390625 78.03125 61.980469 78.523438 61.980469 79.015625 C 61.980469 79.507812 62.472656 80 62.964844 80 L 80.609375 80 L 75.933594 86.15625 L 62.964844 86.15625 C 62.390625 86.15625 61.980469 86.648438 61.980469 87.140625 C 61.980469 87.632812 62.472656 88.125 62.964844 88.125 L 74.289062 88.125 L 72.238281 90.75 C 72.238281 90.75 72.15625 90.996094 72.074219 91.324219 L 62.964844 91.324219 C 62.390625 91.324219 61.980469 91.816406 61.980469 92.308594 C 61.980469 92.800781 62.472656 93.292969 62.964844 93.292969 L 71.417969 93.292969 C 70.597656 95.917969 69.53125 99.613281 69.53125 99.613281 C 69.367188 100.023438 69.53125 100.515625 69.859375 100.761719 C 70.1875 101.007812 70.679688 101.007812 71.007812 100.84375 C 71.007812 100.84375 78.804688 96.164062 78.96875 96 L 105.800781 61.453125 C 105.964844 61.535156 106.128906 61.617188 106.375 61.617188 C 106.703125 61.617188 107.03125 61.453125 107.195312 61.207031 L 109.984375 57.597656 L 111.460938 58.746094 L 103.09375 69.660156 C 102.765625 70.152344 102.847656 70.726562 103.257812 71.136719 C 103.667969 71.546875 104.324219 71.382812 104.734375 70.972656 L 113.761719 59.402344 C 114.089844 58.910156 113.925781 58.253906 113.515625 57.925781 Z M 72.238281 97.808594 L 73.714844 92.882812 C 74.289062 93.210938 74.78125 93.539062 75.273438 93.867188 C 75.765625 94.277344 76.261719 94.6875 76.671875 95.097656 Z M 106.210938 59.320312 L 101.371094 55.546875 L 103.421875 52.921875 L 108.261719 56.695312 Z M 106.210938 59.320312 " fill-opacity="1" fill-rule="nonzero"/><path fill="#ffffff" d="M 60.867188 70.128906 C 60.453125 69.800781 59.796875 69.882812 59.386719 70.292969 L 55.941406 74.5625 L 54.875 73.578125 C 54.464844 73.167969 53.808594 73.167969 53.398438 73.578125 C 52.988281 73.988281 52.988281 74.644531 53.398438 75.054688 C 53.398438 75.054688 55.367188 76.859375 55.367188 76.859375 C 55.859375 77.269531 56.597656 77.105469 56.84375 76.777344 L 60.949219 71.605469 C 61.359375 71.113281 61.523438 70.621094 60.867188 70.128906 Z M 60.867188 70.128906 " fill-opacity="1" fill-rule="nonzero"/><g clip-path="url(#9fac43d46f)"><path fill="#ffffff" d="M 97.136719 79.976562 C 96.5625 79.976562 96.148438 80.46875 96.148438 80.960938 L 96.148438 107.136719 L 47.488281 107.136719 L 47.488281 39.851562 L 81.378906 39.851562 L 81.378906 53.472656 C 81.378906 54.046875 81.789062 54.539062 82.363281 54.539062 L 95.984375 54.539062 L 95.984375 55.851562 C 95.984375 56.425781 96.480469 56.835938 96.972656 56.835938 C 97.464844 56.835938 97.957031 56.34375 97.957031 55.851562 L 97.957031 53.472656 C 97.957031 53.226562 97.875 52.980469 97.628906 52.734375 L 83.183594 38.128906 C 83.019531 37.882812 82.691406 37.800781 82.445312 37.800781 L 46.503906 37.800781 C 45.929688 37.800781 45.519531 38.292969 45.519531 38.785156 L 45.519531 108.207031 C 45.519531 108.78125 46.011719 109.191406 46.503906 109.191406 L 97.136719 109.191406 C 97.710938 109.191406 98.121094 108.699219 98.121094 108.207031 L 98.121094 80.960938 C 98.121094 80.386719 97.710938 79.976562 97.136719 79.976562 Z M 97.136719 79.976562 " fill-opacity="1" fill-rule="nonzero"/></g><path fill="#ffffff" d="M 90.898438 59.050781 C 90.898438 58.476562 90.40625 58.066406 89.914062 58.066406 L 65.460938 58.066406 C 64.886719 58.066406 64.476562 58.558594 64.476562 59.050781 C 64.476562 59.542969 64.96875 60.035156 65.460938 60.035156 L 89.914062 60.035156 C 90.488281 60.117188 90.898438 59.625 90.898438 59.050781 Z M 90.898438 59.050781 " fill-opacity="1" fill-rule="nonzero"/><path fill="#ffffff" d="M 65.460938 63.320312 C 64.886719 63.320312 64.476562 63.8125 64.476562 64.304688 C 64.476562 64.796875 64.96875 65.289062 65.460938 65.289062 L 83.019531 65.289062 C 83.59375 65.289062 84.003906 64.796875 84.003906 64.304688 C 84.003906 63.8125 83.59375 63.320312 83.019531 63.320312 Z M 65.460938 63.320312 " fill-opacity="1" fill-rule="nonzero"/><path fill="#ffffff" d="M 60.867188 56.589844 C 60.453125 56.261719 59.796875 56.34375 59.386719 56.753906 L 55.941406 61.023438 L 54.875 60.035156 C 54.464844 59.625 53.808594 59.625 53.398438 60.035156 C 52.988281 60.449219 52.988281 61.105469 53.398438 61.515625 C 53.398438 61.515625 55.367188 63.320312 55.367188 63.320312 C 55.859375 63.730469 56.597656 63.566406 56.84375 63.238281 L 60.949219 58.066406 C 61.359375 57.574219 61.441406 57.082031 60.867188 56.589844 Z M 60.867188 56.589844 " fill-opacity="1" fill-rule="nonzero"/><path fill="#ffffff" d="M 60.867188 83.175781 C 60.453125 82.847656 59.796875 82.929688 59.386719 83.339844 L 55.941406 87.609375 L 54.875 86.625 C 54.464844 86.214844 53.808594 86.214844 53.398438 86.625 C 52.988281 87.035156 52.988281 87.691406 53.398438 88.101562 C 53.398438 88.101562 55.367188 89.90625 55.367188 89.90625 C 55.859375 90.316406 56.597656 90.152344 56.84375 89.824219 L 60.949219 84.65625 C 61.359375 84.246094 61.441406 83.667969 60.867188 83.175781 Z M 60.867188 83.175781 " fill-opacity="1" fill-rule="nonzero"/><g clip-path="url(#050a47add3)"><path fill="#ffffff" d="M 116.007812 56.425781 L 113.054688 54.128906 L 115.023438 51.585938 C 115.433594 51.09375 115.84375 50.273438 114.941406 49.535156 L 110.675781 46.167969 C 110.019531 45.59375 108.953125 45.59375 108.378906 46.332031 L 106.40625 48.878906 C 106.242188 48.796875 105.996094 48.714844 105.832031 48.796875 C 105.585938 48.796875 105.339844 48.960938 105.175781 49.207031 L 101.730469 53.636719 C 101.484375 54.046875 101.484375 54.539062 101.730469 54.867188 L 88.765625 71.359375 L 65.460938 71.359375 C 64.886719 71.359375 64.476562 71.851562 64.476562 72.347656 C 64.476562 72.839844 64.96875 73.332031 65.460938 73.332031 L 87.125 73.332031 L 84.664062 76.53125 L 65.460938 76.53125 C 64.886719 76.53125 64.476562 77.023438 64.476562 77.515625 C 64.476562 78.007812 64.96875 78.5 65.460938 78.5 L 83.101562 78.5 L 78.425781 84.65625 L 65.460938 84.65625 C 64.886719 84.65625 64.476562 85.148438 64.476562 85.640625 C 64.476562 86.132812 64.96875 86.625 65.460938 86.625 L 76.785156 86.625 L 74.734375 89.25 C 74.734375 89.25 74.652344 89.496094 74.570312 89.824219 L 65.460938 89.824219 C 64.886719 89.824219 64.476562 90.316406 64.476562 90.808594 C 64.476562 91.300781 64.96875 91.792969 65.460938 91.792969 L 73.914062 91.792969 C 73.09375 94.417969 72.023438 98.113281 72.023438 98.113281 C 71.859375 98.523438 72.023438 99.015625 72.351562 99.261719 C 72.683594 99.507812 73.175781 99.507812 73.503906 99.34375 C 73.503906 99.34375 81.296875 94.664062 81.460938 94.5 L 108.292969 59.953125 C 108.460938 60.035156 108.625 60.117188 108.871094 60.117188 C 109.199219 60.117188 109.527344 59.953125 109.691406 59.707031 L 112.480469 56.097656 L 113.957031 57.246094 L 105.585938 68.160156 C 105.257812 68.652344 105.339844 69.226562 105.75 69.636719 C 106.160156 70.046875 106.816406 69.882812 107.226562 69.472656 L 116.253906 57.902344 C 116.582031 57.410156 116.417969 56.753906 116.007812 56.425781 Z M 74.734375 96.308594 L 76.210938 91.382812 C 76.785156 91.710938 77.277344 92.039062 77.769531 92.367188 C 78.261719 92.777344 78.753906 93.1875 79.164062 93.597656 Z M 108.707031 57.820312 L 103.863281 54.046875 L 105.914062 51.421875 L 110.757812 55.195312 Z M 108.707031 57.820312 " fill-opacity="1" fill-rule="nonzero"/></g></svg>