<svg xmlns="http://www.w3.org/2000/svg" xmlns:xlink="http://www.w3.org/1999/xlink" width="200" zoomAndPan="magnify" viewBox="0 0 150 149.999998" height="200" preserveAspectRatio="xMidYMid meet" version="1.0"><defs><clipPath id="6d180cda96"><path d="M 62 97 L 86 97 L 86 110.714844 L 62 110.714844 Z M 62 97 " clip-rule="nonzero"/></clipPath><clipPath id="53bf09cff6"><path d="M 89 97 L 111.652344 97 L 111.652344 110.714844 L 89 110.714844 Z M 89 97 " clip-rule="nonzero"/></clipPath><clipPath id="78af57e4f7"><path d="M 36.652344 97 L 60 97 L 60 110.714844 L 36.652344 110.714844 Z M 36.652344 97 " clip-rule="nonzero"/></clipPath><clipPath id="47965dc425"><path d="M 68 35.714844 L 80 35.714844 L 80 47 L 68 47 Z M 68 35.714844 " clip-rule="nonzero"/></clipPath><clipPath id="479a9030e3"><path d="M 64 97 L 88 97 L 88 110.128906 L 64 110.128906 Z M 64 97 " clip-rule="nonzero"/></clipPath><clipPath id="d572106ca6"><path d="M 90 97 L 113.355469 97 L 113.355469 110.128906 L 90 110.128906 Z M 90 97 " clip-rule="nonzero"/></clipPath><clipPath id="c7451b9a4a"><path d="M 38.355469 97 L 61 97 L 61 110.128906 L 38.355469 110.128906 Z M 38.355469 97 " clip-rule="nonzero"/></clipPath><clipPath id="5b1a7a795c"><path d="M 70 35.128906 L 82 35.128906 L 82 47 L 70 47 Z M 70 35.128906 " clip-rule="nonzero"/></clipPath></defs><path fill="#000000" d="M 135 75 C 135 76.964844 134.902344 78.925781 134.710938 80.882812 C 134.519531 82.835938 134.230469 84.777344 133.847656 86.707031 C 133.464844 88.632812 132.988281 90.535156 132.417969 92.417969 C 131.847656 94.296875 131.183594 96.144531 130.433594 97.960938 C 129.679688 99.777344 128.839844 101.550781 127.914062 103.285156 C 126.988281 105.015625 125.980469 106.699219 124.886719 108.335938 C 123.796875 109.96875 122.628906 111.542969 121.378906 113.0625 C 120.132812 114.582031 118.816406 116.035156 117.425781 117.425781 C 116.035156 118.816406 114.582031 120.132812 113.0625 121.378906 C 111.542969 122.628906 109.96875 123.796875 108.335938 124.886719 C 106.699219 125.980469 105.015625 126.988281 103.285156 127.914062 C 101.550781 128.839844 99.777344 129.679688 97.960938 130.433594 C 96.144531 131.183594 94.296875 131.847656 92.417969 132.417969 C 90.535156 132.988281 88.632812 133.464844 86.707031 133.847656 C 84.777344 134.230469 82.835938 134.519531 80.882812 134.710938 C 78.925781 134.902344 76.964844 135 75 135 C 73.035156 135 71.074219 134.902344 69.117188 134.710938 C 67.164062 134.519531 65.222656 134.230469 63.292969 133.847656 C 61.367188 133.464844 59.464844 132.988281 57.582031 132.417969 C 55.703125 131.847656 53.855469 131.183594 52.039062 130.433594 C 50.222656 129.679688 48.449219 128.839844 46.714844 127.914062 C 44.984375 126.988281 43.300781 125.980469 41.664062 124.886719 C 40.03125 123.796875 38.457031 122.628906 36.9375 121.378906 C 35.417969 120.132812 33.964844 118.816406 32.574219 117.425781 C 31.183594 116.035156 29.867188 114.582031 28.621094 113.0625 C 27.371094 111.542969 26.203125 109.96875 25.113281 108.335938 C 24.019531 106.699219 23.011719 105.015625 22.085938 103.285156 C 21.160156 101.550781 20.320312 99.777344 19.566406 97.960938 C 18.816406 96.144531 18.152344 94.296875 17.582031 92.417969 C 17.011719 90.535156 16.535156 88.632812 16.152344 86.707031 C 15.769531 84.777344 15.480469 82.835938 15.289062 80.882812 C 15.097656 78.925781 15 76.964844 15 75 C 15 73.035156 15.097656 71.074219 15.289062 69.117188 C 15.480469 67.164062 15.769531 65.222656 16.152344 63.292969 C 16.535156 61.367188 17.011719 59.464844 17.582031 57.582031 C 18.152344 55.703125 18.816406 53.855469 19.566406 52.039062 C 20.320312 50.222656 21.160156 48.449219 22.085938 46.714844 C 23.011719 44.984375 24.019531 43.300781 25.113281 41.664062 C 26.203125 40.03125 27.371094 38.457031 28.621094 36.9375 C 29.867188 35.417969 31.183594 33.964844 32.574219 32.574219 C 33.964844 31.183594 35.417969 29.867188 36.9375 28.621094 C 38.457031 27.371094 40.03125 26.203125 41.664062 25.113281 C 43.300781 24.019531 44.984375 23.011719 46.714844 22.085938 C 48.449219 21.160156 50.222656 20.320312 52.039062 19.566406 C 53.855469 18.816406 55.703125 18.152344 57.582031 17.582031 C 59.464844 17.011719 61.367188 16.535156 63.292969 16.152344 C 65.222656 15.769531 67.164062 15.480469 69.117188 15.289062 C 71.074219 15.097656 73.035156 15 75 15 C 76.964844 15 78.925781 15.097656 80.882812 15.289062 C 82.835938 15.480469 84.777344 15.769531 86.707031 16.152344 C 88.632812 16.535156 90.535156 17.011719 92.417969 17.582031 C 94.296875 18.152344 96.144531 18.816406 97.960938 19.566406 C 99.777344 20.320312 101.550781 21.160156 103.285156 22.085938 C 105.015625 23.011719 106.699219 24.019531 108.335938 25.113281 C 109.96875 26.203125 111.542969 27.371094 113.0625 28.621094 C 114.582031 29.867188 116.035156 31.183594 117.425781 32.574219 C 118.816406 33.964844 120.132812 35.417969 121.378906 36.9375 C 122.628906 38.457031 123.796875 40.03125 124.886719 41.664062 C 125.980469 43.300781 126.988281 44.984375 127.914062 46.714844 C 128.839844 48.449219 129.679688 50.222656 130.433594 52.039062 C 131.183594 53.855469 131.847656 55.703125 132.417969 57.582031 C 132.988281 59.464844 133.464844 61.367188 133.847656 63.292969 C 134.230469 65.222656 134.519531 67.164062 134.710938 69.117188 C 134.902344 71.074219 135 73.035156 135 75 Z M 135 75 " fill-opacity="1" fill-rule="nonzero"/><path fill="#38b6ff" d="M 49.773438 80.894531 L 49.773438 76.957031 C 49.773438 75.925781 50.609375 75.082031 51.648438 75.082031 L 72.269531 75.082031 L 72.269531 80.894531 C 72.871094 80.773438 73.5 80.707031 74.144531 80.707031 C 74.78125 80.707031 75.410156 80.773438 76.019531 80.894531 L 76.019531 75.082031 L 97.578125 75.082031 C 98.609375 75.082031 99.453125 75.925781 99.453125 76.957031 L 99.453125 80.894531 C 100.054688 80.773438 100.679688 80.707031 101.328125 80.707031 C 101.964844 80.707031 102.59375 80.773438 103.203125 80.894531 L 103.203125 76.957031 C 103.203125 73.855469 100.671875 71.332031 97.578125 71.332031 L 76.019531 71.332031 L 76.019531 65.710938 L 72.269531 65.710938 L 72.269531 71.332031 L 51.648438 71.332031 C 48.546875 71.332031 46.023438 73.855469 46.023438 76.957031 L 46.023438 80.894531 C 46.625 80.773438 47.253906 80.707031 47.898438 80.707031 C 48.535156 80.707031 49.164062 80.773438 49.773438 80.894531 Z M 49.773438 80.894531 " fill-opacity="1" fill-rule="nonzero"/><g clip-path="url(#6d180cda96)"><path fill="#38b6ff" d="M 79.496094 97.757812 C 77.980469 98.824219 76.132812 99.453125 74.144531 99.453125 C 72.148438 99.453125 70.300781 98.824219 68.785156 97.757812 C 65.417969 98.496094 62.898438 101.496094 62.898438 105.078125 L 62.898438 108.828125 C 62.898438 109.859375 63.730469 110.703125 64.773438 110.703125 L 83.519531 110.703125 C 84.550781 110.703125 85.394531 109.859375 85.394531 108.828125 L 85.394531 105.078125 C 85.394531 101.496094 82.863281 98.496094 79.496094 97.757812 Z M 79.496094 97.757812 " fill-opacity="1" fill-rule="nonzero"/></g><g clip-path="url(#53bf09cff6)"><path fill="#38b6ff" d="M 106.417969 97.933594 C 104.945312 98.890625 103.203125 99.453125 101.328125 99.453125 C 99.257812 99.453125 97.34375 98.769531 95.789062 97.625 C 92.058594 98.046875 89.144531 101.226562 89.144531 105.078125 L 89.144531 108.828125 C 89.144531 109.859375 89.976562 110.703125 91.015625 110.703125 L 109.765625 110.703125 C 110.796875 110.703125 111.640625 109.859375 111.640625 108.828125 L 111.640625 105.078125 C 111.640625 101.742188 109.4375 98.902344 106.417969 97.933594 Z M 106.417969 97.933594 " fill-opacity="1" fill-rule="nonzero"/></g><g clip-path="url(#78af57e4f7)"><path fill="#38b6ff" d="M 53.25 97.757812 C 51.734375 98.824219 49.886719 99.453125 47.898438 99.453125 C 45.902344 99.453125 44.054688 98.824219 42.539062 97.757812 C 39.171875 98.496094 36.652344 101.496094 36.652344 105.078125 L 36.652344 108.828125 C 36.652344 109.859375 37.484375 110.703125 38.527344 110.703125 L 57.273438 110.703125 C 58.304688 110.703125 59.148438 109.859375 59.148438 108.828125 L 59.148438 105.078125 C 59.148438 101.496094 56.617188 98.496094 53.25 97.757812 Z M 53.25 97.757812 " fill-opacity="1" fill-rule="nonzero"/></g><path fill="#38b6ff" d="M 79.769531 90.082031 C 79.769531 90.449219 79.734375 90.816406 79.660156 91.175781 C 79.589844 91.539062 79.484375 91.890625 79.339844 92.234375 C 79.199219 92.574219 79.027344 92.898438 78.820312 93.203125 C 78.617188 93.511719 78.382812 93.796875 78.121094 94.058594 C 77.859375 94.316406 77.578125 94.550781 77.269531 94.757812 C 76.960938 94.960938 76.636719 95.136719 76.296875 95.277344 C 75.957031 95.417969 75.605469 95.523438 75.242188 95.597656 C 74.878906 95.667969 74.515625 95.703125 74.144531 95.703125 C 73.777344 95.703125 73.410156 95.667969 73.046875 95.597656 C 72.6875 95.523438 72.335938 95.417969 71.992188 95.277344 C 71.652344 95.136719 71.328125 94.960938 71.019531 94.757812 C 70.714844 94.550781 70.429688 94.316406 70.167969 94.058594 C 69.90625 93.796875 69.675781 93.511719 69.46875 93.203125 C 69.261719 92.898438 69.089844 92.574219 68.949219 92.234375 C 68.808594 91.890625 68.699219 91.539062 68.628906 91.175781 C 68.558594 90.816406 68.519531 90.449219 68.519531 90.082031 C 68.519531 89.710938 68.558594 89.34375 68.628906 88.984375 C 68.699219 88.621094 68.808594 88.269531 68.949219 87.929688 C 69.089844 87.585938 69.261719 87.261719 69.46875 86.957031 C 69.675781 86.648438 69.90625 86.363281 70.167969 86.101562 C 70.429688 85.84375 70.714844 85.609375 71.019531 85.402344 C 71.328125 85.199219 71.652344 85.027344 71.992188 84.882812 C 72.335938 84.742188 72.6875 84.636719 73.046875 84.5625 C 73.410156 84.492188 73.777344 84.457031 74.144531 84.457031 C 74.515625 84.457031 74.878906 84.492188 75.242188 84.5625 C 75.605469 84.636719 75.957031 84.742188 76.296875 84.882812 C 76.636719 85.027344 76.960938 85.199219 77.269531 85.402344 C 77.578125 85.609375 77.859375 85.84375 78.121094 86.101562 C 78.382812 86.363281 78.617188 86.648438 78.820312 86.957031 C 79.027344 87.261719 79.199219 87.585938 79.339844 87.929688 C 79.484375 88.269531 79.589844 88.621094 79.660156 88.984375 C 79.734375 89.34375 79.769531 89.710938 79.769531 90.082031 Z M 79.769531 90.082031 " fill-opacity="1" fill-rule="nonzero"/><path fill="#38b6ff" d="M 64.773438 61.960938 L 83.519531 61.960938 C 84.550781 61.960938 85.394531 61.117188 85.394531 60.085938 L 85.394531 56.335938 C 85.394531 52.753906 82.863281 49.753906 79.496094 49.015625 C 77.980469 50.082031 76.132812 50.710938 74.144531 50.710938 C 72.148438 50.710938 70.300781 50.082031 68.785156 49.015625 C 65.417969 49.753906 62.898438 52.753906 62.898438 56.335938 L 62.898438 60.085938 C 62.898438 61.117188 63.730469 61.960938 64.773438 61.960938 Z M 64.773438 61.960938 " fill-opacity="1" fill-rule="nonzero"/><g clip-path="url(#47965dc425)"><path fill="#38b6ff" d="M 79.769531 41.335938 C 79.769531 41.707031 79.734375 42.074219 79.660156 42.433594 C 79.589844 42.796875 79.484375 43.148438 79.339844 43.488281 C 79.199219 43.832031 79.027344 44.15625 78.820312 44.460938 C 78.617188 44.769531 78.382812 45.054688 78.121094 45.316406 C 77.859375 45.574219 77.578125 45.808594 77.269531 46.015625 C 76.960938 46.21875 76.636719 46.390625 76.296875 46.535156 C 75.957031 46.675781 75.605469 46.78125 75.242188 46.855469 C 74.878906 46.925781 74.515625 46.960938 74.144531 46.960938 C 73.777344 46.960938 73.410156 46.925781 73.046875 46.855469 C 72.6875 46.78125 72.335938 46.675781 71.992188 46.535156 C 71.652344 46.390625 71.328125 46.21875 71.019531 46.015625 C 70.714844 45.808594 70.429688 45.574219 70.167969 45.316406 C 69.90625 45.054688 69.675781 44.769531 69.46875 44.460938 C 69.261719 44.15625 69.089844 43.832031 68.949219 43.488281 C 68.808594 43.148438 68.699219 42.796875 68.628906 42.433594 C 68.558594 42.074219 68.519531 41.707031 68.519531 41.335938 C 68.519531 40.96875 68.558594 40.601562 68.628906 40.242188 C 68.699219 39.878906 68.808594 39.527344 68.949219 39.1875 C 69.089844 38.84375 69.261719 38.519531 69.46875 38.214844 C 69.675781 37.90625 69.90625 37.621094 70.167969 37.359375 C 70.429688 37.101562 70.714844 36.867188 71.019531 36.660156 C 71.328125 36.457031 71.652344 36.28125 71.992188 36.140625 C 72.335938 36 72.6875 35.894531 73.046875 35.820312 C 73.410156 35.75 73.777344 35.714844 74.144531 35.714844 C 74.515625 35.714844 74.878906 35.75 75.242188 35.820312 C 75.605469 35.894531 75.957031 36 76.296875 36.140625 C 76.636719 36.28125 76.960938 36.457031 77.269531 36.660156 C 77.578125 36.867188 77.859375 37.101562 78.121094 37.359375 C 78.382812 37.621094 78.617188 37.90625 78.820312 38.214844 C 79.027344 38.519531 79.199219 38.84375 79.339844 39.1875 C 79.484375 39.527344 79.589844 39.878906 79.660156 40.242188 C 79.734375 40.601562 79.769531 40.96875 79.769531 41.335938 Z M 79.769531 41.335938 " fill-opacity="1" fill-rule="nonzero"/></g><path fill="#38b6ff" d="M 106.953125 90.082031 C 106.953125 90.449219 106.917969 90.816406 106.84375 91.175781 C 106.773438 91.539062 106.664062 91.890625 106.523438 92.234375 C 106.382812 92.574219 106.210938 92.898438 106.003906 93.203125 C 105.800781 93.511719 105.566406 93.796875 105.304688 94.058594 C 105.042969 94.316406 104.761719 94.550781 104.453125 94.757812 C 104.144531 94.960938 103.820312 95.136719 103.480469 95.277344 C 103.140625 95.417969 102.789062 95.523438 102.425781 95.597656 C 102.0625 95.667969 101.699219 95.703125 101.328125 95.703125 C 100.960938 95.703125 100.59375 95.667969 100.230469 95.597656 C 99.867188 95.523438 99.515625 95.417969 99.175781 95.277344 C 98.835938 95.136719 98.511719 94.960938 98.203125 94.757812 C 97.898438 94.550781 97.613281 94.316406 97.351562 94.058594 C 97.089844 93.796875 96.855469 93.511719 96.652344 93.203125 C 96.445312 92.898438 96.273438 92.574219 96.132812 92.234375 C 95.992188 91.890625 95.882812 91.539062 95.8125 91.175781 C 95.742188 90.816406 95.703125 90.449219 95.703125 90.082031 C 95.703125 89.710938 95.742188 89.34375 95.8125 88.984375 C 95.882812 88.621094 95.992188 88.269531 96.132812 87.929688 C 96.273438 87.585938 96.445312 87.261719 96.652344 86.957031 C 96.855469 86.648438 97.089844 86.363281 97.351562 86.101562 C 97.613281 85.84375 97.898438 85.609375 98.203125 85.402344 C 98.511719 85.199219 98.835938 85.027344 99.175781 84.882812 C 99.515625 84.742188 99.867188 84.636719 100.230469 84.5625 C 100.59375 84.492188 100.960938 84.457031 101.328125 84.457031 C 101.699219 84.457031 102.0625 84.492188 102.425781 84.5625 C 102.789062 84.636719 103.140625 84.742188 103.480469 84.882812 C 103.820312 85.027344 104.144531 85.199219 104.453125 85.402344 C 104.761719 85.609375 105.042969 85.84375 105.304688 86.101562 C 105.566406 86.363281 105.800781 86.648438 106.003906 86.957031 C 106.210938 87.261719 106.382812 87.585938 106.523438 87.929688 C 106.664062 88.269531 106.773438 88.621094 106.84375 88.984375 C 106.917969 89.34375 106.953125 89.710938 106.953125 90.082031 Z M 106.953125 90.082031 " fill-opacity="1" fill-rule="nonzero"/><path fill="#38b6ff" d="M 53.523438 90.082031 C 53.523438 90.449219 53.488281 90.816406 53.414062 91.175781 C 53.34375 91.539062 53.238281 91.890625 53.09375 92.234375 C 52.953125 92.574219 52.78125 92.898438 52.574219 93.203125 C 52.371094 93.511719 52.136719 93.796875 51.875 94.058594 C 51.613281 94.316406 51.332031 94.550781 51.023438 94.757812 C 50.714844 94.960938 50.394531 95.136719 50.050781 95.277344 C 49.710938 95.417969 49.359375 95.523438 48.996094 95.597656 C 48.632812 95.667969 48.269531 95.703125 47.898438 95.703125 C 47.53125 95.703125 47.164062 95.667969 46.800781 95.597656 C 46.441406 95.523438 46.089844 95.417969 45.746094 95.277344 C 45.40625 95.136719 45.082031 94.960938 44.773438 94.757812 C 44.46875 94.550781 44.183594 94.316406 43.921875 94.058594 C 43.660156 93.796875 43.429688 93.511719 43.222656 93.203125 C 43.019531 92.898438 42.84375 92.574219 42.703125 92.234375 C 42.5625 91.890625 42.457031 91.539062 42.382812 91.175781 C 42.3125 90.816406 42.273438 90.449219 42.273438 90.082031 C 42.273438 89.710938 42.3125 89.34375 42.382812 88.984375 C 42.457031 88.621094 42.5625 88.269531 42.703125 87.929688 C 42.84375 87.585938 43.019531 87.261719 43.222656 86.957031 C 43.429688 86.648438 43.660156 86.363281 43.921875 86.101562 C 44.183594 85.84375 44.46875 85.609375 44.773438 85.402344 C 45.082031 85.199219 45.40625 85.027344 45.746094 84.882812 C 46.089844 84.742188 46.441406 84.636719 46.800781 84.5625 C 47.164062 84.492188 47.53125 84.457031 47.898438 84.457031 C 48.269531 84.457031 48.632812 84.492188 48.996094 84.5625 C 49.359375 84.636719 49.710938 84.742188 50.050781 84.882812 C 50.394531 85.027344 50.714844 85.199219 51.023438 85.402344 C 51.332031 85.609375 51.613281 85.84375 51.875 86.101562 C 52.136719 86.363281 52.371094 86.648438 52.574219 86.957031 C 52.78125 87.261719 52.953125 87.585938 53.09375 87.929688 C 53.238281 88.269531 53.34375 88.621094 53.414062 88.984375 C 53.488281 89.34375 53.523438 89.710938 53.523438 90.082031 Z M 53.523438 90.082031 " fill-opacity="1" fill-rule="nonzero"/><path fill="#ffffff" d="M 51.476562 80.308594 L 51.476562 76.371094 C 51.476562 75.339844 52.3125 74.496094 53.351562 74.496094 L 73.976562 74.496094 L 73.976562 80.308594 C 74.574219 80.1875 75.203125 80.121094 75.847656 80.121094 C 76.488281 80.121094 77.113281 80.1875 77.722656 80.308594 L 77.722656 74.496094 L 99.28125 74.496094 C 100.3125 74.496094 101.15625 75.339844 101.15625 76.371094 L 101.15625 80.308594 C 101.757812 80.1875 102.386719 80.121094 103.03125 80.121094 C 103.671875 80.121094 104.296875 80.1875 104.90625 80.308594 L 104.90625 76.371094 C 104.90625 73.269531 102.375 70.746094 99.28125 70.746094 L 77.722656 70.746094 L 77.722656 65.121094 L 73.976562 65.121094 L 73.976562 70.746094 L 53.351562 70.746094 C 50.25 70.746094 47.730469 73.269531 47.730469 76.371094 L 47.730469 80.308594 C 48.328125 80.1875 48.957031 80.121094 49.601562 80.121094 C 50.242188 80.121094 50.867188 80.1875 51.476562 80.308594 Z M 51.476562 80.308594 " fill-opacity="1" fill-rule="nonzero"/><g clip-path="url(#479a9030e3)"><path fill="#ffffff" d="M 81.203125 97.171875 C 79.683594 98.238281 77.835938 98.867188 75.847656 98.867188 C 73.851562 98.867188 72.007812 98.238281 70.488281 97.171875 C 67.121094 97.910156 64.601562 100.910156 64.601562 104.492188 L 64.601562 108.242188 C 64.601562 109.273438 65.433594 110.117188 66.476562 110.117188 L 85.222656 110.117188 C 86.253906 110.117188 87.097656 109.273438 87.097656 108.242188 L 87.097656 104.492188 C 87.097656 100.910156 84.566406 97.910156 81.203125 97.171875 Z M 81.203125 97.171875 " fill-opacity="1" fill-rule="nonzero"/></g><g clip-path="url(#d572106ca6)"><path fill="#ffffff" d="M 108.121094 97.347656 C 106.652344 98.304688 104.90625 98.867188 103.03125 98.867188 C 100.960938 98.867188 99.050781 98.183594 97.492188 97.039062 C 93.761719 97.460938 90.847656 100.640625 90.847656 104.492188 L 90.847656 108.242188 C 90.847656 109.273438 91.679688 110.117188 92.722656 110.117188 L 111.46875 110.117188 C 112.5 110.117188 113.34375 109.273438 113.34375 108.242188 L 113.34375 104.492188 C 113.34375 101.152344 111.140625 98.3125 108.121094 97.347656 Z M 108.121094 97.347656 " fill-opacity="1" fill-rule="nonzero"/></g><g clip-path="url(#c7451b9a4a)"><path fill="#ffffff" d="M 54.957031 97.171875 C 53.4375 98.238281 51.589844 98.867188 49.601562 98.867188 C 47.605469 98.867188 45.761719 98.238281 44.242188 97.171875 C 40.875 97.910156 38.355469 100.910156 38.355469 104.492188 L 38.355469 108.242188 C 38.355469 109.273438 39.1875 110.117188 40.230469 110.117188 L 58.976562 110.117188 C 60.007812 110.117188 60.851562 109.273438 60.851562 108.242188 L 60.851562 104.492188 C 60.851562 100.910156 58.320312 97.910156 54.957031 97.171875 Z M 54.957031 97.171875 " fill-opacity="1" fill-rule="nonzero"/></g><path fill="#ffffff" d="M 81.472656 89.492188 C 81.472656 89.863281 81.4375 90.230469 81.367188 90.589844 C 81.292969 90.953125 81.1875 91.304688 81.046875 91.644531 C 80.902344 91.988281 80.730469 92.3125 80.527344 92.617188 C 80.320312 92.925781 80.085938 93.210938 79.828125 93.46875 C 79.566406 93.730469 79.28125 93.964844 78.972656 94.167969 C 78.667969 94.375 78.34375 94.546875 78 94.691406 C 77.660156 94.832031 77.308594 94.9375 76.945312 95.007812 C 76.585938 95.082031 76.21875 95.117188 75.847656 95.117188 C 75.480469 95.117188 75.113281 95.082031 74.753906 95.007812 C 74.390625 94.9375 74.039062 94.832031 73.695312 94.691406 C 73.355469 94.546875 73.03125 94.375 72.726562 94.167969 C 72.417969 93.964844 72.132812 93.730469 71.871094 93.46875 C 71.613281 93.210938 71.378906 92.925781 71.171875 92.617188 C 70.96875 92.3125 70.792969 91.988281 70.652344 91.644531 C 70.511719 91.304688 70.40625 90.953125 70.332031 90.589844 C 70.261719 90.230469 70.226562 89.863281 70.226562 89.492188 C 70.226562 89.125 70.261719 88.757812 70.332031 88.394531 C 70.40625 88.035156 70.511719 87.683594 70.652344 87.339844 C 70.792969 87 70.96875 86.675781 71.171875 86.367188 C 71.378906 86.0625 71.613281 85.777344 71.871094 85.515625 C 72.132812 85.253906 72.417969 85.023438 72.726562 84.816406 C 73.03125 84.613281 73.355469 84.4375 73.695312 84.296875 C 74.039062 84.15625 74.390625 84.050781 74.753906 83.976562 C 75.113281 83.90625 75.480469 83.871094 75.847656 83.871094 C 76.21875 83.871094 76.585938 83.90625 76.945312 83.976562 C 77.308594 84.050781 77.660156 84.15625 78 84.296875 C 78.34375 84.4375 78.667969 84.613281 78.972656 84.816406 C 79.28125 85.023438 79.566406 85.253906 79.828125 85.515625 C 80.085938 85.777344 80.320312 86.0625 80.527344 86.367188 C 80.730469 86.675781 80.902344 87 81.046875 87.339844 C 81.1875 87.683594 81.292969 88.035156 81.367188 88.394531 C 81.4375 88.757812 81.472656 89.125 81.472656 89.492188 Z M 81.472656 89.492188 " fill-opacity="1" fill-rule="nonzero"/><path fill="#ffffff" d="M 66.476562 61.371094 L 85.222656 61.371094 C 86.253906 61.371094 87.097656 60.53125 87.097656 59.5 L 87.097656 55.75 C 87.097656 52.167969 84.566406 49.167969 81.203125 48.429688 C 79.683594 49.496094 77.835938 50.125 75.847656 50.125 C 73.851562 50.125 72.007812 49.496094 70.488281 48.429688 C 67.121094 49.167969 64.601562 52.167969 64.601562 55.75 L 64.601562 59.5 C 64.601562 60.53125 65.433594 61.371094 66.476562 61.371094 Z M 66.476562 61.371094 " fill-opacity="1" fill-rule="nonzero"/><g clip-path="url(#5b1a7a795c)"><path fill="#ffffff" d="M 81.472656 40.75 C 81.472656 41.121094 81.4375 41.484375 81.367188 41.847656 C 81.292969 42.210938 81.1875 42.5625 81.046875 42.902344 C 80.902344 43.246094 80.730469 43.570312 80.527344 43.875 C 80.320312 44.183594 80.085938 44.46875 79.828125 44.726562 C 79.566406 44.988281 79.28125 45.222656 78.972656 45.425781 C 78.667969 45.632812 78.34375 45.804688 78 45.945312 C 77.660156 46.089844 77.308594 46.195312 76.945312 46.265625 C 76.585938 46.339844 76.21875 46.375 75.847656 46.375 C 75.480469 46.375 75.113281 46.339844 74.753906 46.265625 C 74.390625 46.195312 74.039062 46.089844 73.695312 45.945312 C 73.355469 45.804688 73.03125 45.632812 72.726562 45.425781 C 72.417969 45.222656 72.132812 44.988281 71.871094 44.726562 C 71.613281 44.46875 71.378906 44.183594 71.171875 43.875 C 70.96875 43.570312 70.792969 43.246094 70.652344 42.902344 C 70.511719 42.5625 70.40625 42.210938 70.332031 41.847656 C 70.261719 41.484375 70.226562 41.121094 70.226562 40.75 C 70.226562 40.382812 70.261719 40.015625 70.332031 39.652344 C 70.40625 39.292969 70.511719 38.941406 70.652344 38.597656 C 70.792969 38.257812 70.96875 37.933594 71.171875 37.625 C 71.378906 37.320312 71.613281 37.035156 71.871094 36.773438 C 72.132812 36.511719 72.417969 36.28125 72.726562 36.074219 C 73.03125 35.871094 73.355469 35.695312 73.695312 35.554688 C 74.039062 35.414062 74.390625 35.308594 74.753906 35.234375 C 75.113281 35.164062 75.480469 35.128906 75.847656 35.128906 C 76.21875 35.128906 76.585938 35.164062 76.945312 35.234375 C 77.308594 35.308594 77.660156 35.414062 78 35.554688 C 78.34375 35.695312 78.667969 35.871094 78.972656 36.074219 C 79.28125 36.28125 79.566406 36.511719 79.828125 36.773438 C 80.085938 37.035156 80.320312 37.320312 80.527344 37.625 C 80.730469 37.933594 80.902344 38.257812 81.046875 38.597656 C 81.1875 38.941406 81.292969 39.292969 81.367188 39.652344 C 81.4375 40.015625 81.472656 40.382812 81.472656 40.75 Z M 81.472656 40.75 " fill-opacity="1" fill-rule="nonzero"/></g><path fill="#ffffff" d="M 108.65625 89.492188 C 108.65625 89.863281 108.621094 90.230469 108.546875 90.589844 C 108.476562 90.953125 108.371094 91.304688 108.230469 91.644531 C 108.085938 91.988281 107.914062 92.3125 107.707031 92.617188 C 107.503906 92.925781 107.269531 93.210938 107.007812 93.46875 C 106.75 93.730469 106.464844 93.964844 106.15625 94.167969 C 105.851562 94.375 105.527344 94.546875 105.183594 94.691406 C 104.84375 94.832031 104.492188 94.9375 104.128906 95.007812 C 103.769531 95.082031 103.402344 95.117188 103.03125 95.117188 C 102.664062 95.117188 102.296875 95.082031 101.933594 95.007812 C 101.574219 94.9375 101.222656 94.832031 100.878906 94.691406 C 100.539062 94.546875 100.214844 94.375 99.90625 94.167969 C 99.601562 93.964844 99.316406 93.730469 99.054688 93.46875 C 98.792969 93.210938 98.5625 92.925781 98.355469 92.617188 C 98.152344 92.3125 97.976562 91.988281 97.835938 91.644531 C 97.695312 91.304688 97.589844 90.953125 97.515625 90.589844 C 97.445312 90.230469 97.410156 89.863281 97.410156 89.492188 C 97.410156 89.125 97.445312 88.757812 97.515625 88.394531 C 97.589844 88.035156 97.695312 87.683594 97.835938 87.339844 C 97.976562 87 98.152344 86.675781 98.355469 86.367188 C 98.5625 86.0625 98.792969 85.777344 99.054688 85.515625 C 99.316406 85.253906 99.601562 85.023438 99.90625 84.816406 C 100.214844 84.613281 100.539062 84.4375 100.878906 84.296875 C 101.222656 84.15625 101.574219 84.050781 101.933594 83.976562 C 102.296875 83.90625 102.664062 83.871094 103.03125 83.871094 C 103.402344 83.871094 103.769531 83.90625 104.128906 83.976562 C 104.492188 84.050781 104.84375 84.15625 105.183594 84.296875 C 105.527344 84.4375 105.851562 84.613281 106.15625 84.816406 C 106.464844 85.023438 106.75 85.253906 107.007812 85.515625 C 107.269531 85.777344 107.503906 86.0625 107.707031 86.367188 C 107.914062 86.675781 108.085938 87 108.230469 87.339844 C 108.371094 87.683594 108.476562 88.035156 108.546875 88.394531 C 108.621094 88.757812 108.65625 89.125 108.65625 89.492188 Z M 108.65625 89.492188 " fill-opacity="1" fill-rule="nonzero"/><path fill="#ffffff" d="M 55.226562 89.492188 C 55.226562 89.863281 55.191406 90.230469 55.121094 90.589844 C 55.046875 90.953125 54.941406 91.304688 54.800781 91.644531 C 54.65625 91.988281 54.484375 92.3125 54.28125 92.617188 C 54.074219 92.925781 53.839844 93.210938 53.582031 93.46875 C 53.320312 93.730469 53.035156 93.964844 52.726562 94.167969 C 52.421875 94.375 52.097656 94.546875 51.753906 94.691406 C 51.414062 94.832031 51.0625 94.9375 50.699219 95.007812 C 50.339844 95.082031 49.972656 95.117188 49.601562 95.117188 C 49.234375 95.117188 48.867188 95.082031 48.507812 95.007812 C 48.144531 94.9375 47.792969 94.832031 47.453125 94.691406 C 47.109375 94.546875 46.785156 94.375 46.480469 94.167969 C 46.171875 93.964844 45.886719 93.730469 45.625 93.46875 C 45.367188 93.210938 45.132812 92.925781 44.925781 92.617188 C 44.722656 92.3125 44.546875 91.988281 44.40625 91.644531 C 44.265625 91.304688 44.160156 90.953125 44.085938 90.589844 C 44.015625 90.230469 43.980469 89.863281 43.980469 89.492188 C 43.980469 89.125 44.015625 88.757812 44.085938 88.394531 C 44.160156 88.035156 44.265625 87.683594 44.40625 87.339844 C 44.546875 87 44.722656 86.675781 44.925781 86.367188 C 45.132812 86.0625 45.367188 85.777344 45.625 85.515625 C 45.886719 85.253906 46.171875 85.023438 46.480469 84.816406 C 46.785156 84.613281 47.109375 84.4375 47.453125 84.296875 C 47.792969 84.15625 48.144531 84.050781 48.507812 83.976562 C 48.867188 83.90625 49.234375 83.871094 49.601562 83.871094 C 49.972656 83.871094 50.339844 83.90625 50.699219 83.976562 C 51.0625 84.050781 51.414062 84.15625 51.753906 84.296875 C 52.097656 84.4375 52.421875 84.613281 52.726562 84.816406 C 53.035156 85.023438 53.320312 85.253906 53.582031 85.515625 C 53.839844 85.777344 54.074219 86.0625 54.28125 86.367188 C 54.484375 86.675781 54.65625 87 54.800781 87.339844 C 54.941406 87.683594 55.046875 88.035156 55.121094 88.394531 C 55.191406 88.757812 55.226562 89.125 55.226562 89.492188 Z M 55.226562 89.492188 " fill-opacity="1" fill-rule="nonzero"/></svg>