<svg xmlns="http://www.w3.org/2000/svg" xmlns:xlink="http://www.w3.org/1999/xlink" width="200" zoomAndPan="magnify" viewBox="0 0 150 149.999998" height="200" preserveAspectRatio="xMidYMid meet" version="1.0"><defs><clipPath id="fb2daa3db9"><path d="M 70 73 L 97.210938 73 L 97.210938 101 L 70 101 Z M 70 73 " clip-rule="nonzero"/></clipPath><clipPath id="a362acbfd5"><path d="M 52.210938 41.941406 L 93 41.941406 L 93 113.941406 L 52.210938 113.941406 Z M 52.210938 41.941406 " clip-rule="nonzero"/></clipPath><clipPath id="d8d0bee3b1"><path d="M 73 70 L 100.210938 70 L 100.210938 98 L 73 98 Z M 73 70 " clip-rule="nonzero"/></clipPath><clipPath id="9d8ac36d04"><path d="M 55.210938 39.320312 L 96 39.320312 L 96 111.320312 L 55.210938 111.320312 Z M 55.210938 39.320312 " clip-rule="nonzero"/></clipPath></defs><path fill="#000000" d="M 135 75 C 135 76.964844 134.902344 78.925781 134.710938 80.882812 C 134.519531 82.835938 134.230469 84.777344 133.847656 86.707031 C 133.464844 88.632812 132.988281 90.535156 132.417969 92.417969 C 131.847656 94.296875 131.183594 96.144531 130.433594 97.960938 C 129.679688 99.777344 128.839844 101.550781 127.914062 103.285156 C 126.988281 105.015625 125.980469 106.699219 124.886719 108.335938 C 123.796875 109.96875 122.628906 111.542969 121.378906 113.0625 C 120.132812 114.582031 118.816406 116.035156 117.425781 117.425781 C 116.035156 118.816406 114.582031 120.132812 113.0625 121.378906 C 111.542969 122.628906 109.96875 123.796875 108.335938 124.886719 C 106.699219 125.980469 105.015625 126.988281 103.285156 127.914062 C 101.550781 128.839844 99.777344 129.679688 97.960938 130.433594 C 96.144531 131.183594 94.296875 131.847656 92.417969 132.417969 C 90.535156 132.988281 88.632812 133.464844 86.707031 133.847656 C 84.777344 134.230469 82.835938 134.519531 80.882812 134.710938 C 78.925781 134.902344 76.964844 135 75 135 C 73.035156 135 71.074219 134.902344 69.117188 134.710938 C 67.164062 134.519531 65.222656 134.230469 63.292969 133.847656 C 61.367188 133.464844 59.464844 132.988281 57.582031 132.417969 C 55.703125 131.847656 53.855469 131.183594 52.039062 130.433594 C 50.222656 129.679688 48.449219 128.839844 46.714844 127.914062 C 44.984375 126.988281 43.300781 125.980469 41.664062 124.886719 C 40.03125 123.796875 38.457031 122.628906 36.9375 121.378906 C 35.417969 120.132812 33.964844 118.816406 32.574219 117.425781 C 31.183594 116.035156 29.867188 114.582031 28.621094 113.0625 C 27.371094 111.542969 26.203125 109.96875 25.113281 108.335938 C 24.019531 106.699219 23.011719 105.015625 22.085938 103.285156 C 21.160156 101.550781 20.320312 99.777344 19.566406 97.960938 C 18.816406 96.144531 18.152344 94.296875 17.582031 92.417969 C 17.011719 90.535156 16.535156 88.632812 16.152344 86.707031 C 15.769531 84.777344 15.480469 82.835938 15.289062 80.882812 C 15.097656 78.925781 15 76.964844 15 75 C 15 73.035156 15.097656 71.074219 15.289062 69.117188 C 15.480469 67.164062 15.769531 65.222656 16.152344 63.292969 C 16.535156 61.367188 17.011719 59.464844 17.582031 57.582031 C 18.152344 55.703125 18.816406 53.855469 19.566406 52.039062 C 20.320312 50.222656 21.160156 48.449219 22.085938 46.714844 C 23.011719 44.984375 24.019531 43.300781 25.113281 41.664062 C 26.203125 40.03125 27.371094 38.457031 28.621094 36.9375 C 29.867188 35.417969 31.183594 33.964844 32.574219 32.574219 C 33.964844 31.183594 35.417969 29.867188 36.9375 28.621094 C 38.457031 27.371094 40.03125 26.203125 41.664062 25.113281 C 43.300781 24.019531 44.984375 23.011719 46.714844 22.085938 C 48.449219 21.160156 50.222656 20.320312 52.039062 19.566406 C 53.855469 18.816406 55.703125 18.152344 57.582031 17.582031 C 59.464844 17.011719 61.367188 16.535156 63.292969 16.152344 C 65.222656 15.769531 67.164062 15.480469 69.117188 15.289062 C 71.074219 15.097656 73.035156 15 75 15 C 76.964844 15 78.925781 15.097656 80.882812 15.289062 C 82.835938 15.480469 84.777344 15.769531 86.707031 16.152344 C 88.632812 16.535156 90.535156 17.011719 92.417969 17.582031 C 94.296875 18.152344 96.144531 18.816406 97.960938 19.566406 C 99.777344 20.320312 101.550781 21.160156 103.285156 22.085938 C 105.015625 23.011719 106.699219 24.019531 108.335938 25.113281 C 109.96875 26.203125 111.542969 27.371094 113.0625 28.621094 C 114.582031 29.867188 116.035156 31.183594 117.425781 32.574219 C 118.816406 33.964844 120.132812 35.417969 121.378906 36.9375 C 122.628906 38.457031 123.796875 40.03125 124.886719 41.664062 C 125.980469 43.300781 126.988281 44.984375 127.914062 46.714844 C 128.839844 48.449219 129.679688 50.222656 130.433594 52.039062 C 131.183594 53.855469 131.847656 55.703125 132.417969 57.582031 C 132.988281 59.464844 133.464844 61.367188 133.847656 63.292969 C 134.230469 65.222656 134.519531 67.164062 134.710938 69.117188 C 134.902344 71.074219 135 73.035156 135 75 Z M 135 75 " fill-opacity="1" fill-rule="nonzero"/><path fill="#38b6ff" d="M 81.464844 71.148438 C 83.878906 71.148438 85.902344 69.183594 85.902344 66.710938 L 85.902344 59.863281 C 85.902344 57.445312 83.9375 55.425781 81.464844 55.425781 L 74.617188 55.425781 C 72.199219 55.425781 70.179688 57.390625 70.179688 59.863281 L 70.179688 66.765625 C 70.179688 69.183594 72.144531 71.203125 74.617188 71.203125 L 81.464844 71.203125 Z M 81.464844 71.148438 " fill-opacity="1" fill-rule="nonzero"/><path fill="#38b6ff" d="M 59.847656 73.394531 C 58.109375 73.394531 56.703125 74.796875 56.703125 76.539062 L 56.703125 81.476562 C 56.703125 83.21875 58.109375 84.621094 59.847656 84.621094 L 64.789062 84.621094 C 66.53125 84.621094 67.933594 83.21875 67.933594 81.476562 L 67.933594 76.539062 C 67.933594 74.796875 66.53125 73.394531 64.789062 73.394531 Z M 59.847656 73.394531 " fill-opacity="1" fill-rule="nonzero"/><g clip-path="url(#fb2daa3db9)"><path fill="#38b6ff" d="M 97.128906 77.882812 C 97.128906 75.414062 95.109375 73.394531 92.640625 73.394531 L 74.671875 73.394531 C 72.199219 73.394531 70.179688 75.414062 70.179688 77.882812 L 70.179688 95.851562 C 70.179688 98.324219 72.199219 100.34375 74.671875 100.34375 L 92.640625 100.34375 C 95.109375 100.34375 97.128906 98.324219 97.128906 95.851562 Z M 91.964844 83.441406 C 90.054688 84.230469 88.257812 85.578125 86.855469 86.644531 C 83.765625 89.058594 81.242188 92.089844 81.183594 92.144531 C 80.960938 92.425781 80.679688 92.539062 80.34375 92.539062 C 80.285156 92.539062 80.285156 92.539062 80.230469 92.539062 C 79.835938 92.484375 79.554688 92.257812 79.332031 91.921875 C 77.816406 89 76.972656 87.824219 75.066406 86.25 C 74.617188 85.859375 74.503906 85.128906 74.894531 84.679688 C 75.289062 84.230469 76.019531 84.117188 76.46875 84.511719 C 78.320312 86.027344 79.277344 87.261719 80.511719 89.449219 C 81.578125 88.273438 83.375 86.476562 85.394531 84.847656 C 86.855469 83.667969 88.875 82.207031 91.011719 81.367188 C 91.570312 81.140625 92.246094 81.421875 92.46875 81.984375 C 92.808594 82.546875 92.527344 83.164062 91.964844 83.441406 Z M 91.964844 83.441406 " fill-opacity="1" fill-rule="nonzero"/></g><g clip-path="url(#a362acbfd5)"><path fill="#38b6ff" d="M 88.203125 41.949219 L 56.648438 41.949219 C 54.179688 41.949219 52.210938 43.972656 52.210938 46.441406 L 52.210938 109.328125 C 52.210938 111.796875 54.179688 113.820312 56.648438 113.820312 L 88.148438 113.820312 C 90.617188 113.820312 92.582031 111.796875 92.582031 109.328125 L 92.582031 102.589844 L 54.457031 102.589844 L 54.457031 53.179688 L 90.394531 53.179688 L 90.394531 71.148438 L 92.640625 71.148438 L 92.640625 46.441406 C 92.640625 43.972656 90.617188 41.949219 88.203125 41.949219 Z M 67.933594 107.082031 L 76.917969 107.082031 C 77.535156 107.082031 78.039062 107.585938 78.039062 108.203125 C 78.039062 108.820312 77.535156 109.328125 76.917969 109.328125 L 67.933594 109.328125 C 67.316406 109.328125 66.8125 108.820312 66.8125 108.203125 C 66.8125 107.585938 67.316406 107.082031 67.933594 107.082031 Z M 67.933594 48.6875 C 67.316406 48.6875 66.8125 48.183594 66.8125 47.566406 C 66.8125 46.949219 67.316406 46.441406 67.933594 46.441406 C 68.550781 46.441406 69.058594 46.949219 69.058594 47.566406 C 69.058594 48.183594 68.550781 48.6875 67.933594 48.6875 Z M 72.425781 48.6875 C 71.808594 48.6875 71.304688 48.183594 71.304688 47.566406 C 71.304688 46.949219 71.808594 46.441406 72.425781 46.441406 C 73.042969 46.441406 73.546875 46.949219 73.546875 47.566406 C 73.546875 48.183594 73.042969 48.6875 72.425781 48.6875 Z M 76.917969 48.6875 C 76.300781 48.6875 75.792969 48.183594 75.792969 47.566406 C 75.792969 46.949219 76.300781 46.441406 76.917969 46.441406 C 77.535156 46.441406 78.039062 46.949219 78.039062 47.566406 C 78.039062 48.183594 77.535156 48.6875 76.917969 48.6875 Z M 76.917969 48.6875 " fill-opacity="1" fill-rule="nonzero"/></g><path fill="#ffffff" d="M 84.460938 68.523438 C 86.878906 68.523438 88.898438 66.558594 88.898438 64.089844 L 88.898438 57.238281 C 88.898438 54.824219 86.933594 52.804688 84.460938 52.804688 L 77.613281 52.804688 C 75.199219 52.804688 73.175781 54.769531 73.175781 57.238281 L 73.175781 64.144531 C 73.175781 66.558594 75.140625 68.582031 77.613281 68.582031 L 84.460938 68.582031 Z M 84.460938 68.523438 " fill-opacity="1" fill-rule="nonzero"/><path fill="#ffffff" d="M 62.847656 70.769531 C 61.105469 70.769531 59.703125 72.171875 59.703125 73.914062 L 59.703125 78.855469 C 59.703125 80.597656 61.105469 82 62.847656 82 L 67.785156 82 C 69.527344 82 70.929688 80.597656 70.929688 78.855469 L 70.929688 73.914062 C 70.929688 72.171875 69.527344 70.769531 67.785156 70.769531 Z M 62.847656 70.769531 " fill-opacity="1" fill-rule="nonzero"/><g clip-path="url(#d8d0bee3b1)"><path fill="#ffffff" d="M 100.128906 75.261719 C 100.128906 72.792969 98.105469 70.769531 95.636719 70.769531 L 77.667969 70.769531 C 75.199219 70.769531 73.175781 72.792969 73.175781 75.261719 L 73.175781 93.230469 C 73.175781 95.699219 75.199219 97.722656 77.667969 97.722656 L 95.636719 97.722656 C 98.105469 97.722656 100.128906 95.699219 100.128906 93.230469 Z M 94.960938 80.820312 C 93.054688 81.605469 91.257812 82.953125 89.851562 84.019531 C 86.765625 86.433594 84.238281 89.46875 84.183594 89.523438 C 83.957031 89.804688 83.675781 89.917969 83.339844 89.917969 C 83.285156 89.917969 83.285156 89.917969 83.226562 89.917969 C 82.835938 89.859375 82.554688 89.636719 82.328125 89.296875 C 80.8125 86.378906 79.972656 85.199219 78.0625 83.628906 C 77.613281 83.234375 77.5 82.503906 77.894531 82.054688 C 78.285156 81.605469 79.015625 81.496094 79.464844 81.886719 C 81.320312 83.402344 82.273438 84.636719 83.507812 86.828125 C 84.574219 85.648438 86.371094 83.851562 88.394531 82.222656 C 89.851562 81.046875 91.875 79.585938 94.007812 78.742188 C 94.570312 78.519531 95.242188 78.800781 95.46875 79.359375 C 95.804688 79.921875 95.523438 80.539062 94.960938 80.820312 Z M 94.960938 80.820312 " fill-opacity="1" fill-rule="nonzero"/></g><g clip-path="url(#9d8ac36d04)"><path fill="#ffffff" d="M 91.199219 39.328125 L 59.644531 39.328125 C 57.175781 39.328125 55.210938 41.347656 55.210938 43.820312 L 55.210938 106.703125 C 55.210938 109.175781 57.175781 111.195312 59.644531 111.195312 L 91.144531 111.195312 C 93.613281 111.195312 95.582031 109.175781 95.582031 106.703125 L 95.582031 99.964844 L 57.457031 99.964844 L 57.457031 50.558594 L 93.390625 50.558594 L 93.390625 68.523438 L 95.636719 68.523438 L 95.636719 43.820312 C 95.636719 41.347656 93.613281 39.328125 91.199219 39.328125 Z M 70.929688 104.457031 L 79.914062 104.457031 C 80.53125 104.457031 81.039062 104.964844 81.039062 105.582031 C 81.039062 106.199219 80.53125 106.703125 79.914062 106.703125 L 70.929688 106.703125 C 70.3125 106.703125 69.808594 106.199219 69.808594 105.582031 C 69.808594 104.964844 70.3125 104.457031 70.929688 104.457031 Z M 70.929688 46.066406 C 70.3125 46.066406 69.808594 45.558594 69.808594 44.941406 C 69.808594 44.324219 70.3125 43.820312 70.929688 43.820312 C 71.550781 43.820312 72.054688 44.324219 72.054688 44.941406 C 72.054688 45.558594 71.550781 46.066406 70.929688 46.066406 Z M 75.421875 46.066406 C 74.804688 46.066406 74.300781 45.558594 74.300781 44.941406 C 74.300781 44.324219 74.804688 43.820312 75.421875 43.820312 C 76.039062 43.820312 76.546875 44.324219 76.546875 44.941406 C 76.546875 45.558594 76.039062 46.066406 75.421875 46.066406 Z M 79.914062 46.066406 C 79.296875 46.066406 78.792969 45.558594 78.792969 44.941406 C 78.792969 44.324219 79.296875 43.820312 79.914062 43.820312 C 80.53125 43.820312 81.039062 44.324219 81.039062 44.941406 C 81.039062 45.558594 80.53125 46.066406 79.914062 46.066406 Z M 79.914062 46.066406 " fill-opacity="1" fill-rule="nonzero"/></g></svg>