<svg xmlns="http://www.w3.org/2000/svg" xmlns:xlink="http://www.w3.org/1999/xlink" width="200" zoomAndPan="magnify" viewBox="0 0 150 149.999998" height="200" preserveAspectRatio="xMidYMid meet" version="1.0"><defs><clipPath id="84218a57a8"><path d="M 36.628906 43.398438 L 108.628906 43.398438 L 108.628906 115.398438 L 36.628906 115.398438 Z M 36.628906 43.398438 " clip-rule="nonzero"/></clipPath><clipPath id="deda1f0bab"><path d="M 38.371094 40.621094 L 110.371094 40.621094 L 110.371094 112.621094 L 38.371094 112.621094 Z M 38.371094 40.621094 " clip-rule="nonzero"/></clipPath></defs><path fill="#000000" d="M 135 75 C 135 76.964844 134.902344 78.925781 134.710938 80.882812 C 134.519531 82.835938 134.230469 84.777344 133.847656 86.707031 C 133.464844 88.632812 132.988281 90.535156 132.417969 92.417969 C 131.847656 94.296875 131.183594 96.144531 130.433594 97.960938 C 129.679688 99.777344 128.839844 101.550781 127.914062 103.285156 C 126.988281 105.015625 125.980469 106.699219 124.886719 108.335938 C 123.796875 109.96875 122.628906 111.542969 121.378906 113.0625 C 120.132812 114.582031 118.816406 116.035156 117.425781 117.425781 C 116.035156 118.816406 114.582031 120.132812 113.0625 121.378906 C 111.542969 122.628906 109.96875 123.796875 108.335938 124.886719 C 106.699219 125.980469 105.015625 126.988281 103.285156 127.914062 C 101.550781 128.839844 99.777344 129.679688 97.960938 130.433594 C 96.144531 131.183594 94.296875 131.847656 92.417969 132.417969 C 90.535156 132.988281 88.632812 133.464844 86.707031 133.847656 C 84.777344 134.230469 82.835938 134.519531 80.882812 134.710938 C 78.925781 134.902344 76.964844 135 75 135 C 73.035156 135 71.074219 134.902344 69.117188 134.710938 C 67.164062 134.519531 65.222656 134.230469 63.292969 133.847656 C 61.367188 133.464844 59.464844 132.988281 57.582031 132.417969 C 55.703125 131.847656 53.855469 131.183594 52.039062 130.433594 C 50.222656 129.679688 48.449219 128.839844 46.714844 127.914062 C 44.984375 126.988281 43.300781 125.980469 41.664062 124.886719 C 40.03125 123.796875 38.457031 122.628906 36.9375 121.378906 C 35.417969 120.132812 33.964844 118.816406 32.574219 117.425781 C 31.183594 116.035156 29.867188 114.582031 28.621094 113.0625 C 27.371094 111.542969 26.203125 109.96875 25.113281 108.335938 C 24.019531 106.699219 23.011719 105.015625 22.085938 103.285156 C 21.160156 101.550781 20.320312 99.777344 19.566406 97.960938 C 18.816406 96.144531 18.152344 94.296875 17.582031 92.417969 C 17.011719 90.535156 16.535156 88.632812 16.152344 86.707031 C 15.769531 84.777344 15.480469 82.835938 15.289062 80.882812 C 15.097656 78.925781 15 76.964844 15 75 C 15 73.035156 15.097656 71.074219 15.289062 69.117188 C 15.480469 67.164062 15.769531 65.222656 16.152344 63.292969 C 16.535156 61.367188 17.011719 59.464844 17.582031 57.582031 C 18.152344 55.703125 18.816406 53.855469 19.566406 52.039062 C 20.320312 50.222656 21.160156 48.449219 22.085938 46.714844 C 23.011719 44.984375 24.019531 43.300781 25.113281 41.664062 C 26.203125 40.03125 27.371094 38.457031 28.621094 36.9375 C 29.867188 35.417969 31.183594 33.964844 32.574219 32.574219 C 33.964844 31.183594 35.417969 29.867188 36.9375 28.621094 C 38.457031 27.371094 40.03125 26.203125 41.664062 25.113281 C 43.300781 24.019531 44.984375 23.011719 46.714844 22.085938 C 48.449219 21.160156 50.222656 20.320312 52.039062 19.566406 C 53.855469 18.816406 55.703125 18.152344 57.582031 17.582031 C 59.464844 17.011719 61.367188 16.535156 63.292969 16.152344 C 65.222656 15.769531 67.164062 15.480469 69.117188 15.289062 C 71.074219 15.097656 73.035156 15 75 15 C 76.964844 15 78.925781 15.097656 80.882812 15.289062 C 82.835938 15.480469 84.777344 15.769531 86.707031 16.152344 C 88.632812 16.535156 90.535156 17.011719 92.417969 17.582031 C 94.296875 18.152344 96.144531 18.816406 97.960938 19.566406 C 99.777344 20.320312 101.550781 21.160156 103.285156 22.085938 C 105.015625 23.011719 106.699219 24.019531 108.335938 25.113281 C 109.96875 26.203125 111.542969 27.371094 113.0625 28.621094 C 114.582031 29.867188 116.035156 31.183594 117.425781 32.574219 C 118.816406 33.964844 120.132812 35.417969 121.378906 36.9375 C 122.628906 38.457031 123.796875 40.03125 124.886719 41.664062 C 125.980469 43.300781 126.988281 44.984375 127.914062 46.714844 C 128.839844 48.449219 129.679688 50.222656 130.433594 52.039062 C 131.183594 53.855469 131.847656 55.703125 132.417969 57.582031 C 132.988281 59.464844 133.464844 61.367188 133.847656 63.292969 C 134.230469 65.222656 134.519531 67.164062 134.710938 69.117188 C 134.902344 71.074219 135 73.035156 135 75 Z M 135 75 " fill-opacity="1" fill-rule="nonzero"/><g clip-path="url(#84218a57a8)"><path fill="#38b6ff" d="M 100.34375 43.398438 C 88.417969 43.398438 72.414062 51.578125 61.667969 65.644531 L 52.757812 65.644531 C 46.320312 65.644531 42.632812 70.449219 40.09375 75.53125 L 36.691406 82.332031 L 52.757812 82.332031 L 69.445312 99.019531 L 69.445312 115.085938 L 76.246094 111.6875 C 81.328125 109.148438 86.132812 105.457031 86.132812 99.019531 L 86.132812 90.109375 C 100.199219 79.363281 108.382812 63.363281 108.382812 51.4375 L 108.382812 43.398438 Z M 86.132812 60.082031 C 89.207031 60.082031 91.695312 62.574219 91.695312 65.644531 C 91.695312 68.71875 89.207031 71.207031 86.132812 71.207031 C 83.0625 71.207031 80.570312 68.71875 80.570312 65.644531 C 80.570312 62.574219 83.0625 60.082031 86.132812 60.082031 Z M 49.976562 93.457031 L 47.195312 96.238281 C 43.179688 100.253906 41.636719 110.144531 41.636719 110.144531 C 41.636719 110.144531 51.078125 109.042969 55.539062 104.582031 L 58.320312 101.800781 Z M 49.976562 93.457031 " fill-opacity="1" fill-rule="nonzero"/></g><g clip-path="url(#deda1f0bab)"><path fill="#ffffff" d="M 102.085938 40.621094 C 90.160156 40.621094 74.160156 48.804688 63.414062 62.871094 L 54.503906 62.871094 C 48.066406 62.871094 44.375 67.675781 41.835938 72.757812 L 38.4375 79.558594 L 54.503906 79.558594 L 71.191406 96.246094 L 71.191406 112.3125 L 77.992188 108.910156 C 83.074219 106.371094 87.878906 102.679688 87.878906 96.246094 L 87.878906 87.335938 C 101.945312 76.589844 110.125 60.585938 110.125 48.660156 L 110.125 40.621094 Z M 87.878906 57.308594 C 90.949219 57.308594 93.441406 59.796875 93.441406 62.871094 C 93.441406 65.941406 90.949219 68.433594 87.878906 68.433594 C 84.804688 68.433594 82.316406 65.941406 82.316406 62.871094 C 82.316406 59.796875 84.804688 57.308594 87.878906 57.308594 Z M 51.722656 90.683594 L 48.941406 93.464844 C 44.925781 97.480469 43.378906 107.367188 43.378906 107.367188 C 43.378906 107.367188 52.824219 106.269531 57.285156 101.808594 L 60.066406 99.027344 Z M 51.722656 90.683594 " fill-opacity="1" fill-rule="nonzero"/></g></svg>