<svg xmlns="http://www.w3.org/2000/svg" xmlns:xlink="http://www.w3.org/1999/xlink" width="200" zoomAndPan="magnify" viewBox="0 0 150 149.999998" height="200" preserveAspectRatio="xMidYMid meet" version="1.0"><defs><clipPath id="7fb2aa075a"><path d="M 32 35.558594 L 110.671875 35.558594 L 110.671875 114.308594 L 32 114.308594 Z M 32 35.558594 " clip-rule="nonzero"/></clipPath><clipPath id="4dc50b6529"><path d="M 35.558594 35.558594 L 114.308594 35.558594 L 114.308594 114.308594 L 35.558594 114.308594 Z M 35.558594 35.558594 " clip-rule="nonzero"/></clipPath></defs><path fill="#000000" d="M 135 75 C 135 76.964844 134.902344 78.925781 134.710938 80.882812 C 134.519531 82.835938 134.230469 84.777344 133.847656 86.707031 C 133.464844 88.632812 132.988281 90.535156 132.417969 92.417969 C 131.847656 94.296875 131.183594 96.144531 130.433594 97.960938 C 129.679688 99.777344 128.839844 101.550781 127.914062 103.285156 C 126.988281 105.015625 125.980469 106.699219 124.886719 108.335938 C 123.796875 109.96875 122.628906 111.542969 121.378906 113.0625 C 120.132812 114.582031 118.816406 116.035156 117.425781 117.425781 C 116.035156 118.816406 114.582031 120.132812 113.0625 121.378906 C 111.542969 122.628906 109.96875 123.796875 108.335938 124.886719 C 106.699219 125.980469 105.015625 126.988281 103.285156 127.914062 C 101.550781 128.839844 99.777344 129.679688 97.960938 130.433594 C 96.144531 131.183594 94.296875 131.847656 92.417969 132.417969 C 90.535156 132.988281 88.632812 133.464844 86.707031 133.847656 C 84.777344 134.230469 82.835938 134.519531 80.882812 134.710938 C 78.925781 134.902344 76.964844 135 75 135 C 73.035156 135 71.074219 134.902344 69.117188 134.710938 C 67.164062 134.519531 65.222656 134.230469 63.292969 133.847656 C 61.367188 133.464844 59.464844 132.988281 57.582031 132.417969 C 55.703125 131.847656 53.855469 131.183594 52.039062 130.433594 C 50.222656 129.679688 48.449219 128.839844 46.714844 127.914062 C 44.984375 126.988281 43.300781 125.980469 41.664062 124.886719 C 40.03125 123.796875 38.457031 122.628906 36.9375 121.378906 C 35.417969 120.132812 33.964844 118.816406 32.574219 117.425781 C 31.183594 116.035156 29.867188 114.582031 28.621094 113.0625 C 27.371094 111.542969 26.203125 109.96875 25.113281 108.335938 C 24.019531 106.699219 23.011719 105.015625 22.085938 103.285156 C 21.160156 101.550781 20.320312 99.777344 19.566406 97.960938 C 18.816406 96.144531 18.152344 94.296875 17.582031 92.417969 C 17.011719 90.535156 16.535156 88.632812 16.152344 86.707031 C 15.769531 84.777344 15.480469 82.835938 15.289062 80.882812 C 15.097656 78.925781 15 76.964844 15 75 C 15 73.035156 15.097656 71.074219 15.289062 69.117188 C 15.480469 67.164062 15.769531 65.222656 16.152344 63.292969 C 16.535156 61.367188 17.011719 59.464844 17.582031 57.582031 C 18.152344 55.703125 18.816406 53.855469 19.566406 52.039062 C 20.320312 50.222656 21.160156 48.449219 22.085938 46.714844 C 23.011719 44.984375 24.019531 43.300781 25.113281 41.664062 C 26.203125 40.03125 27.371094 38.457031 28.621094 36.9375 C 29.867188 35.417969 31.183594 33.964844 32.574219 32.574219 C 33.964844 31.183594 35.417969 29.867188 36.9375 28.621094 C 38.457031 27.371094 40.03125 26.203125 41.664062 25.113281 C 43.300781 24.019531 44.984375 23.011719 46.714844 22.085938 C 48.449219 21.160156 50.222656 20.320312 52.039062 19.566406 C 53.855469 18.816406 55.703125 18.152344 57.582031 17.582031 C 59.464844 17.011719 61.367188 16.535156 63.292969 16.152344 C 65.222656 15.769531 67.164062 15.480469 69.117188 15.289062 C 71.074219 15.097656 73.035156 15 75 15 C 76.964844 15 78.925781 15.097656 80.882812 15.289062 C 82.835938 15.480469 84.777344 15.769531 86.707031 16.152344 C 88.632812 16.535156 90.535156 17.011719 92.417969 17.582031 C 94.296875 18.152344 96.144531 18.816406 97.960938 19.566406 C 99.777344 20.320312 101.550781 21.160156 103.285156 22.085938 C 105.015625 23.011719 106.699219 24.019531 108.335938 25.113281 C 109.96875 26.203125 111.542969 27.371094 113.0625 28.621094 C 114.582031 29.867188 116.035156 31.183594 117.425781 32.574219 C 118.816406 33.964844 120.132812 35.417969 121.378906 36.9375 C 122.628906 38.457031 123.796875 40.03125 124.886719 41.664062 C 125.980469 43.300781 126.988281 44.984375 127.914062 46.714844 C 128.839844 48.449219 129.679688 50.222656 130.433594 52.039062 C 131.183594 53.855469 131.847656 55.703125 132.417969 57.582031 C 132.988281 59.464844 133.464844 61.367188 133.847656 63.292969 C 134.230469 65.222656 134.519531 67.164062 134.710938 69.117188 C 134.902344 71.074219 135 73.035156 135 75 Z M 135 75 " fill-opacity="1" fill-rule="nonzero"/><g clip-path="url(#7fb2aa075a)"><path fill="#38b6ff" d="M 69.816406 35.558594 L 69.816406 45.847656 L 76.675781 45.847656 L 76.675781 35.558594 Z M 46.574219 45.191406 L 41.722656 50.039062 L 49 57.3125 L 53.847656 52.464844 Z M 90.65625 45.847656 C 90.210938 45.847656 89.84375 46.179688 89.789062 46.617188 L 89.390625 50.085938 C 87.730469 50.664062 86.234375 51.539062 84.933594 52.664062 L 81.71875 51.277344 C 81.316406 51.105469 80.839844 51.257812 80.621094 51.640625 L 77.414062 57.199219 C 77.191406 57.582031 77.292969 58.066406 77.648438 58.332031 L 80.414062 60.390625 C 80.25 61.234375 80.152344 62.101562 80.152344 62.996094 C 80.152344 63.886719 80.25 64.753906 80.414062 65.601562 L 77.648438 67.65625 C 77.292969 67.917969 77.191406 68.402344 77.414062 68.789062 L 80.621094 74.347656 C 80.839844 74.730469 81.316406 74.890625 81.71875 74.714844 L 84.933594 73.324219 C 86.234375 74.449219 87.730469 75.324219 89.390625 75.902344 L 89.789062 79.371094 C 89.84375 79.8125 90.210938 80.140625 90.65625 80.140625 L 97.078125 80.140625 C 97.519531 80.140625 97.890625 79.8125 97.941406 79.371094 L 98.34375 75.902344 C 100.003906 75.324219 101.503906 74.449219 102.804688 73.324219 L 106.015625 74.703125 C 106.417969 74.878906 106.894531 74.726562 107.113281 74.339844 L 110.320312 68.78125 C 110.542969 68.402344 110.441406 67.914062 110.085938 67.648438 L 107.320312 65.601562 C 107.484375 64.753906 107.589844 63.886719 107.589844 62.996094 C 107.589844 62.101562 107.484375 61.234375 107.320312 60.390625 L 110.085938 58.332031 C 110.441406 58.070312 110.539062 57.585938 110.320312 57.199219 L 107.113281 51.640625 C 106.894531 51.257812 106.417969 51.097656 106.015625 51.273438 L 102.804688 52.664062 C 101.503906 51.539062 100.003906 50.664062 98.34375 50.085938 L 97.941406 46.617188 C 97.890625 46.179688 97.519531 45.847656 97.078125 45.847656 Z M 72.132812 52.765625 C 59.414062 53.351562 49.238281 63.851562 49.238281 76.710938 C 49.238281 86.023438 54.660156 94.445312 62.957031 98.382812 L 62.957031 107.578125 C 62.957031 111.359375 66.035156 114.4375 69.816406 114.4375 L 76.675781 114.4375 C 80.457031 114.4375 83.535156 111.359375 83.535156 107.578125 L 83.535156 98.382812 C 88.605469 95.972656 92.578125 91.878906 94.921875 86.941406 C 94.554688 86.960938 94.195312 87 93.824219 87 C 80.566406 87 69.816406 76.253906 69.816406 62.996094 C 69.816406 59.328125 70.664062 55.875 72.132812 52.765625 Z M 93.871094 56.992188 C 97.183594 56.992188 99.871094 59.679688 99.871094 62.996094 C 99.871094 66.3125 97.183594 68.996094 93.871094 68.996094 C 90.558594 68.996094 87.867188 66.3125 87.867188 62.996094 C 87.867188 59.679688 90.558594 56.992188 93.871094 56.992188 Z M 32.09375 73.28125 L 32.09375 80.140625 L 42.378906 80.140625 L 42.378906 73.28125 Z M 49 96.109375 L 41.722656 103.386719 L 46.574219 108.234375 L 53.847656 100.960938 Z M 97.492188 96.109375 L 92.644531 100.960938 L 99.917969 108.234375 L 104.769531 103.386719 Z M 97.492188 96.109375 " fill-opacity="1" fill-rule="nonzero"/></g><g clip-path="url(#4dc50b6529)"><path fill="#ffffff" d="M 73.453125 35.558594 L 73.453125 45.847656 L 80.3125 45.847656 L 80.3125 35.558594 Z M 50.210938 45.191406 L 45.363281 50.039062 L 52.636719 57.3125 L 57.484375 52.464844 Z M 94.292969 45.847656 C 93.851562 45.847656 93.480469 46.179688 93.429688 46.617188 L 93.027344 50.085938 C 91.371094 50.664062 89.871094 51.539062 88.574219 52.664062 L 85.355469 51.277344 C 84.953125 51.105469 84.476562 51.257812 84.257812 51.640625 L 81.050781 57.199219 C 80.828125 57.582031 80.929688 58.066406 81.285156 58.332031 L 84.050781 60.390625 C 83.886719 61.234375 83.789062 62.101562 83.789062 62.996094 C 83.789062 63.886719 83.886719 64.753906 84.050781 65.601562 L 81.285156 67.65625 C 80.929688 67.917969 80.832031 68.402344 81.050781 68.789062 L 84.257812 74.347656 C 84.476562 74.730469 84.953125 74.890625 85.355469 74.714844 L 88.574219 73.324219 C 89.871094 74.449219 91.371094 75.324219 93.027344 75.902344 L 93.429688 79.371094 C 93.480469 79.8125 93.851562 80.140625 94.292969 80.140625 L 100.714844 80.140625 C 101.160156 80.140625 101.527344 79.8125 101.582031 79.371094 L 101.980469 75.902344 C 103.640625 75.324219 105.144531 74.449219 106.445312 73.324219 L 109.652344 74.703125 C 110.054688 74.878906 110.53125 74.726562 110.75 74.339844 L 113.957031 68.78125 C 114.183594 68.402344 114.078125 67.914062 113.722656 67.648438 L 110.957031 65.601562 C 111.121094 64.753906 111.226562 63.886719 111.226562 62.996094 C 111.226562 62.101562 111.121094 61.234375 110.957031 60.390625 L 113.722656 58.332031 C 114.078125 58.070312 114.179688 57.585938 113.957031 57.199219 L 110.75 51.640625 C 110.53125 51.257812 110.054688 51.097656 109.652344 51.273438 L 106.445312 52.664062 C 105.144531 51.539062 103.640625 50.664062 101.980469 50.085938 L 101.582031 46.617188 C 101.527344 46.179688 101.160156 45.847656 100.714844 45.847656 Z M 75.773438 52.765625 C 63.050781 53.351562 52.878906 63.851562 52.878906 76.710938 C 52.878906 86.023438 58.300781 94.445312 66.59375 98.382812 L 66.59375 107.578125 C 66.59375 111.359375 69.671875 114.4375 73.453125 114.4375 L 80.3125 114.4375 C 84.097656 114.4375 87.171875 111.359375 87.171875 107.578125 L 87.171875 98.382812 C 92.246094 95.972656 96.21875 91.878906 98.558594 86.941406 C 98.191406 86.960938 97.832031 87 97.460938 87 C 84.203125 87 73.453125 76.253906 73.453125 62.996094 C 73.453125 59.328125 74.300781 55.875 75.773438 52.765625 Z M 97.507812 56.992188 C 100.820312 56.992188 103.507812 59.679688 103.507812 62.996094 C 103.507812 66.3125 100.820312 68.996094 97.507812 68.996094 C 94.195312 68.996094 91.507812 66.3125 91.507812 62.996094 C 91.507812 59.679688 94.195312 56.992188 97.507812 56.992188 Z M 35.730469 73.28125 L 35.730469 80.140625 L 46.019531 80.140625 L 46.019531 73.28125 Z M 52.636719 96.109375 L 45.363281 103.386719 L 50.210938 108.234375 L 57.484375 100.960938 Z M 101.132812 96.109375 L 96.28125 100.960938 L 103.554688 108.234375 L 108.40625 103.386719 Z M 101.132812 96.109375 " fill-opacity="1" fill-rule="nonzero"/></g></svg>