<svg width="141" height="35" viewBox="0 0 141 35" fill="none" xmlns="http://www.w3.org/2000/svg">
<path d="M55.3411 13.8943C56.3162 12.8111 56.8108 11.4637 56.8108 9.88576C56.8108 8.00645 56.1531 6.48528 54.8606 5.36302C53.5681 4.24076 51.9831 3.69824 50.1056 3.69824H42.9058V30.7939H51.9902C54.3624 30.7939 56.4332 29.9216 58.1405 28.2001C59.8478 26.4786 60.7113 24.4184 60.7113 22.0729C60.7317 20.1902 60.1338 18.3528 59.0093 16.8427C58.0682 15.5534 56.8026 14.5361 55.3411 13.8943ZM46.4764 21.8317C46.4764 20.4258 47.0083 19.2433 48.0969 18.2167C49.1433 17.2096 50.5452 16.6566 51.9973 16.6778C52.6675 16.6672 53.3324 16.7975 53.949 17.0601C54.5656 17.3228 55.1202 17.712 55.5769 18.2026C56.056 18.6769 56.4351 19.2424 56.6918 19.8658C56.9485 20.4891 57.0776 21.1576 57.0714 21.8317C57.0714 23.4947 56.614 24.8262 55.7116 25.7889C54.8092 26.7516 53.5681 27.2268 51.9973 27.2268H46.4729L46.4764 21.8317ZM50.3946 12.9494C48.6217 13.7277 47.331 14.3908 46.4764 14.9705V7.25828H50.1003C51.0559 7.25828 51.8236 7.48167 52.3785 7.91958C52.9104 8.33799 53.1621 8.98334 53.1621 9.8698C53.1621 11.0789 52.2296 12.1108 50.3911 12.9334" fill="black"/>
<path d="M74.7352 23.44C74.7352 24.7537 74.3806 25.7926 73.6714 26.5284C72.9622 27.2642 72.0137 27.6294 70.7957 27.6294C69.7424 27.6594 68.7109 27.3264 67.8739 26.6862C67.1027 26.0781 66.7269 25.1491 66.7269 23.8495V13.1499H63.2324V23.924C63.2324 26.3032 63.9061 28.1329 65.2358 29.3615C66.5655 30.5902 68.3119 31.193 70.466 31.193C72.1893 31.193 73.6235 30.6824 74.7352 29.6754V30.7905H78.2225V13.1499H74.7352V23.44Z" fill="black"/>
<path d="M96.998 13.1497H92.1863L85.5094 20.229H85.1052V3.69824H81.6196V30.7939H85.1052V23.6756H85.5094L92.227 30.7939H96.9944L88.6635 21.9523L96.998 13.1497Z" fill="black"/>
<path d="M105.419 12.7544C103.063 12.7544 101.035 13.6799 99.3912 15.5077C97.7477 17.3356 96.9375 19.55 96.9375 22.1509C96.9375 24.7518 97.769 26.9378 99.4054 28.6363C101.042 30.3347 103.109 31.1928 105.54 31.1928C107.318 31.2133 109.053 30.642 110.472 29.5688C111.884 28.5099 112.965 27.0693 113.585 25.4166L113.833 24.7695H110.256L110.117 25.0035C109.073 26.7676 107.577 27.6257 105.54 27.6257C104.197 27.6471 102.899 27.1447 101.921 26.2251C101.035 25.3971 100.503 24.2749 100.375 22.9079H114.14V22.4346C114.14 19.7752 113.323 17.4863 111.713 15.6088C110.103 13.7313 107.965 12.7544 105.419 12.7544ZM100.976 19.6688C101.316 18.788 101.87 18.0056 102.588 17.3924C103.409 16.6889 104.458 16.3071 105.54 16.318C106.623 16.3082 107.672 16.6968 108.488 17.4101C109.199 18.0221 109.75 18.7971 110.096 19.6688H100.976Z" fill="black"/>
<path d="M127.381 22.2218C126.42 21.4595 125.076 20.8602 123.377 20.4489C121.828 20.0677 120.78 19.6369 120.266 19.1706C119.789 18.7398 119.557 18.27 119.557 17.7345C119.557 17.3108 119.784 16.9527 120.25 16.6424C120.812 16.28 121.47 16.0948 122.138 16.1105C122.966 16.1105 123.634 16.2878 124.125 16.6602C124.58 16.9723 124.909 17.4352 125.054 17.9668L125.148 18.3214H128.772L128.634 17.7345C128.329 16.3407 127.583 15.0822 126.506 14.1461C125.434 13.2189 124.07 12.7544 122.459 12.7544C120.723 12.7544 119.206 13.249 117.945 14.2224C116.647 15.2241 115.995 16.5006 115.995 18.0182C115.995 19.5358 116.539 20.7592 117.612 21.5747C118.603 22.3282 119.927 22.9345 121.532 23.3707C121.793 23.4596 122.06 23.5324 122.331 23.5888C122.602 23.6465 122.869 23.7199 123.131 23.8086C123.267 23.8636 123.519 23.9593 123.888 24.0958C124.116 24.1688 124.333 24.2694 124.537 24.3954C124.679 24.4983 124.852 24.6348 125.069 24.8032C125.199 24.9014 125.302 25.0322 125.366 25.1826C125.428 25.3483 125.458 25.5237 125.457 25.7003C125.464 26.2958 125.234 26.8697 124.819 27.2959C124.406 27.7409 123.755 27.9679 122.868 27.9679C121.915 27.9679 121.205 27.78 120.759 27.413C120.312 27.046 119.925 26.4325 119.661 25.64L119.551 25.3138H115.828L115.965 25.8989C116.284 27.4127 117.106 28.7739 118.298 29.7603C119.48 30.7248 120.957 31.2141 122.702 31.2141C124.53 31.2141 126.035 30.7088 127.178 29.7089C128.322 28.709 128.93 27.3474 128.93 25.7109C128.93 24.2235 128.411 23.0516 127.382 22.2396" fill="black"/>
<path d="M141 16.637V13.1496H137.293C138.202 12.038 138.837 10.3448 139.177 8.1074L139.261 7.55957H135.681L135.626 7.96734C135.426 9.49738 134.871 10.7615 133.979 11.7295C133.087 12.6975 131.965 13.1478 130.508 13.1478H130.033V16.637H133.531V26.0955C133.531 27.3224 134.027 28.4251 135.004 29.3719C135.452 29.8246 135.987 30.1833 136.575 30.4268C137.164 30.6704 137.796 30.7939 138.433 30.7902H141V27.3082H138.433C138.241 27.3204 138.049 27.2891 137.871 27.2166C137.693 27.1442 137.533 27.0325 137.405 26.8898C137.141 26.5788 137.003 26.1804 137.018 25.7728V16.637H141Z" fill="black"/>
<path d="M7.75757 15.4138H15.4929V7.67141C15.4858 6.14986 15.0286 4.66444 14.1788 3.40233C13.3289 2.14023 12.1245 1.15792 10.7173 0.57921C9.31007 0.000496333 7.76305 -0.148727 6.27117 0.150347C4.77929 0.44942 3.40932 1.18341 2.33391 2.2598C1.2585 3.3362 0.525769 4.70684 0.228063 6.19899C-0.0696427 7.69115 0.0809978 9.23803 0.661 10.6447C1.241 12.0514 2.22441 13.2549 3.4873 14.1036C4.75018 14.9523 6.23602 15.4082 7.75757 15.4138ZM7.75757 11.7545C7.09069 11.7531 6.43444 11.5872 5.84697 11.2716C5.2595 10.956 4.75895 10.5004 4.38966 9.94507C4.02037 9.38977 3.79375 8.75196 3.72988 8.08814C3.666 7.42432 3.76685 6.755 4.02347 6.13947C4.2801 5.52394 4.68459 4.98121 5.2011 4.55937C5.71761 4.13753 6.33019 3.8496 6.98458 3.72109C7.63896 3.59258 8.31494 3.62746 8.95262 3.82264C9.59031 4.01782 10.17 4.36728 10.6403 4.84004C11.0154 5.21134 11.3134 5.65308 11.5173 6.13988C11.7211 6.62668 11.8268 7.14896 11.8282 7.67672V11.7545H7.75757Z" fill="#4B599E"/>
<path d="M0.0683594 26.7889C0.10824 28.8058 0.936631 30.7269 2.37599 32.1403C3.81534 33.5538 5.75112 34.3471 7.76844 34.3504C9.78576 34.3536 11.7241 33.5665 13.168 32.1577C14.6119 30.7489 15.4465 28.8305 15.4928 26.8137V19.0767H7.75045C5.71157 19.0888 3.7601 19.9062 2.32119 21.3508C0.88228 22.7953 0.0725329 24.75 0.0683594 26.7889M3.72768 26.7889C3.72952 25.7184 4.15389 24.6919 4.90854 23.9326C5.66318 23.1733 6.68706 22.7426 7.75754 22.7342H11.8353V26.8119C11.8329 27.8873 11.4035 28.9177 10.6414 29.6764C9.87935 30.4352 8.8471 30.8601 7.77173 30.8578C6.69636 30.8554 5.66597 30.426 4.90723 29.6639C4.14849 28.9018 3.72356 27.8696 3.72591 26.7942" fill="#4B599E"/>
<path d="M26.8933 19.0767H19.1562V26.8208C19.1622 28.3442 19.6191 29.8317 20.4693 31.0958C21.3196 32.3599 22.525 33.344 23.9338 33.9239C25.3425 34.5038 26.8914 34.6536 28.3851 34.3544C29.8789 34.0552 31.2506 33.3205 32.3273 32.2428C33.404 31.165 34.1376 29.7926 34.4354 28.2986C34.7332 26.8046 34.5819 25.2558 34.0007 23.8477C33.4195 22.4395 32.4344 21.2349 31.1695 20.3858C29.9047 19.5368 28.4167 19.0812 26.8933 19.0767ZM26.8933 22.7342C27.6933 22.7388 28.474 22.9799 29.1372 23.4271C29.8005 23.8744 30.3166 24.5079 30.6206 25.2478C30.9247 25.9878 31.003 26.8011 30.8458 27.5855C30.6886 28.3699 30.3029 29.0903 29.7373 29.6559C29.1716 30.2216 28.4513 30.6073 27.6669 30.7645C26.8825 30.9217 26.0692 30.8433 25.3292 30.5393C24.5893 30.2352 23.9558 29.7191 23.5085 29.0559C23.0612 28.3926 22.8201 27.6119 22.8156 26.8119V22.7342H26.8933Z" fill="#4B599E"/>
<path d="M34.5817 7.70311C34.5418 5.68618 33.7134 3.76512 32.2741 2.35168C30.8347 0.938225 28.8989 0.144858 26.8816 0.141612C24.8643 0.138365 22.926 0.925499 21.4821 2.33431C20.0382 3.74312 19.2036 5.6615 19.1572 7.67828V15.4136H26.9014C28.9404 15.4019 30.8921 14.5846 32.3311 13.14C33.7702 11.6953 34.5798 9.74039 34.5835 7.70133M30.9259 7.70133C30.925 8.77274 30.5004 9.80031 29.7448 10.5599C28.9892 11.3195 27.9639 11.7495 26.8925 11.756H22.8148V7.67828C22.8171 6.60292 23.2466 5.57253 24.0086 4.81379C24.7707 4.05505 25.803 3.63012 26.8783 3.63247C27.9537 3.63482 28.9841 4.06426 29.7428 4.82632C30.5016 5.58839 30.9265 6.62065 30.9241 7.69601" fill="#4B599E"/>
<path d="M19.1554 15.4175H15.4961V19.0768H19.1554V15.4175Z" fill="#DB7365"/>
</svg>
