<svg xmlns="http://www.w3.org/2000/svg" xmlns:xlink="http://www.w3.org/1999/xlink" width="200" zoomAndPan="magnify" viewBox="0 0 150 149.999998" height="200" preserveAspectRatio="xMidYMid meet" version="1.0"><defs><clipPath id="340d70b6cf"><path d="M 43.320312 42.3125 L 106.320312 42.3125 L 106.320312 107.5625 L 43.320312 107.5625 Z M 43.320312 42.3125 " clip-rule="nonzero"/></clipPath></defs><rect x="-15" width="180" fill="#ffffff" y="-15" height="179.999997" fill-opacity="1"/><rect x="-15" width="180" fill="#ffffff" y="-15" height="179.999997" fill-opacity="1"/><path fill="#000000" d="M 135 75 C 135 76.964844 134.902344 78.925781 134.710938 80.882812 C 134.519531 82.835938 134.230469 84.777344 133.847656 86.707031 C 133.464844 88.632812 132.988281 90.535156 132.417969 92.417969 C 131.847656 94.296875 131.183594 96.144531 130.433594 97.960938 C 129.679688 99.777344 128.839844 101.550781 127.914062 103.285156 C 126.988281 105.015625 125.980469 106.699219 124.886719 108.335938 C 123.796875 109.96875 122.628906 111.542969 121.378906 113.0625 C 120.132812 114.582031 118.816406 116.035156 117.425781 117.425781 C 116.035156 118.816406 114.582031 120.132812 113.0625 121.378906 C 111.542969 122.628906 109.96875 123.796875 108.335938 124.886719 C 106.699219 125.980469 105.015625 126.988281 103.285156 127.914062 C 101.550781 128.839844 99.777344 129.679688 97.960938 130.433594 C 96.144531 131.183594 94.296875 131.847656 92.417969 132.417969 C 90.535156 132.988281 88.632812 133.464844 86.707031 133.847656 C 84.777344 134.230469 82.835938 134.519531 80.882812 134.710938 C 78.925781 134.902344 76.964844 135 75 135 C 73.035156 135 71.074219 134.902344 69.117188 134.710938 C 67.164062 134.519531 65.222656 134.230469 63.292969 133.847656 C 61.367188 133.464844 59.464844 132.988281 57.582031 132.417969 C 55.703125 131.847656 53.855469 131.183594 52.039062 130.433594 C 50.222656 129.679688 48.449219 128.839844 46.714844 127.914062 C 44.984375 126.988281 43.300781 125.980469 41.664062 124.886719 C 40.03125 123.796875 38.457031 122.628906 36.9375 121.378906 C 35.417969 120.132812 33.964844 118.816406 32.574219 117.425781 C 31.183594 116.035156 29.867188 114.582031 28.621094 113.0625 C 27.371094 111.542969 26.203125 109.96875 25.113281 108.335938 C 24.019531 106.699219 23.011719 105.015625 22.085938 103.285156 C 21.160156 101.550781 20.320312 99.777344 19.566406 97.960938 C 18.816406 96.144531 18.152344 94.296875 17.582031 92.417969 C 17.011719 90.535156 16.535156 88.632812 16.152344 86.707031 C 15.769531 84.777344 15.480469 82.835938 15.289062 80.882812 C 15.097656 78.925781 15 76.964844 15 75 C 15 73.035156 15.097656 71.074219 15.289062 69.117188 C 15.480469 67.164062 15.769531 65.222656 16.152344 63.292969 C 16.535156 61.367188 17.011719 59.464844 17.582031 57.582031 C 18.152344 55.703125 18.816406 53.855469 19.566406 52.039062 C 20.320312 50.222656 21.160156 48.449219 22.085938 46.714844 C 23.011719 44.984375 24.019531 43.300781 25.113281 41.664062 C 26.203125 40.03125 27.371094 38.457031 28.621094 36.9375 C 29.867188 35.417969 31.183594 33.964844 32.574219 32.574219 C 33.964844 31.183594 35.417969 29.867188 36.9375 28.621094 C 38.457031 27.371094 40.03125 26.203125 41.664062 25.113281 C 43.300781 24.019531 44.984375 23.011719 46.714844 22.085938 C 48.449219 21.160156 50.222656 20.320312 52.039062 19.566406 C 53.855469 18.816406 55.703125 18.152344 57.582031 17.582031 C 59.464844 17.011719 61.367188 16.535156 63.292969 16.152344 C 65.222656 15.769531 67.164062 15.480469 69.117188 15.289062 C 71.074219 15.097656 73.035156 15 75 15 C 76.964844 15 78.925781 15.097656 80.882812 15.289062 C 82.835938 15.480469 84.777344 15.769531 86.707031 16.152344 C 88.632812 16.535156 90.535156 17.011719 92.417969 17.582031 C 94.296875 18.152344 96.144531 18.816406 97.960938 19.566406 C 99.777344 20.320312 101.550781 21.160156 103.285156 22.085938 C 105.015625 23.011719 106.699219 24.019531 108.335938 25.113281 C 109.96875 26.203125 111.542969 27.371094 113.0625 28.621094 C 114.582031 29.867188 116.035156 31.183594 117.425781 32.574219 C 118.816406 33.964844 120.132812 35.417969 121.378906 36.9375 C 122.628906 38.457031 123.796875 40.03125 124.886719 41.664062 C 125.980469 43.300781 126.988281 44.984375 127.914062 46.714844 C 128.839844 48.449219 129.679688 50.222656 130.433594 52.039062 C 131.183594 53.855469 131.847656 55.703125 132.417969 57.582031 C 132.988281 59.464844 133.464844 61.367188 133.847656 63.292969 C 134.230469 65.222656 134.519531 67.164062 134.710938 69.117188 C 134.902344 71.074219 135 73.035156 135 75 Z M 135 75 " fill-opacity="1" fill-rule="nonzero"/><g clip-path="url(#340d70b6cf)"><path fill="#ffffff" d="M 77.953125 62.335938 C 78.136719 62.335938 78.316406 62.371094 78.484375 62.441406 C 78.65625 62.511719 78.808594 62.613281 78.9375 62.746094 C 79.070312 62.875 79.171875 63.027344 79.242188 63.199219 C 79.3125 63.367188 79.347656 63.546875 79.347656 63.730469 C 79.347656 63.917969 79.3125 64.09375 79.242188 64.265625 C 79.171875 64.4375 79.070312 64.589844 78.941406 64.71875 C 78.808594 64.851562 78.660156 64.949219 78.488281 65.023438 C 78.316406 65.09375 78.136719 65.128906 77.953125 65.128906 C 77.769531 65.128906 77.589844 65.09375 77.417969 65.023438 C 77.246094 64.953125 77.097656 64.851562 76.964844 64.71875 C 76.835938 64.589844 76.734375 64.4375 76.664062 64.265625 C 76.59375 64.09375 76.558594 63.917969 76.558594 63.730469 C 76.558594 63.546875 76.59375 63.371094 76.664062 63.199219 C 76.734375 63.027344 76.835938 62.875 76.964844 62.746094 C 77.097656 62.613281 77.246094 62.515625 77.417969 62.445312 C 77.589844 62.371094 77.765625 62.335938 77.953125 62.335938 Z M 71.332031 63.730469 C 71.332031 63.917969 71.367188 64.09375 71.4375 64.265625 C 71.507812 64.4375 71.609375 64.585938 71.738281 64.71875 C 71.871094 64.847656 72.019531 64.949219 72.191406 65.019531 C 72.363281 65.089844 72.539062 65.128906 72.726562 65.128906 C 72.910156 65.128906 73.089844 65.089844 73.257812 65.019531 C 73.429688 64.949219 73.582031 64.847656 73.710938 64.71875 C 73.84375 64.585938 73.941406 64.4375 74.011719 64.265625 C 74.085938 64.09375 74.121094 63.917969 74.121094 63.730469 C 74.121094 63.546875 74.085938 63.367188 74.011719 63.199219 C 73.941406 63.027344 73.84375 62.875 73.710938 62.746094 C 73.582031 62.613281 73.429688 62.515625 73.257812 62.445312 C 73.085938 62.371094 72.910156 62.335938 72.726562 62.335938 C 72.539062 62.335938 72.363281 62.371094 72.191406 62.445312 C 72.019531 62.515625 71.871094 62.617188 71.738281 62.746094 C 71.609375 62.875 71.507812 63.027344 71.4375 63.199219 C 71.367188 63.371094 71.332031 63.546875 71.332031 63.730469 Z M 72.894531 48.648438 C 72.753906 48.582031 72.609375 48.546875 72.453125 48.542969 C 72.296875 48.535156 72.148438 48.558594 72.003906 48.613281 C 71.859375 48.667969 71.730469 48.75 71.617188 48.855469 C 71.503906 48.960938 71.414062 49.082031 71.347656 49.222656 L 68.75 54.914062 L 65.984375 49.199219 C 65.917969 49.058594 65.824219 48.9375 65.710938 48.835938 C 65.59375 48.734375 65.460938 48.65625 65.316406 48.605469 C 65.171875 48.554688 65.019531 48.53125 64.863281 48.542969 C 64.710938 48.550781 64.5625 48.589844 64.421875 48.65625 C 64.285156 48.722656 64.164062 48.816406 64.058594 48.929688 C 63.957031 49.046875 63.878906 49.175781 63.828125 49.324219 C 63.777344 49.46875 63.757812 49.621094 63.765625 49.777344 C 63.777344 49.929688 63.8125 50.078125 63.882812 50.214844 L 67.726562 58.167969 C 67.824219 58.367188 67.96875 58.527344 68.160156 58.648438 C 68.347656 58.765625 68.554688 58.824219 68.777344 58.824219 C 68.78125 58.824219 68.789062 58.824219 68.792969 58.824219 C 69.019531 58.824219 69.226562 58.757812 69.414062 58.636719 C 69.605469 58.511719 69.746094 58.347656 69.839844 58.144531 L 73.472656 50.191406 C 73.535156 50.050781 73.570312 49.90625 73.578125 49.75 C 73.582031 49.59375 73.558594 49.445312 73.503906 49.300781 C 73.449219 49.15625 73.371094 49.027344 73.265625 48.914062 C 73.160156 48.800781 73.035156 48.710938 72.894531 48.648438 Z M 83.042969 49.351562 C 81.246094 47.917969 77.851562 48.441406 77.1875 48.558594 C 76.910156 48.609375 76.679688 48.742188 76.5 48.960938 C 76.320312 49.175781 76.226562 49.425781 76.226562 49.707031 L 76.226562 57.65625 C 76.226562 57.8125 76.257812 57.960938 76.316406 58.105469 C 76.375 58.246094 76.460938 58.375 76.570312 58.484375 C 76.679688 58.59375 76.804688 58.675781 76.949219 58.738281 C 77.089844 58.796875 77.242188 58.824219 77.394531 58.824219 C 77.550781 58.824219 77.699219 58.796875 77.84375 58.738281 C 77.984375 58.675781 78.113281 58.59375 78.222656 58.484375 C 78.332031 58.375 78.414062 58.246094 78.472656 58.105469 C 78.53125 57.960938 78.5625 57.8125 78.5625 57.65625 L 78.5625 50.738281 C 79.523438 50.667969 81.757812 50.652344 81.804688 51.617188 C 81.820312 51.9375 81.605469 52.433594 80.953125 52.792969 C 80.683594 52.9375 80.457031 53.136719 80.277344 53.386719 C 80.097656 53.636719 79.984375 53.914062 79.929688 54.21875 C 79.878906 54.519531 79.894531 54.820312 79.976562 55.117188 C 80.0625 55.414062 80.203125 55.675781 80.410156 55.90625 L 82.652344 58.433594 C 82.757812 58.546875 82.878906 58.640625 83.015625 58.707031 C 83.15625 58.777344 83.300781 58.8125 83.457031 58.824219 C 83.613281 58.832031 83.761719 58.8125 83.90625 58.761719 C 84.054688 58.710938 84.183594 58.632812 84.300781 58.53125 C 84.417969 58.429688 84.507812 58.308594 84.574219 58.167969 C 84.644531 58.027344 84.683594 57.882812 84.691406 57.726562 C 84.699219 57.574219 84.679688 57.421875 84.628906 57.277344 C 84.578125 57.128906 84.5 57 84.398438 56.882812 L 82.40625 54.640625 C 84.578125 53.199219 84.613281 50.601562 83.042969 49.351562 Z M 96.175781 79.605469 C 95.367188 79.816406 94.605469 79.097656 94.605469 78.371094 L 94.605469 66.933594 C 91.367188 66.152344 87.527344 65.566406 83.433594 65.234375 C 83.28125 65.222656 83.132812 65.179688 82.996094 65.109375 C 82.859375 65.039062 82.738281 64.945312 82.640625 64.828125 C 82.539062 64.707031 82.464844 64.574219 82.417969 64.429688 C 82.371094 64.28125 82.351562 64.128906 82.367188 63.976562 C 82.378906 63.820312 82.417969 63.675781 82.492188 63.539062 C 82.5625 63.402344 82.65625 63.28125 82.773438 63.179688 C 82.890625 63.082031 83.023438 63.007812 83.171875 62.960938 C 83.320312 62.914062 83.46875 62.894531 83.625 62.90625 C 87.324219 63.191406 90.980469 63.730469 94.605469 64.535156 L 94.605469 58.453125 C 94.605469 58.050781 94.902344 57.273438 95.582031 57.09375 C 102.027344 55.398438 104.3125 53.292969 104.3125 52.007812 C 104.3125 48.933594 93.160156 44.644531 74.996094 44.644531 C 57.070312 44.644531 45.972656 48.824219 45.691406 51.890625 C 46.230469 55 52.828125 56.753906 55.90625 57.460938 C 56.203125 57.53125 56.4375 57.691406 56.609375 57.941406 C 56.78125 58.195312 56.84375 58.472656 56.796875 58.773438 C 56.8125 58.894531 56.804688 58.777344 56.804688 64.265625 C 59.925781 63.617188 63.078125 63.167969 66.257812 62.917969 C 66.410156 62.902344 66.5625 62.921875 66.710938 62.96875 C 66.855469 63.015625 66.988281 63.089844 67.109375 63.1875 C 67.226562 63.289062 67.320312 63.40625 67.390625 63.546875 C 67.464844 63.683594 67.503906 63.828125 67.515625 63.984375 C 67.53125 64.136719 67.511719 64.289062 67.464844 64.4375 C 67.417969 64.585938 67.34375 64.71875 67.246094 64.835938 C 67.144531 64.953125 67.023438 65.046875 66.886719 65.117188 C 66.75 65.1875 66.601562 65.230469 66.449219 65.242188 C 63.203125 65.5 59.988281 65.96875 56.804688 66.65625 L 56.804688 78.664062 C 56.804688 79.726562 56.0625 80.148438 55.378906 79.988281 C 51.496094 79.09375 43.375 76.65625 43.375 72.703125 C 43.371094 72.6875 43.347656 52.023438 43.347656 52.007812 C 43.347656 43.976562 66.902344 42.3125 74.996094 42.3125 C 83.09375 42.3125 106.648438 43.976562 106.648438 52.007812 L 106.640625 71.878906 C 106.640625 76.371094 100.519531 78.460938 96.175781 79.605469 Z M 45.707031 55.921875 L 45.707031 72.507812 C 45.976562 73.84375 48.402344 75.777344 54.472656 77.363281 L 54.472656 59.519531 C 51.289062 58.726562 47.898438 57.566406 45.707031 55.921875 Z M 104.304688 71.878906 L 104.304688 55.890625 C 102.671875 57.128906 100.199219 58.226562 96.9375 59.144531 L 96.9375 76.964844 C 99.46875 76.207031 104.304688 74.519531 104.304688 71.878906 Z M 90.292969 95.761719 C 85.972656 91.964844 79.632812 92.988281 79.367188 93.035156 C 79.148438 93.070312 78.953125 93.164062 78.789062 93.3125 C 77.683594 94.167969 76.429688 94.578125 75.03125 94.546875 C 75.007812 94.542969 74.988281 94.542969 74.964844 94.546875 C 73.566406 94.578125 72.316406 94.167969 71.214844 93.316406 C 71.046875 93.167969 70.851562 93.074219 70.628906 93.035156 C 70.363281 92.988281 64.023438 91.964844 59.703125 95.761719 C 57.019531 98.117188 55.75 101.75 55.9375 106.558594 C 55.945312 106.707031 55.980469 106.851562 56.039062 106.988281 C 56.101562 107.128906 56.1875 107.25 56.296875 107.351562 C 56.40625 107.457031 56.53125 107.539062 56.667969 107.59375 C 56.808594 107.652344 56.953125 107.679688 57.105469 107.679688 L 92.890625 107.679688 C 93.042969 107.679688 93.1875 107.652344 93.328125 107.59375 C 93.464844 107.539062 93.589844 107.457031 93.699219 107.351562 C 93.808594 107.25 93.894531 107.128906 93.957031 106.988281 C 94.015625 106.851562 94.050781 106.707031 94.058594 106.558594 C 94.246094 101.75 92.976562 98.117188 90.292969 95.761719 Z M 77.171875 85.667969 C 76.5 85.667969 75.882812 85.488281 75.316406 85.136719 L 74.800781 84.8125 L 74.230469 85.160156 C 73.671875 85.5 73.066406 85.667969 72.414062 85.667969 L 66.859375 85.667969 C 66.984375 85.9375 67.121094 86.214844 67.277344 86.492188 C 68.789062 89.183594 71.1875 90.734375 74.207031 90.984375 C 74.238281 90.988281 74.273438 90.988281 74.304688 90.988281 L 75.898438 90.988281 C 75.929688 90.988281 75.960938 90.988281 75.992188 90.984375 C 79.015625 90.734375 81.410156 89.183594 82.921875 86.492188 C 83.078125 86.214844 83.21875 85.9375 83.339844 85.667969 Z M 83.675781 74.511719 L 66.613281 74.511719 C 66.113281 74.511719 65.632812 74.609375 65.167969 74.800781 C 64.707031 74.992188 64.300781 75.265625 63.945312 75.621094 C 63.59375 75.972656 63.320312 76.382812 63.128906 76.84375 C 62.9375 77.304688 62.839844 77.785156 62.839844 78.285156 L 62.839844 79.558594 C 62.839844 80.058594 62.9375 80.539062 63.128906 81.003906 C 63.320312 81.464844 63.59375 81.871094 63.945312 82.226562 C 64.300781 82.578125 64.707031 82.851562 65.167969 83.042969 C 65.632812 83.234375 66.113281 83.332031 66.613281 83.332031 L 72.414062 83.332031 C 72.632812 83.332031 72.832031 83.277344 73.019531 83.164062 L 74.820312 82.074219 L 76.554688 83.15625 C 76.742188 83.273438 76.949219 83.332031 77.171875 83.332031 L 83.675781 83.332031 C 84.175781 83.332031 84.65625 83.234375 85.117188 83.042969 C 85.582031 82.851562 85.988281 82.578125 86.34375 82.226562 C 86.695312 81.871094 86.96875 81.464844 87.160156 81.003906 C 87.351562 80.539062 87.449219 80.058594 87.449219 79.558594 L 87.449219 78.285156 C 87.449219 77.785156 87.351562 77.304688 87.160156 76.84375 C 86.96875 76.382812 86.695312 75.972656 86.34375 75.621094 C 85.988281 75.265625 85.582031 74.992188 85.117188 74.800781 C 84.65625 74.609375 84.175781 74.511719 83.675781 74.511719 Z M 83.59375 72.179688 C 83.265625 71.46875 82.847656 70.816406 82.332031 70.226562 C 81.820312 69.636719 81.234375 69.128906 80.578125 68.707031 C 79.917969 68.28125 79.214844 67.960938 78.464844 67.742188 C 77.714844 67.519531 76.949219 67.410156 76.164062 67.40625 L 74.414062 67.40625 C 73.632812 67.410156 72.867188 67.519531 72.113281 67.742188 C 71.363281 67.960938 70.660156 68.28125 70.003906 68.707031 C 69.34375 69.128906 68.757812 69.636719 68.246094 70.226562 C 67.734375 70.816406 67.3125 71.46875 66.988281 72.179688 Z M 83.59375 72.179688 " fill-opacity="1" fill-rule="nonzero"/></g></svg>