
<svg width="24" height="22" viewBox="0 0 24 22" fill="none" xmlns="http://www.w3.org/2000/svg"><path d="M1 10C0.447715 10 0 10.4477 0 11C0 11.5523 0.447715 12 1 12V10ZM22.5 11L23.2071 11.7071C23.5976 11.3166 23.5976 10.6834 23.2071 10.2929L22.5 11ZM13.2071 0.292893C12.8166 -0.0976311 12.1834 -0.0976311 11.7929 0.292893C11.4024 0.683417 11.4024 1.31658 11.7929 1.70711L13.2071 0.292893ZM11.7929 20.2929C11.4024 20.6834 11.4024 21.3166 11.7929 21.7071C12.1834 22.0976 12.8166 22.0976 13.2071 21.7071L11.7929 20.2929ZM1 12H22.5V10H1V12ZM11.7929 1.70711L21.7929 11.7071L23.2071 10.2929L13.2071 0.292893L11.7929 1.70711ZM21.7929 10.2929L11.7929 20.2929L13.2071 21.7071L23.2071 11.7071L21.7929 10.2929Z" fill="#c1c5ff"/></svg>