
<svg width="24" height="23" viewBox="0 0 24 23" fill="none" xmlns="http://www.w3.org/2000/svg"><path d="M1 10.3186C0.447715 10.3186 0 10.7663 0 11.3186C0 11.8709 0.447715 12.3186 1 12.3186V10.3186ZM22.5 11.3186L23.2071 12.0257C23.5976 11.6352 23.5976 11.002 23.2071 10.6115L22.5 11.3186ZM13.2071 0.611497C12.8166 0.220972 12.1834 0.220972 11.7929 0.611497C11.4024 1.00202 11.4024 1.63519 11.7929 2.02571L13.2071 0.611497ZM11.7929 20.6115C11.4024 21.002 11.4024 21.6352 11.7929 22.0257C12.1834 22.4162 12.8166 22.4162 13.2071 22.0257L11.7929 20.6115ZM1 12.3186H22.5V10.3186H1V12.3186ZM11.7929 2.02571L21.7929 12.0257L23.2071 10.6115L13.2071 0.611497L11.7929 2.02571ZM21.7929 10.6115L11.7929 20.6115L13.2071 22.0257L23.2071 12.0257L21.7929 10.6115Z" fill="#6C757D"/></svg>